<svg width="349" height="220" viewBox="0 0 349 220" fill="none" xmlns="http://www.w3.org/2000/svg">
<path d="M294.557 38.1703C294.854 36.0157 291.813 34.2438 289.523 34.0575C288.43 33.972 287.303 34.1381 286.271 33.7807C284.021 32.9803 283.125 30.1109 280.965 29.1947C279.334 28.5051 277.441 29.1192 275.876 29.9146C274.31 30.71 272.735 31.7117 270.968 31.8225C269.432 31.9231 267.761 31.3493 266.437 32.0993C265.43 32.6581 264.927 33.8159 263.986 34.4955C263.044 35.1751 261.907 35.3009 260.784 35.3613C259.661 35.4217 258.504 35.4368 257.482 35.905C256.46 36.3731 255.619 37.4504 255.831 38.5529L294.557 38.1703Z" fill="#EBEBEB"/>
<path d="M207.53 158.784C207.938 158.235 190.213 130.287 190.213 130.287L177.527 128.273L164.469 145.338L158.932 142.741L120.171 157.888L92.9872 123.254L88.8392 127.568L77.9457 111.374L70.9485 126.874L60.1658 153.599L52.8716 148.157L32.615 168.761H226.377C226.377 168.761 207.117 159.333 207.53 158.784Z" fill="#F5F5F5"/>
<path d="M277.814 168.273C277.814 168.343 219.949 168.404 148.582 168.404C77.2158 168.404 19.3304 168.343 19.3304 168.273C19.3304 168.202 77.1906 168.142 148.572 168.142C219.954 168.142 277.814 168.202 277.814 168.273Z" fill="#E0E0E0"/>
<path d="M268.426 175.708C268.426 175.783 255.841 175.844 240.291 175.844C224.741 175.844 212.156 175.783 212.156 175.708C212.156 175.632 224.741 175.577 240.291 175.577C255.841 175.577 268.426 175.637 268.426 175.708Z" fill="#E0E0E0"/>
<path d="M73.2692 60.0176C73.7071 56.8714 69.242 54.2789 65.9196 54.0121C64.3289 53.8812 62.6778 54.1279 61.1676 53.5993C57.9005 52.4617 56.5917 48.2382 53.4052 46.8941C51.0191 45.8873 48.2756 46.7834 45.96 47.9462C43.6444 49.1091 41.3489 50.5991 38.7816 50.7401C36.5364 50.881 34.095 50.0504 32.1317 51.1478C30.6668 51.9633 29.9017 53.6648 28.5526 54.6464C27.2035 55.628 25.5322 55.8294 23.871 55.92C22.2098 56.0106 20.5335 56.0257 19.0434 56.7053C17.5534 57.3849 16.315 58.9655 16.6271 60.5814L73.2692 60.0176Z" fill="#EBEBEB"/>
<path d="M303.412 112.23C303.789 109.491 299.923 107.236 297.018 107.005C295.634 106.889 294.194 107.105 292.885 106.647C290.041 105.64 288.904 101.981 286.13 100.813C284.056 99.9369 281.665 100.717 279.656 101.729C277.648 102.741 275.659 104.014 273.409 104.155C271.456 104.281 269.337 103.556 267.625 104.513C266.352 105.223 265.682 106.692 264.509 107.558C263.336 108.424 261.861 108.565 260.437 108.661C259.012 108.756 257.537 108.751 256.238 109.345C254.94 109.939 253.867 111.314 254.134 112.718L303.412 112.23Z" fill="#F5F5F5"/>
<path d="M208.3 26.2448C208.567 24.3118 205.838 22.7211 203.769 22.5549C202.788 22.4744 201.756 22.6254 200.85 22.3032C198.836 21.6035 198.041 19.011 196.083 18.1855C194.618 17.5663 192.931 18.12 191.512 18.8298C190.092 19.5396 188.688 20.4457 187.102 20.5464C185.728 20.637 184.228 20.1235 183.019 20.7981C182.123 21.3015 181.65 22.3083 180.82 22.9476C179.957 23.4802 178.959 23.7513 177.945 23.7279C176.936 23.7107 175.932 23.8814 174.985 24.2313C174.069 24.6491 173.309 25.6206 173.5 26.6073L208.3 26.2448Z" fill="#F5F5F5"/>
<path d="M348.923 212.189C348.219 198.29 348.526 203.128 347.821 189.224L323.044 175.421L300.769 184.18L296.852 190.528C294.47 194.363 291.226 197.59 287.378 199.951C282.616 202.886 276.193 207.502 273.867 212.189H348.923Z" fill="#E0E0E0"/>
<path d="M0 178.255L25.4416 186.687L55.3987 212.174H0V178.255Z" fill="#E0E0E0"/>
<path d="M305.717 144.457L311.003 182.106L312.377 182.146C311.501 169.365 310.565 156.312 305.717 144.457Z" fill="#E0E0E0"/>
<path d="M320.396 142.72C316.706 146.748 315.221 152.33 314.285 157.727C312.956 165.378 312.835 174.414 313.233 182.172L315.166 182.217C314.4 168.839 316.174 155.438 320.396 142.72Z" fill="#E0E0E0"/>
<path d="M306.689 166.732C306.261 164.865 305.777 162.967 304.715 161.381C303.276 159.232 300.93 157.858 298.574 156.821C296.218 155.784 293.736 154.918 291.607 153.458C293.983 157.354 299.379 158.391 302.123 162.016C303.492 163.828 304.061 166.103 304.594 168.308C305.762 173.121 306.482 177.284 307.65 182.096H309.211C308.695 176.927 307.852 171.795 306.689 166.732Z" fill="#E0E0E0"/>
<path d="M316.575 182.146C316.575 182.146 317.899 167.196 318.881 164.452C319.862 161.709 329.14 154.122 329.049 154.48C328.959 154.837 322.093 163.133 321.111 164.83C320.129 166.526 318.433 182.146 318.433 182.146H316.575Z" fill="#E0E0E0"/>
<path d="M260.291 179.569C260.184 179.588 260.076 179.597 259.968 179.594L259.057 179.619L255.695 179.66L244.62 179.7L233.545 179.66L230.188 179.619L229.271 179.594C229.165 179.596 229.059 179.588 228.954 179.569C229.058 179.547 229.165 179.538 229.271 179.544H230.188L233.545 179.504L244.62 179.463L255.695 179.504L259.057 179.544H259.968C260.076 179.538 260.185 179.547 260.291 179.569Z" fill="#E0E0E0"/>
<path d="M279.304 187.019C279.628 187.252 279.903 187.547 280.11 187.888C280.318 188.229 280.454 188.608 280.512 189.003C280.623 189.795 280.551 190.603 280.301 191.364C279.748 192.871 278.815 194.21 277.592 195.25C276.52 193.916 276.586 191.932 276.661 190.926C276.807 189.335 278.025 186.551 279.304 187.019Z" fill="#FF725E"/>
<path d="M278.624 197.993C278.613 197.547 278.721 197.105 278.937 196.714C279.153 196.323 279.469 195.997 279.853 195.768C280.239 195.544 280.665 195.4 281.108 195.344C281.551 195.287 282 195.321 282.43 195.441C282.637 195.471 282.835 195.547 283.009 195.662C283.183 195.778 283.329 195.931 283.437 196.111C283.507 196.291 283.528 196.487 283.497 196.678C283.466 196.869 283.384 197.049 283.261 197.198C283.008 197.49 282.683 197.712 282.319 197.842C281.096 198.346 279.802 198.587 278.644 197.993" fill="#FF725E"/>
<path d="M276.173 202.327C276.196 202.224 276.229 202.122 276.273 202.025C276.349 201.814 276.45 201.522 276.575 201.215C276.883 200.309 277.335 199.459 277.914 198.698C278.512 197.94 279.301 197.354 280.2 197.002C280.472 196.899 280.756 196.829 281.046 196.795C281.146 196.795 281.227 196.795 281.282 196.795H281.363C280.976 196.853 280.596 196.953 280.23 197.092C279.354 197.456 278.586 198.038 278 198.784C277.431 199.541 276.975 200.377 276.646 201.265C276.51 201.603 276.394 201.874 276.314 202.061C276.272 202.152 276.225 202.241 276.173 202.327Z" fill="#263238"/>
<path d="M278.559 189.209C278.564 189.256 278.564 189.303 278.559 189.35C278.559 189.451 278.544 189.582 278.514 189.743C278.473 190.085 278.408 190.573 278.317 191.182C278.141 192.401 277.874 194.072 277.537 195.919C277.2 197.767 276.857 199.443 276.591 200.621C276.46 201.225 276.349 201.708 276.268 202.041C276.228 202.197 276.193 202.328 276.173 202.423C276.164 202.47 276.148 202.516 276.127 202.559C276.127 202.559 276.127 202.509 276.127 202.418C276.127 202.327 276.173 202.192 276.203 202.031L276.495 200.606C276.737 199.403 277.069 197.742 277.406 195.899C277.743 194.057 278.02 192.375 278.217 191.172C278.317 190.573 278.393 190.09 278.453 189.738C278.478 189.576 278.503 189.446 278.519 189.345C278.526 189.298 278.54 189.253 278.559 189.209Z" fill="#263238"/>
<path d="M276.263 198.522C276.273 197.58 276.058 196.65 275.637 195.808C275.216 194.966 274.601 194.236 273.842 193.679C273.454 193.397 272.921 193.176 272.518 193.422C272.115 193.669 272.09 194.258 272.181 194.726C272.388 195.704 272.881 196.599 273.599 197.295C274.316 197.992 275.224 198.459 276.208 198.638" fill="#FF725E"/>
<path d="M273.792 195.144C273.878 195.193 273.961 195.249 274.038 195.31C274.135 195.376 274.228 195.448 274.315 195.527C274.435 195.625 274.549 195.729 274.658 195.839C274.778 195.965 274.914 196.095 275.045 196.251C275.186 196.412 275.317 196.58 275.438 196.755C275.72 197.173 275.953 197.622 276.133 198.094C276.302 198.56 276.42 199.042 276.485 199.534C276.509 199.749 276.52 199.966 276.52 200.183C276.531 200.371 276.531 200.559 276.52 200.747C276.51 200.901 276.49 201.054 276.46 201.205C276.443 201.322 276.419 201.438 276.389 201.552C276.369 201.648 276.34 201.743 276.304 201.834C276.278 201.834 276.394 201.421 276.44 200.742C276.45 200.556 276.45 200.369 276.44 200.183C276.435 199.971 276.418 199.759 276.389 199.549C276.325 199.066 276.207 198.591 276.037 198.134C275.859 197.68 275.633 197.246 275.362 196.84C275.246 196.666 275.12 196.497 274.985 196.337C274.859 196.181 274.728 196.045 274.612 195.919C274.129 195.406 273.777 195.164 273.792 195.144Z" fill="#263238"/>
<path d="M43.7501 211.64L43.9615 211.615C43.5235 205.071 40.2364 198.054 37.8503 191.917C35.3987 185.6 33.0982 179.116 27.5156 175.28C33.5509 187.112 38.9697 199.248 43.7501 211.64Z" fill="#455A64"/>
<path d="M47.6665 178.376C47.6665 178.376 47.6665 178.406 47.6665 178.462L47.591 178.703L47.2789 179.639C47.2134 179.841 47.1379 180.067 47.0523 180.309L46.8107 181.119C46.6395 181.698 46.4231 182.358 46.2419 183.098C46.1462 183.465 46.0405 183.853 45.9348 184.256C45.8291 184.658 45.7435 185.081 45.6428 185.519C45.4314 186.39 45.2602 187.331 45.0689 188.323C44.7266 190.337 44.4296 192.506 44.2534 194.827C44.0773 197.148 44.0672 199.357 44.1125 201.371C44.1578 202.378 44.183 203.334 44.2635 204.225C44.2988 204.673 44.3189 205.106 44.3642 205.519C44.4095 205.932 44.4498 206.335 44.485 206.712C44.5555 207.472 44.6662 208.152 44.7417 208.756L44.8575 209.591C44.9028 209.848 44.9431 210.095 44.9783 210.291C45.0438 210.704 45.0941 211.031 45.1344 211.263L45.1696 211.514C45.1719 211.543 45.1719 211.572 45.1696 211.6C45.1696 211.6 44.7468 209.758 44.3793 206.722C44.339 206.345 44.2937 205.947 44.2484 205.529C44.2031 205.111 44.1779 204.683 44.1377 204.235C44.0521 203.339 44.0219 202.383 43.9766 201.371C43.9212 199.357 43.9464 197.127 44.1075 194.802C44.2685 192.476 44.6109 190.271 44.9381 188.288C45.1294 187.281 45.3055 186.35 45.522 185.479C45.6277 185.041 45.7183 184.618 45.824 184.215C45.9298 183.813 46.0355 183.425 46.1361 183.058C46.3274 182.318 46.5489 181.663 46.7251 181.079L46.9818 180.274L47.2184 179.604C47.3594 179.212 47.4752 178.899 47.5507 178.683C47.591 178.582 47.6212 178.502 47.6413 178.441L47.6665 178.376Z" fill="#455A64"/>
<path d="M46.6814 174.753L44.4362 182.676C44.2104 183.473 44.6735 184.303 45.4706 184.528L45.8048 184.623C46.6019 184.849 47.4312 184.386 47.657 183.589L49.9022 175.665C50.128 174.868 49.6649 174.039 48.8678 173.813L48.5336 173.718C47.7365 173.492 46.9072 173.955 46.6814 174.753Z" fill="#F5F5F5"/>
<path d="M45.809 184.628C45.809 184.628 45.8996 184.653 46.0758 184.663C46.3317 184.684 46.5886 184.637 46.8208 184.527C47.0031 184.445 47.1662 184.325 47.2997 184.176C47.4331 184.027 47.5341 183.852 47.596 183.662C47.7269 183.209 47.8679 182.68 48.034 182.101C48.3562 180.938 48.7438 179.559 49.1717 178.029C49.3831 177.263 49.6096 176.458 49.8462 175.627C49.8995 175.424 49.9072 175.211 49.869 175.004C49.8307 174.797 49.7473 174.601 49.6247 174.429C49.5006 174.253 49.3368 174.108 49.1465 174.006C48.9449 173.908 48.7318 173.835 48.5122 173.79C48.2025 173.707 47.8738 173.73 47.579 173.856C47.2841 173.982 47.0401 174.203 46.8862 174.485C46.795 174.678 46.7258 174.88 46.6798 175.089C46.4432 175.919 46.2117 176.725 45.9952 177.49C45.5573 179 45.1596 180.39 44.8274 181.552C44.7418 181.839 44.6663 182.116 44.5908 182.378C44.5045 182.614 44.4536 182.862 44.4397 183.113C44.4432 183.313 44.4864 183.51 44.5667 183.693C44.6471 183.877 44.7631 184.042 44.9079 184.18C45.0972 184.352 45.3251 184.477 45.5724 184.543L45.7637 184.603L45.8291 184.628H45.7586L45.5623 184.578C45.307 184.521 45.0699 184.402 44.8727 184.23C44.7184 184.089 44.5943 183.918 44.5078 183.728C44.4213 183.538 44.3742 183.332 44.3693 183.123C44.3822 182.864 44.4313 182.608 44.5152 182.363C44.5857 182.101 44.6612 181.824 44.7418 181.537C45.069 180.374 45.4566 179.02 45.8845 177.465C46.0959 176.7 46.3224 175.894 46.559 175.064C46.6061 174.844 46.6788 174.632 46.7755 174.429C46.8889 174.231 47.0434 174.059 47.2285 173.926C47.4209 173.785 47.6427 173.69 47.8773 173.647C48.1118 173.604 48.353 173.615 48.5827 173.679C48.81 173.733 49.0311 173.811 49.2421 173.911C49.4425 174.026 49.6146 174.184 49.7455 174.374C49.8799 174.562 49.9712 174.777 50.013 175.004C50.0548 175.231 50.0459 175.465 49.9872 175.688C49.7506 176.518 49.519 177.324 49.3025 178.089L48.1347 182.151C47.9685 182.73 47.8226 183.249 47.6766 183.712C47.5644 184.036 47.3453 184.312 47.0553 184.495C46.7652 184.678 46.4216 184.757 46.0808 184.719C45.9863 184.702 45.8948 184.671 45.809 184.628Z" fill="#263238"/>
<path d="M45.1596 211.615C44.9532 206.556 44.9482 200.988 47.8175 196.81C49.4435 194.449 51.89 192.743 54.5076 191.57C57.161 190.475 59.9093 189.625 62.718 189.033C59.6121 193.382 52.5796 193.432 49.6297 197.872C48.7438 199.191 48.331 200.757 47.9333 202.292C47.1027 205.464 46.3778 208.474 45.5472 211.65" fill="#455A64"/>
<path d="M22.985 193.845H23.0555H23.2568C23.433 193.87 23.6948 193.891 24.027 193.956C24.9683 194.115 25.8957 194.347 26.8007 194.651C28.1472 195.1 29.4416 195.692 30.6618 196.418C31.3766 196.851 32.0657 197.325 32.7257 197.837C33.438 198.396 34.1108 199.003 34.7393 199.654C35.3634 200.303 35.9356 201 36.4508 201.739C36.7126 202.086 36.9542 202.453 37.1656 202.801C37.3771 203.148 37.5986 203.51 37.7848 203.863C38.47 205.105 39.0298 206.411 39.4561 207.764C39.7491 208.673 39.9696 209.604 40.1155 210.548C40.1759 210.88 40.191 211.142 40.2112 211.318V211.52C40.2112 211.565 40.2112 211.59 40.2112 211.59V211.525C40.2112 211.469 40.2112 211.404 40.181 211.323C40.1457 211.147 40.1256 210.885 40.0551 210.558C39.8896 209.621 39.6557 208.697 39.3554 207.794C38.9205 206.452 38.3557 205.156 37.669 203.923C37.4828 203.571 37.2613 203.229 37.0499 202.871C36.8384 202.514 36.5968 202.161 36.3401 201.814C35.8235 201.084 35.2531 200.395 34.6336 199.75C34.0182 199.105 33.3589 198.502 32.6602 197.948C32.0045 197.437 31.3205 196.963 30.6114 196.528C28.5853 195.305 26.3573 194.453 24.032 194.011C23.6998 193.936 23.4431 193.911 23.2669 193.875L23.0655 193.84L22.985 193.845Z" fill="#455A64"/>
<path d="M17.9942 190.6L17.8437 190.913C17.4846 191.659 17.7989 192.556 18.5455 192.915L25.9677 196.484C26.7143 196.843 27.6107 196.528 27.9697 195.782L28.1202 195.469C28.4792 194.722 28.165 193.826 27.4183 193.467L19.9962 189.898C19.2495 189.539 18.3532 189.853 17.9942 190.6Z" fill="#F5F5F5"/>
<path d="M28.1246 195.466C28.1246 195.466 28.1649 195.381 28.2052 195.209C28.2824 194.893 28.2526 194.56 28.1206 194.262C27.9885 193.964 27.7616 193.719 27.4753 193.563C27.0524 193.352 26.554 193.125 26.0154 192.864L22.2198 191.046L19.9646 189.969C19.774 189.88 19.566 189.833 19.3555 189.833C19.145 189.833 18.937 189.88 18.7464 189.969C18.551 190.065 18.3792 190.202 18.243 190.372C18.1148 190.554 18.0067 190.75 17.9208 190.956C17.8263 191.151 17.7772 191.365 17.7772 191.583C17.7772 191.8 17.8263 192.014 17.9208 192.209C18.0143 192.403 18.1482 192.575 18.3135 192.713C18.4882 192.838 18.6775 192.941 18.8773 193.02L21.1174 194.067L24.923 195.914L25.6932 196.287C25.9116 196.413 26.1473 196.506 26.393 196.564C26.591 196.594 26.7932 196.585 26.9876 196.537C27.1821 196.488 27.365 196.401 27.5256 196.282C27.7265 196.126 27.887 195.924 27.9938 195.693L28.0894 195.512C28.0995 195.49 28.1113 195.47 28.1246 195.451C28.1279 195.473 28.1279 195.495 28.1246 195.517L28.0441 195.703C27.9439 195.946 27.7847 196.161 27.581 196.327C27.4162 196.456 27.2267 196.551 27.0242 196.605C26.8216 196.658 26.6103 196.67 26.403 196.639C26.1492 196.585 25.9049 196.494 25.6781 196.367L24.9029 196L21.0872 194.183C20.3724 193.835 19.6173 193.478 18.837 193.105C18.63 193.02 18.434 192.91 18.2531 192.778C18.0702 192.634 17.9208 192.452 17.8151 192.244C17.7106 192.03 17.6562 191.795 17.6562 191.557C17.6562 191.319 17.7106 191.084 17.8151 190.87C17.9027 190.654 18.016 190.45 18.1524 190.261C18.3694 189.985 18.6737 189.79 19.0156 189.709C19.3574 189.627 19.7168 189.664 20.0351 189.813L22.2802 190.895L26.0859 192.743C26.6245 193.005 27.0927 193.246 27.5457 193.458C27.7269 193.563 27.884 193.706 28.0071 193.876C28.1301 194.046 28.2165 194.239 28.2606 194.444C28.3322 194.698 28.3322 194.966 28.2606 195.22C28.2291 195.309 28.1832 195.392 28.1246 195.466Z" fill="#263238"/>
<path d="M316.303 78.2557C316.796 78.127 317.306 78.0827 317.814 78.1248C318.321 78.0838 318.831 78.1281 319.324 78.2557C318.831 78.3832 318.321 78.4275 317.814 78.3865C317.306 78.4286 316.796 78.3844 316.303 78.2557Z" fill="#263238"/>
<path d="M304.232 78.2557C306.242 78.0809 308.263 78.0809 310.273 78.2557C308.263 78.4304 306.242 78.4304 304.232 78.2557Z" fill="#263238"/>
<path d="M292.166 78.2557C294.175 78.0806 296.197 78.0806 298.206 78.2557C296.197 78.4308 294.175 78.4308 292.166 78.2557Z" fill="#263238"/>
<path d="M280.094 78.2557C282.104 78.0809 284.125 78.0809 286.135 78.2557C284.125 78.4304 282.104 78.4304 280.094 78.2557Z" fill="#263238"/>
<path d="M268.028 78.2557C270.038 78.0806 272.059 78.0806 274.069 78.2557C272.059 78.4308 270.038 78.4308 268.028 78.2557Z" fill="#263238"/>
<path d="M255.966 77.9889C256.974 77.9603 257.982 77.9872 258.987 78.0694C259.997 78.0633 261.006 78.1255 262.007 78.2557C261.006 78.3874 259.993 78.4127 258.987 78.3312C257.97 78.3389 256.956 78.2239 255.966 77.9889Z" fill="#263238"/>
<path d="M245.294 73.1059C245.36 73.0505 246.196 74.1127 247.54 75.0843C248.884 76.0558 250.137 76.5592 250.102 76.6398C249.806 76.5968 249.52 76.5031 249.256 76.3629C248.595 76.0755 247.968 75.7177 247.384 75.2957C246.532 74.7311 245.818 73.9829 245.294 73.1059Z" fill="#263238"/>
<path d="M241.997 61.699C242.063 61.699 242.148 63.043 242.355 64.6892C242.561 66.3353 242.858 67.6541 242.767 67.6743C242.398 66.7298 242.17 65.7357 242.093 64.7244C241.92 63.7253 241.888 62.707 241.997 61.699Z" fill="#263238"/>
<path d="M237.603 50.7099C238.352 51.3947 238.989 52.1931 239.49 53.0758C240.061 53.9171 240.488 54.8477 240.754 55.8294C240.683 55.8596 240.145 54.6212 239.269 53.2117C238.393 51.8022 237.542 50.7602 237.603 50.7099Z" fill="#263238"/>
<path d="M227.696 44.0801C228.692 44.2657 229.653 44.6054 230.545 45.0869C231.475 45.4942 232.337 46.0408 233.102 46.7079C233.062 46.7733 231.924 46.0484 230.434 45.3235C228.944 44.5986 227.671 44.1506 227.696 44.0801Z" fill="#263238"/>
<path d="M215.755 43.617C216.712 43.2791 217.716 43.0906 218.73 43.0582C219.444 43.0142 220.161 43.0142 220.875 43.0582C221.171 43.0473 221.467 43.0761 221.756 43.1438C221.47 43.2257 221.172 43.2597 220.875 43.2445C220.326 43.2445 219.576 43.2797 218.75 43.3452C217.099 43.4408 215.77 43.6925 215.755 43.617Z" fill="#263238"/>
<path d="M205.27 49.2601C205.889 48.454 206.636 47.7537 207.479 47.1861C208.27 46.5462 209.157 46.0364 210.107 45.6759C210.142 45.7464 208.964 46.4058 207.635 47.3925C206.307 48.3791 205.325 49.3154 205.27 49.2601Z" fill="#263238"/>
<path d="M199.999 59.8767C200.076 57.8403 200.678 55.8584 201.746 54.1229C201.816 54.1581 201.242 55.3713 200.739 56.962C200.236 58.5528 200.08 59.8867 199.999 59.8767Z" fill="#263238"/>
<path d="M199.722 71.938C199.608 70.9355 199.579 69.9251 199.637 68.9177C199.606 67.9077 199.665 66.8969 199.813 65.8973C199.927 66.8998 199.956 67.9103 199.898 68.9177C199.929 69.9277 199.87 70.9384 199.722 71.938Z" fill="#263238"/>
<path d="M199.551 84.0044C199.433 83.0022 199.402 81.9916 199.46 80.9841C199.433 79.9741 199.492 78.9636 199.637 77.9637C199.755 78.9659 199.785 79.9765 199.727 80.9841C199.754 81.994 199.695 83.0045 199.551 84.0044Z" fill="#263238"/>
<path d="M199.375 96.0708C199.26 95.0683 199.231 94.0578 199.289 93.0504C199.259 92.0404 199.318 91.0297 199.465 90.0301C199.58 91.0326 199.609 92.0431 199.551 93.0504C199.582 94.0605 199.523 95.0712 199.375 96.0708Z" fill="#263238"/>
<path d="M196.047 107.448C195.982 107.402 196.742 106.285 197.467 104.795C198.192 103.305 198.589 102.021 198.665 102.041C198.508 103.045 198.181 104.016 197.698 104.91C197.293 105.842 196.735 106.699 196.047 107.448Z" fill="#263238"/>
<path d="M186.584 114.651C186.558 114.581 187.812 114.077 189.262 113.277C190.711 112.476 191.809 111.691 191.854 111.767C191.13 112.477 190.297 113.069 189.387 113.518C188.518 114.04 187.572 114.422 186.584 114.651Z" fill="#263238"/>
<path d="M174.683 116.041C175.685 115.92 176.695 115.878 177.704 115.915H178.877H179.833C180.129 115.89 180.428 115.909 180.719 115.97C180.434 116.058 180.137 116.102 179.838 116.101L178.877 116.171C178.519 116.171 178.121 116.171 177.704 116.171C176.695 116.224 175.684 116.18 174.683 116.041Z" fill="#263238"/>
<path d="M163.281 112.577C163.327 112.512 164.469 113.227 165.974 113.916C167.48 114.606 168.758 115.034 168.738 115.109C167.736 114.943 166.766 114.621 165.864 114.153C164.927 113.764 164.056 113.232 163.281 112.577Z" fill="#263238"/>
<path d="M155.756 103.39C155.831 103.365 156.334 104.618 157.175 106.043C158.016 107.468 158.851 108.525 158.791 108.56C158.05 107.866 157.427 107.055 156.949 106.159C156.401 105.308 155.997 104.373 155.756 103.39Z" fill="#263238"/>
<path d="M154.613 91.4597C154.743 92.4609 154.786 93.4714 154.744 94.4801C154.786 95.4888 154.742 96.4992 154.613 97.5005C154.481 96.4995 154.437 95.4888 154.482 94.4801C154.436 93.4714 154.48 92.4607 154.613 91.4597Z" fill="#263238"/>
<path d="M154.613 79.3933C154.743 80.3945 154.786 81.405 154.744 82.4137C154.786 83.4224 154.743 84.4329 154.613 85.4341C154.48 84.4331 154.436 83.4224 154.482 82.4137C154.436 81.405 154.48 80.3943 154.613 79.3933Z" fill="#263238"/>
<path d="M154.613 67.3219C154.742 68.3232 154.786 69.3336 154.744 70.3423C154.786 71.351 154.743 72.3614 154.613 73.3627C154.48 72.3617 154.436 71.351 154.482 70.3423C154.437 69.3336 154.481 68.3229 154.613 67.3219Z" fill="#263238"/>
<path d="M154.613 55.2555C154.743 56.2567 154.786 57.2672 154.744 58.2759C154.786 59.2846 154.742 60.295 154.613 61.2963C154.481 60.2953 154.437 59.2846 154.482 58.2759C154.436 57.2672 154.48 56.2565 154.613 55.2555Z" fill="#263238"/>
<path d="M154.613 43.1841C154.693 43.4725 154.732 43.7708 154.729 44.0701C154.754 44.6137 154.769 45.3688 154.769 46.2045C154.812 47.2131 154.768 48.2236 154.638 49.2248C154.505 48.2239 154.462 47.2131 154.507 46.2045C154.507 45.3688 154.507 44.6137 154.542 44.0701C154.523 43.7729 154.547 43.4745 154.613 43.1841Z" fill="#263238"/>
<path d="M150.032 32.2504C150.795 32.9213 151.445 33.7119 151.955 34.5911C152.533 35.4278 152.966 36.3551 153.239 37.3346C153.163 37.3648 152.619 36.1265 151.728 34.7321C150.837 33.3377 149.972 32.3007 150.032 32.2504Z" fill="#263238"/>
<path d="M139.894 26.0133C141.896 26.3755 143.79 27.1898 145.431 28.3943C145.391 28.4598 144.223 27.7802 142.703 27.1308C141.182 26.4814 139.873 26.0888 139.894 26.0133Z" fill="#263238"/>
<path d="M127.933 25.6206C128.896 25.3016 129.903 25.1318 130.918 25.1172C131.759 25.0719 132.514 25.1172 133.062 25.1172C133.359 25.1056 133.656 25.1379 133.943 25.2129C133.656 25.2872 133.359 25.3178 133.062 25.3035C132.514 25.3337 131.759 25.3035 130.933 25.374C129.262 25.4797 127.933 25.6961 127.933 25.6206Z" fill="#263238"/>
<path d="M117.286 30.9919C118.638 29.4745 120.326 28.2937 122.214 27.5436C122.25 27.6141 121.057 28.2433 119.697 29.1947C118.338 30.1462 117.362 31.0472 117.286 30.9919Z" fill="#263238"/>
<path d="M111.703 41.4474C111.731 40.4308 111.932 39.4264 112.297 38.4773C112.582 37.5019 113.031 36.5825 113.626 35.759C113.697 35.7942 113.073 36.9923 112.544 38.5629C112.016 40.1335 111.779 41.4574 111.703 41.4474Z" fill="#263238"/>
<path d="M111.497 53.5037C111.364 52.5027 111.321 51.492 111.366 50.4833C111.321 49.4747 111.364 48.4639 111.497 47.463C111.627 48.4642 111.671 49.4747 111.628 50.4833C111.671 51.492 111.627 52.5025 111.497 53.5037Z" fill="#263238"/>
<path d="M111.497 65.5751C111.364 64.5742 111.321 63.5634 111.366 62.5548C111.321 61.5461 111.365 60.5354 111.497 59.5344C111.626 60.5356 111.67 61.5461 111.628 62.5548C111.671 63.5634 111.627 64.5739 111.497 65.5751Z" fill="#263238"/>
<path d="M111.19 77.6264C111.114 77.6264 111.341 76.2773 111.361 74.606C111.318 73.5972 111.364 72.5866 111.497 71.5857C111.626 72.5869 111.669 73.5975 111.623 74.606C111.654 75.6303 111.507 76.6521 111.19 77.6264Z" fill="#263238"/>
<path d="M105.28 87.9007C105.23 87.8403 106.221 86.9241 107.294 85.6405C108.366 84.3568 109.045 83.2091 109.116 83.2493C108.236 85.0894 106.919 86.6863 105.28 87.9007Z" fill="#263238"/>
<path d="M94.4974 92.9699C94.4974 92.8944 95.8112 92.6528 97.3969 92.1645C98.9826 91.6762 100.216 91.1577 100.251 91.208C99.3923 91.7508 98.4551 92.1582 97.4724 92.4162C96.5157 92.7548 95.5119 92.9416 94.4974 92.9699Z" fill="#263238"/>
<path d="M82.441 93.3877C83.4413 93.2466 84.4516 93.1893 85.4614 93.2166C86.4689 93.156 87.4798 93.1864 88.4818 93.3072C87.4815 93.4483 86.4712 93.5056 85.4614 93.4783C84.4539 93.5387 83.4431 93.5083 82.441 93.3877Z" fill="#263238"/>
<path d="M70.3746 93.5438C71.3746 93.3995 72.3852 93.3423 73.395 93.3726C74.4024 93.3151 75.4129 93.3437 76.4154 93.4582C75.4157 93.6058 74.405 93.6647 73.395 93.6344C72.3875 93.6889 71.3771 93.6585 70.3746 93.5438Z" fill="#263238"/>
<path d="M58.3083 93.7149C59.3079 93.5673 60.3186 93.5084 61.3287 93.5387C62.3362 93.4814 63.3468 93.5117 64.349 93.6293C63.3491 93.7736 62.3385 93.8308 61.3287 93.8005C60.3213 93.858 59.3108 93.8294 58.3083 93.7149Z" fill="#263238"/>
<path d="M46.2419 93.8911C47.2418 93.7469 48.2524 93.6896 49.2623 93.72C50.2696 93.6619 51.2801 93.6906 52.2826 93.8055C51.283 93.9536 50.2723 94.0126 49.2623 93.9817C48.2547 94.0394 47.2441 94.0091 46.2419 93.8911Z" fill="#263238"/>
<path d="M37.1506 94.0069C37.6424 93.8745 38.1525 93.8235 38.6608 93.8559C39.1668 93.8078 39.6773 93.8452 40.1709 93.9666C39.6796 94.1015 39.1691 94.1526 38.6608 94.1176C38.1548 94.1712 37.6433 94.1337 37.1506 94.0069Z" fill="#263238"/>
<path d="M137.548 17.7224C137.549 17.17 137.423 16.6249 137.179 16.1294C136.935 15.6339 136.579 15.2014 136.141 14.8656C135.702 14.5298 135.192 14.2996 134.65 14.1932C134.109 14.0867 133.549 14.1067 133.016 14.2517C132.483 14.3967 131.991 14.6627 131.578 15.0291C131.164 15.3954 130.841 15.8522 130.633 16.3639C130.425 16.8756 130.338 17.4284 130.379 17.9792C130.42 18.53 130.587 19.064 130.868 19.5396C131.009 19.7712 131.18 19.9373 131.371 20.184L133.47 22.9526C133.531 23.032 133.609 23.0962 133.698 23.1405C133.788 23.1847 133.886 23.2077 133.986 23.2077C134.086 23.2077 134.185 23.1847 134.274 23.1405C134.363 23.0962 134.442 23.032 134.502 22.9526L136.551 20.2393C136.73 20.018 136.898 19.7878 137.054 19.5497C137.38 18.9958 137.55 18.3647 137.548 17.7224ZM133.974 19.2879C133.661 19.2879 133.355 19.1952 133.095 19.0215C132.836 18.8478 132.633 18.601 132.513 18.3121C132.394 18.0233 132.362 17.7055 132.423 17.3989C132.484 17.0923 132.635 16.8106 132.856 16.5896C133.077 16.3685 133.359 16.218 133.665 16.157C133.972 16.096 134.29 16.1273 134.579 16.2469C134.867 16.3665 135.114 16.5691 135.288 16.8291C135.462 17.089 135.554 17.3946 135.554 17.7073C135.554 18.1265 135.388 18.5285 135.091 18.825C134.795 19.1214 134.393 19.2879 133.974 19.2879Z" fill="#FF725E"/>
<path d="M273.626 70.8608C273.626 70.309 273.499 69.7646 273.255 69.2697C273.011 68.7749 272.657 68.3429 272.219 68.0074C271.781 67.672 271.271 67.442 270.73 67.3354C270.188 67.2288 269.63 67.2484 269.097 67.3928C268.565 67.5372 268.073 67.8024 267.659 68.1678C267.246 68.5332 266.922 68.989 266.714 69.4998C266.505 70.0105 266.417 70.5625 266.456 71.1129C266.496 71.6632 266.661 72.1971 266.94 72.673C267.076 72.9046 267.248 73.0707 267.444 73.3123L269.528 76.0709C269.588 76.1465 269.665 76.2075 269.752 76.2494C269.839 76.2913 269.935 76.3131 270.031 76.3131C270.128 76.3131 270.223 76.2913 270.311 76.2494C270.398 76.2075 270.474 76.1465 270.535 76.0709L272.584 73.3576C272.763 73.1363 272.931 72.9061 273.087 72.668C273.425 72.1245 273.611 71.5005 273.626 70.8608ZM270.036 72.4213C269.723 72.4223 269.417 72.3304 269.157 72.1574C268.896 71.9843 268.693 71.7378 268.572 71.449C268.452 71.1603 268.42 70.8423 268.48 70.5354C268.541 70.2284 268.691 69.9463 268.912 69.7247C269.133 69.5032 269.414 69.3521 269.721 69.2907C270.028 69.2293 270.346 69.2603 270.635 69.3798C270.924 69.4993 271.171 69.7019 271.345 69.962C271.519 70.222 271.612 70.5278 271.612 70.8406C271.613 71.048 271.572 71.2534 271.493 71.4452C271.415 71.6369 271.299 71.8112 271.152 71.958C271.006 72.1049 270.832 72.2214 270.64 72.3009C270.449 72.3804 270.244 72.4213 270.036 72.4213Z" fill="#FF725E"/>
<path d="M223.19 35.3211C223.192 34.7685 223.067 34.223 222.823 33.7271C222.58 33.2311 222.225 32.798 221.787 32.4616C221.348 32.1251 220.838 31.8945 220.296 31.7875C219.754 31.6805 219.195 31.7001 218.661 31.8447C218.128 31.9894 217.636 32.2552 217.222 32.6215C216.808 32.9878 216.485 33.4446 216.277 33.9564C216.068 34.4682 215.981 35.0212 216.022 35.5722C216.062 36.1232 216.229 36.6575 216.51 37.1333C216.646 37.3648 216.817 37.531 217.014 37.7776L219.098 40.5362C219.158 40.6156 219.237 40.6798 219.326 40.7241C219.415 40.7683 219.514 40.7913 219.614 40.7913C219.714 40.7913 219.812 40.7683 219.902 40.7241C219.991 40.6798 220.069 40.6156 220.13 40.5362L222.179 37.8229C222.358 37.6016 222.526 37.3714 222.682 37.1333C223.01 36.5854 223.186 35.9597 223.19 35.3211ZM219.606 36.8816C219.293 36.8826 218.987 36.7907 218.727 36.6176C218.466 36.4446 218.263 36.198 218.142 35.9093C218.022 35.6206 217.99 35.3026 218.05 34.9956C218.111 34.6887 218.261 34.4066 218.482 34.185C218.703 33.9635 218.984 33.8124 219.291 33.751C219.598 33.6896 219.916 33.7206 220.205 33.8401C220.494 33.9596 220.741 34.1622 220.915 34.4222C221.089 34.6823 221.182 34.9881 221.182 35.3009C221.182 35.7193 221.016 36.1206 220.721 36.4168C220.425 36.7131 220.025 36.8802 219.606 36.8816Z" fill="#455A64"/>
<path d="M75.2677 83.0933C75.2721 82.4093 75.1182 81.7336 74.8181 81.119C74.518 80.5044 74.0798 79.9675 73.5378 79.5504C72.9958 79.1332 72.3647 78.8471 71.6937 78.7143C71.0228 78.5815 70.3302 78.6057 69.6702 78.7851C69.0101 78.9644 68.4005 79.2939 67.889 79.7479C67.3774 80.202 66.9778 80.7681 66.7214 81.4022C66.465 82.0363 66.3587 82.7211 66.4109 83.403C66.463 84.085 66.6722 84.7457 67.0221 85.3334C67.208 85.607 67.408 85.8708 67.6211 86.1237L70.1935 89.5368C70.2674 89.6367 70.3638 89.7179 70.4748 89.7738C70.5858 89.8298 70.7084 89.8589 70.8328 89.8589C70.9571 89.8589 71.0797 89.8298 71.1907 89.7738C71.3018 89.7179 71.3981 89.6367 71.4721 89.5368L73.9891 86.1841C74.2201 85.9115 74.4352 85.6258 74.6334 85.3284C75.0406 84.6533 75.2596 83.8816 75.2677 83.0933ZM70.8277 85.0263C70.4414 85.0263 70.0638 84.9118 69.7426 84.6972C69.4214 84.4825 69.1711 84.1775 69.0232 83.8206C68.8754 83.4637 68.8367 83.071 68.9121 82.6921C68.9875 82.3132 69.1735 81.9652 69.4466 81.692C69.7198 81.4189 70.0678 81.2329 70.4467 81.1575C70.8256 81.0821 71.2183 81.1208 71.5752 81.2687C71.9321 81.4165 72.2371 81.6668 72.4517 81.988C72.6664 82.3092 72.7809 82.6868 72.7809 83.0731C72.7809 83.5912 72.5751 84.088 72.2088 84.4543C71.8425 84.8205 71.3457 85.0263 70.8277 85.0263Z" fill="#455A64"/>
<path d="M155.62 69.2801C152.864 69.1317 150.118 69.7043 147.651 70.9413C145.018 72.1696 142.531 73.9869 141.223 76.5793C139.914 79.1718 140.06 82.6201 142.124 84.6739C138.157 85.726 135.172 89.2548 133.923 93.1612C132.675 97.0675 132.942 101.316 133.732 105.343C134.11 107.246 134.779 109.371 136.536 110.186C137.664 110.689 139.053 110.589 140.11 111.238C141.167 111.887 141.65 113.076 142.32 114.087C142.96 115.055 143.789 115.883 144.759 116.521C145.728 117.158 146.817 117.591 147.96 117.795C149.102 117.998 150.274 117.967 151.403 117.704C152.533 117.44 153.598 116.95 154.532 116.262L162.667 73.0304C161.071 70.7953 158.353 69.5117 155.62 69.2801Z" fill="#455A64"/>
<path d="M161.087 73.9365C160.918 74.1757 160.731 74.4012 160.528 74.6111C160.15 75.0339 159.602 75.6179 158.907 76.373C157.124 78.3212 155.124 80.0591 152.947 81.5529C150.748 83.0506 148.232 84.0189 145.597 84.382C144.801 84.4812 143.996 84.4981 143.196 84.4323C142.914 84.4323 142.692 84.3719 142.547 84.3518C142.471 84.3463 142.396 84.3293 142.325 84.3014C142.325 84.3014 142.642 84.3014 143.201 84.3316C143.994 84.3579 144.787 84.3141 145.572 84.2008C148.162 83.7878 150.63 82.8099 152.801 81.3364C154.959 79.8549 156.961 78.1581 158.776 76.2723L160.452 74.5658C160.646 74.3393 160.859 74.1288 161.087 73.9365Z" fill="#263238"/>
<path d="M145.23 86.8889C145.199 86.8889 145.068 86.6875 144.958 86.3049C144.828 85.7951 144.803 85.2644 144.882 84.7444C144.965 84.2251 145.154 83.7282 145.436 83.2846C145.657 82.9473 145.849 82.7812 145.874 82.7812C145.54 83.4034 145.294 84.0693 145.144 84.7595C145.07 85.4697 145.099 86.1868 145.23 86.8889Z" fill="#263238"/>
<path d="M147.968 88.4947C148.014 88.5688 148.052 88.6483 148.079 88.7313C148.144 88.8874 148.245 89.1189 148.351 89.431C148.663 90.2966 148.92 91.1809 149.121 92.0789C149.826 95.0582 149.826 98.1607 149.121 101.14C148.375 104.122 146.741 106.806 144.434 108.837C143.737 109.443 142.972 109.967 142.154 110.397C141.872 110.559 141.65 110.644 141.479 110.72C141.4 110.757 141.318 110.788 141.233 110.81C141.515 110.627 141.808 110.459 142.109 110.307C142.896 109.848 143.635 109.31 144.313 108.701C146.545 106.659 148.128 104.007 148.869 101.075C149.565 98.1366 149.594 95.08 148.955 92.1292C148.723 90.9916 148.451 90.1157 148.275 89.4713C148.152 89.1527 148.049 88.8265 147.968 88.4947Z" fill="#263238"/>
<path d="M149.368 95.3057C149.158 95.2828 148.953 95.2372 148.753 95.1697C148.361 95.064 147.792 94.9231 147.087 94.757C143.42 93.8959 139.649 93.5569 135.887 93.7502C135.167 93.7854 134.583 93.8257 134.18 93.8609C133.971 93.8852 133.76 93.8852 133.551 93.8609C133.752 93.7955 133.96 93.7533 134.17 93.7351C134.568 93.6696 135.152 93.6042 135.877 93.5438C139.658 93.2424 143.464 93.5828 147.132 94.5506C147.837 94.7368 148.396 94.908 148.779 95.054C148.985 95.1124 149.183 95.197 149.368 95.3057Z" fill="#263238"/>
<g opacity="0.3">
<path opacity="0.3" d="M142.677 84.3266C145.416 86.0885 149.111 85.8871 152.01 84.4021C154.91 82.9171 157.044 80.1635 158.167 77.1079C154.376 81.4875 148.748 84.6639 142.677 84.3266Z" fill="black"/>
</g>
<g opacity="0.3">
<path opacity="0.3" d="M141.212 110.8C142.35 110.72 143.457 110.39 144.452 109.833C145.448 109.276 146.308 108.506 146.971 107.578C148.162 105.692 148.883 103.548 149.076 101.326C148.345 103.227 147.421 105.047 146.317 106.758C145.679 107.565 144.951 108.296 144.147 108.938C143.246 109.675 142.259 110.301 141.207 110.8" fill="black"/>
</g>
<path d="M144.042 94.0069C144.226 94.4228 144.346 94.864 144.399 95.3157C144.485 95.7285 144.58 96.2067 144.726 96.7403C144.815 97.0427 144.815 97.3642 144.726 97.6666C144.677 97.8439 144.571 98.0003 144.425 98.1121C144.279 98.2238 144.1 98.2848 143.916 98.2857C143.736 98.2609 143.567 98.1845 143.429 98.0657C143.292 97.9469 143.191 97.7908 143.14 97.6162C143.055 97.3152 143.055 96.9961 143.14 96.695C143.286 96.1463 143.443 95.6882 143.568 95.2805C143.681 94.8425 143.834 94.4161 144.026 94.0069C143.976 94.458 143.882 94.9032 143.745 95.3359C143.634 95.7637 143.508 96.2369 143.377 96.7454C143.307 97.0041 143.307 97.2769 143.377 97.5357C143.412 97.6625 143.483 97.7768 143.58 97.8658C143.677 97.9547 143.796 98.0148 143.926 98.0391C144.054 98.0354 144.177 97.9902 144.277 97.9103C144.377 97.8303 144.448 97.7201 144.48 97.5961C144.548 97.3388 144.548 97.0681 144.48 96.8108C144.36 96.335 144.267 95.8526 144.203 95.3661C144.122 94.5204 144.042 94.017 144.042 94.0069Z" fill="#263238"/>
<path d="M155.957 77.8278C155.401 77.5494 154.863 77.2367 154.346 76.8914C153.077 76.101 151.76 75.3882 150.404 74.7571C149.052 74.1292 147.626 73.6726 146.161 73.3979C145.033 73.1915 144.318 73.1865 144.318 73.1412C144.484 73.1086 144.653 73.0984 144.822 73.111C145.278 73.113 145.734 73.1467 146.186 73.2116C147.684 73.4375 149.142 73.8765 150.515 74.5154C151.883 75.1485 153.198 75.8909 154.447 76.7354C154.925 77.0525 155.308 77.3193 155.569 77.5106C155.711 77.5998 155.841 77.7063 155.957 77.8278Z" fill="#263238"/>
<path d="M155.202 77.4905C155.232 77.4905 155.257 77.6616 155.116 77.8781C155.021 78.0207 154.885 78.132 154.727 78.1982C154.568 78.2645 154.394 78.2827 154.225 78.2506L154.059 78.2204L154.135 78.0644C154.28 77.7725 154.536 77.55 154.844 77.4452C155.076 77.3697 155.227 77.3999 155.232 77.4452C155.237 77.4905 155.101 77.5257 154.92 77.6314C154.685 77.7607 154.494 77.957 154.371 78.1952L154.286 78.009C154.412 78.0297 154.541 78.0195 154.662 77.9791C154.783 77.9388 154.892 77.8695 154.98 77.7774C155.116 77.6214 155.162 77.4854 155.202 77.4905Z" fill="#263238"/>
<path d="M197.724 76.524C197.724 76.524 195.71 73.8761 195.71 72.8039L196.546 66.5718C196.546 66.5718 196.908 65.9426 197.472 66.9846C197.975 67.9411 197.693 69.4211 197.693 69.4211L198.046 70.8859L198.806 69.7785L199.662 65.6154C199.662 65.6154 200.205 62.595 200.669 62.9222C201.132 63.2494 201.273 64.1102 201.036 65.409C200.799 66.7078 200.497 68.3539 200.497 68.3539C200.497 68.3539 200.437 68.8573 200.92 68.0065C201.403 67.1558 201.927 63.5112 202.123 63.0229C202.32 62.5346 202.38 61.2359 203.13 61.3063C203.88 61.3768 203.442 63.033 203.442 63.033L202.727 68.3992C202.727 68.3992 203.422 66.2396 203.553 65.8822C203.684 65.5248 203.89 64.3368 204.142 63.6924C204.394 63.0481 204.766 62.7158 205.093 62.7561C205.25 62.7651 205.397 62.8338 205.505 62.948C205.613 63.0622 205.673 63.2133 205.672 63.3702L204.575 67.9612C204.575 67.9612 203.966 70.0503 204.006 70.1862C204.046 70.3221 204.817 69.3153 204.817 69.3153L205.411 67.8052C205.411 67.8052 205.914 65.6959 206.468 65.6355C207.021 65.5751 207.052 66.003 207.052 66.003L206.12 69.859L204.414 74.2587L202.798 77.566C202.798 77.566 200.543 77.2136 200.457 77.3294C200.372 77.4452 197.724 76.524 197.724 76.524Z" fill="#FFBE9D"/>
<path d="M201.721 74.6664C201.541 74.3572 201.386 74.034 201.257 73.6999C200.944 72.9169 200.348 72.2806 199.586 71.9179C199.213 71.7551 198.796 71.7231 198.403 71.8273L198.272 71.8625L198.242 71.7216C198.096 71.0823 197.895 70.4933 197.804 70.0906C197.721 69.8776 197.685 69.6492 197.698 69.4211C197.803 69.6184 197.888 69.8258 197.95 70.0402C198.159 70.5793 198.341 71.1287 198.494 71.6863L198.328 71.5806C198.776 71.4488 199.257 71.4773 199.687 71.6612C200.152 71.8554 200.557 72.1699 200.86 72.5723C201.095 72.8954 201.288 73.2473 201.434 73.6194C201.589 73.9493 201.686 74.3035 201.721 74.6664Z" fill="#EB996E"/>
<path d="M180.286 73.5086L191.436 90.1761L196.47 75.6481L203.326 77.3344C203.326 77.3344 200.528 96.8662 199.46 98.8043C198.393 100.742 195.046 103.541 190.903 102.977C186.76 102.414 178.509 91.3037 178.509 91.3037L180.286 73.5086Z" fill="#FF725E"/>
<path d="M192.811 96.8662C193.061 94.4295 192.532 91.9761 191.3 89.8589C191.563 90.1103 191.778 90.4071 191.935 90.7348C192.372 91.4983 192.688 92.3254 192.871 93.1864C193.061 94.0451 193.119 94.9278 193.042 95.804C193.028 96.1689 192.95 96.5285 192.811 96.8662Z" fill="#263238"/>
<g opacity="0.3">
<path opacity="0.3" d="M181.127 94.8476C181.491 94.6545 181.804 94.3776 182.04 94.0398C182.277 93.702 182.429 93.3128 182.486 92.9045C182.594 92.0886 182.569 91.2606 182.41 90.4529C181.962 87.1658 181.333 83.7427 180.9 80.4555L181.076 94.5053" fill="black"/>
</g>
<g opacity="0.3">
<path opacity="0.3" d="M192.926 96.0557C193.147 96.0149 193.355 95.92 193.531 95.7794C193.706 95.6389 193.845 95.4571 193.933 95.2503C194.108 94.8305 194.168 94.3721 194.109 93.9213C194.03 93.0722 193.736 92.2572 193.255 91.5528C192.774 90.8484 192.122 90.2776 191.361 89.8941C192.459 91.7527 192.997 93.8887 192.911 96.0456" fill="black"/>
</g>
<path d="M193.102 182.101L199.475 196.609L217.698 188.937C216.858 187.246 205.229 188.107 205.229 188.107L201.202 178.255L193.102 182.101Z" fill="#FF725E"/>
<g opacity="0.6">
<path opacity="0.6" d="M199.989 189.31C199.837 189.437 199.736 189.617 199.708 189.814C199.679 190.01 199.723 190.211 199.833 190.377C199.955 190.533 200.133 190.637 200.33 190.667C200.526 190.697 200.726 190.651 200.89 190.538C201.051 190.402 201.156 190.212 201.184 190.004C201.213 189.796 201.164 189.584 201.046 189.41C200.903 189.26 200.707 189.171 200.5 189.162C200.293 189.153 200.09 189.224 199.934 189.36" fill="white"/>
</g>
<g opacity="0.6">
<path opacity="0.6" d="M199.475 196.609L198.902 195.099L216.586 188.303C216.586 188.303 217.547 188.303 217.698 188.922L199.475 196.609Z" fill="white"/>
</g>
<path d="M205.572 188.152C205.607 188.242 205.179 188.474 204.862 188.942C204.545 189.41 204.469 189.884 204.358 189.884C204.248 189.884 204.177 189.315 204.575 188.751C204.973 188.187 205.557 188.066 205.572 188.152Z" fill="#263238"/>
<path d="M208.305 187.976C208.365 188.051 208.043 188.363 207.897 188.867C207.751 189.37 207.837 189.808 207.746 189.838C207.656 189.868 207.384 189.395 207.575 188.771C207.766 188.147 208.27 187.89 208.305 187.976Z" fill="#263238"/>
<path d="M210.278 189.733C210.208 189.783 209.896 189.39 209.921 188.811C209.946 188.232 210.278 187.86 210.344 187.915C210.409 187.971 210.268 188.343 210.253 188.821C210.238 189.3 210.364 189.687 210.278 189.733Z" fill="#263238"/>
<path d="M204.404 185.776C204.404 185.872 203.941 185.922 203.452 186.169C202.964 186.415 202.637 186.737 202.556 186.672C202.476 186.606 202.722 186.138 203.301 185.856C203.88 185.575 204.414 185.69 204.404 185.776Z" fill="#263238"/>
<path d="M129.242 196.332L128.461 188.585L134.925 180.445L127.002 175.351L126.79 175.663L122.763 181.744L117.533 185.872L125.839 199.519L133.928 198.975C133.928 198.975 133.203 197.087 129.242 196.332Z" fill="#FF725E"/>
<g opacity="0.6">
<path opacity="0.6" d="M117.523 185.872L125.829 199.519L133.918 198.975L132.927 197.822L126.322 197.903L118.635 184.996L117.523 185.872Z" fill="white"/>
</g>
<path d="M128.94 192.778C128.889 192.864 128.401 192.632 127.777 192.693C127.153 192.753 126.71 193.04 126.644 192.964C126.579 192.889 126.987 192.396 127.752 192.335C128.517 192.275 129.02 192.713 128.94 192.778Z" fill="#263238"/>
<path d="M128.693 190.86C128.613 190.926 128.22 190.473 127.57 190.392C126.921 190.311 126.418 190.639 126.362 190.558C126.307 190.478 126.418 190.382 126.634 190.241C126.928 190.062 127.275 189.99 127.616 190.035C127.957 190.079 128.274 190.239 128.512 190.488C128.683 190.679 128.728 190.835 128.693 190.86Z" fill="#263238"/>
<path d="M128.577 188.383C128.492 188.439 128.185 187.986 127.611 187.83C127.037 187.674 126.538 187.89 126.493 187.805C126.448 187.719 126.564 187.643 126.78 187.548C127.073 187.423 127.399 187.402 127.705 187.487C128.011 187.572 128.28 187.759 128.466 188.016C128.602 188.212 128.618 188.363 128.577 188.383Z" fill="#263238"/>
<path d="M130.616 186.325C130.52 186.365 130.264 185.917 129.74 185.63C129.217 185.343 128.733 185.323 128.698 185.222C128.663 185.121 129.282 184.95 129.916 185.318C130.551 185.685 130.712 186.304 130.616 186.325Z" fill="#263238"/>
<path d="M131.557 184.593C131.517 184.623 131.23 184.316 130.797 183.792C130.551 183.49 130.294 183.183 130.047 182.866C129.876 182.681 129.735 182.471 129.629 182.242C129.594 182.163 129.576 182.077 129.576 181.99C129.576 181.904 129.594 181.818 129.629 181.739C129.67 181.65 129.737 181.575 129.82 181.523C129.903 181.471 130 181.444 130.098 181.447C130.387 181.483 130.66 181.601 130.883 181.789C131.422 182.197 131.79 182.791 131.915 183.455C132.023 183.828 131.983 184.228 131.804 184.573C131.778 184.217 131.733 183.862 131.668 183.511C131.571 183.144 131.4 182.801 131.165 182.504C131.027 182.335 130.868 182.184 130.692 182.056C130.523 181.921 130.324 181.829 130.113 181.789C130.082 181.787 130.051 181.794 130.024 181.809C129.997 181.824 129.975 181.847 129.962 181.875C129.936 181.948 129.936 182.028 129.962 182.101C130.056 182.296 130.174 182.479 130.314 182.645C130.546 182.977 130.777 183.299 131.004 183.616C131.242 183.908 131.429 184.239 131.557 184.593Z" fill="#263238"/>
<path d="M131.864 184.814C131.824 184.814 131.829 184.387 132.232 183.873C132.507 183.528 132.889 183.282 133.317 183.175C133.745 183.068 134.197 183.104 134.603 183.279C134.647 183.311 134.683 183.352 134.708 183.4C134.734 183.448 134.748 183.502 134.749 183.556C134.748 183.651 134.72 183.743 134.668 183.823C134.591 183.926 134.499 184.017 134.397 184.095C133.934 184.468 133.385 184.72 132.801 184.83C132.473 184.932 132.122 184.932 131.794 184.83C131.794 184.769 132.177 184.774 132.745 184.608C133.268 184.458 133.753 184.201 134.17 183.853C134.245 183.797 134.313 183.731 134.371 183.657C134.402 183.581 134.371 183.601 134.371 183.581C134.296 183.543 134.214 183.519 134.13 183.511C134.03 183.495 133.929 183.486 133.828 183.485C133.633 183.481 133.439 183.508 133.254 183.566C132.935 183.659 132.646 183.832 132.413 184.069C132.015 184.452 131.92 184.835 131.864 184.814Z" fill="#263238"/>
<g opacity="0.6">
<path opacity="0.6" d="M123.961 185.197C123.974 185.387 123.93 185.577 123.834 185.743C123.739 185.908 123.596 186.041 123.424 186.125C123.253 186.209 123.061 186.24 122.871 186.214C122.682 186.188 122.505 186.106 122.363 185.979C122.22 185.853 122.118 185.686 122.071 185.501C122.023 185.316 122.032 185.122 122.095 184.942C122.158 184.762 122.274 184.604 122.427 184.49C122.58 184.376 122.764 184.31 122.954 184.301C123.206 184.288 123.453 184.375 123.641 184.543C123.829 184.711 123.944 184.945 123.961 185.197Z" fill="white"/>
</g>
<path d="M166.725 47.463C167.071 45.7999 167.669 44.1993 168.497 42.7159C169.341 41.2232 170.707 40.0954 172.332 39.5496C174.022 39.1075 175.801 39.1511 177.467 39.6754C178.645 40.0776 179.72 40.7361 180.613 41.6034C182.123 42.9072 182.894 44.9409 183.528 46.8287" fill="#FF725E"/>
<path d="M184.595 46.9596C184.301 45.1294 183.318 43.4813 181.847 42.3535C180.351 41.3061 178.587 40.7087 176.762 40.6319C173.938 40.4154 170.636 41.1856 168.708 43.2495C166.78 45.3135 165.642 48.1224 165.884 50.6394C165.99 51.772 167.087 54.8377 167.958 55.5777L184.137 55.1599C185.104 53.6195 184.887 48.7668 184.595 46.9596Z" fill="#FF725E"/>
<path d="M184.313 50.3474C184.138 48.107 183.126 46.0146 181.477 44.4874C179.829 42.9601 177.665 42.1102 175.418 42.1068H174.955C169.961 42.3887 167.404 46.7834 167.832 51.767L168.708 74.7923H180.15L180.049 67.2967C180.049 67.2967 184.852 66.5618 184.917 61.7594C184.947 59.4438 184.625 54.6665 184.313 50.3474Z" fill="#FFBE9D"/>
<path d="M180.085 67.2917C177.857 67.2875 175.676 66.6446 173.802 65.4392C173.802 65.4392 175.272 68.8925 180.06 68.4596L180.085 67.2917Z" fill="#EB996E"/>
<path d="M182.42 54.1229C182.421 54.3015 182.351 54.4732 182.227 54.6018C182.103 54.7305 181.934 54.806 181.756 54.8125C181.669 54.8194 181.581 54.8087 181.498 54.781C181.415 54.7534 181.339 54.7095 181.273 54.6517C181.207 54.594 181.154 54.5237 181.116 54.445C181.078 54.3663 181.056 54.2807 181.051 54.1933C181.051 54.0147 181.12 53.843 181.244 53.7144C181.368 53.5857 181.537 53.5102 181.716 53.5037C181.803 53.4969 181.891 53.5076 181.974 53.5352C182.057 53.5628 182.133 53.6068 182.199 53.6645C182.265 53.7222 182.318 53.7925 182.356 53.8712C182.394 53.95 182.416 54.0355 182.42 54.1229Z" fill="#263238"/>
<path d="M183.251 52.6932C183.165 52.7838 182.647 52.3962 181.912 52.3962C181.177 52.3962 180.633 52.7637 180.553 52.6731C180.472 52.5825 180.598 52.4768 180.835 52.3056C181.154 52.0846 181.534 51.9668 181.922 51.9683C182.305 51.969 182.679 52.0905 182.989 52.3157C183.216 52.4919 183.306 52.653 183.251 52.6932Z" fill="#263238"/>
<path d="M175.328 54.4702C175.329 54.6484 175.261 54.8201 175.138 54.9489C175.015 55.0776 174.846 55.1533 174.668 55.1599C174.581 55.166 174.494 55.1548 174.411 55.1269C174.328 55.0991 174.252 55.0551 174.186 54.9975C174.121 54.9399 174.067 54.8698 174.029 54.7914C173.991 54.713 173.969 54.6278 173.963 54.5407C173.961 54.3617 174.028 54.1887 174.151 54.0588C174.275 53.929 174.444 53.8526 174.623 53.846C174.71 53.8399 174.798 53.8512 174.881 53.8794C174.964 53.9076 175.041 53.9521 175.106 54.0102C175.172 54.0683 175.225 54.1389 175.263 54.2179C175.301 54.2969 175.323 54.3827 175.328 54.4702Z" fill="#263238"/>
<path d="M175.992 53.0607C175.912 53.1513 175.388 52.7637 174.653 52.7687C173.918 52.7738 173.374 53.1362 173.294 53.0456C173.213 52.955 173.344 52.8442 173.581 52.6731C173.899 52.4508 174.28 52.3345 174.668 52.3409C175.051 52.3386 175.425 52.4585 175.735 52.6832C175.957 52.8593 176.037 53.0204 175.992 53.0607Z" fill="#263238"/>
<path d="M178.67 58.291C179.059 58.1699 179.461 58.0972 179.868 58.0745C180.054 58.0745 180.231 58.0192 180.266 57.8933C180.282 57.6986 180.238 57.5036 180.14 57.3345L179.586 55.8999C178.816 53.8561 178.262 52.1747 178.343 52.1445C178.423 52.1143 179.118 53.7453 179.883 55.7891C180.07 56.2925 180.246 56.7959 180.417 57.2339C180.534 57.4618 180.568 57.7236 180.513 57.9739C180.485 58.0403 180.443 58.0994 180.389 58.1466C180.334 58.1938 180.27 58.2277 180.2 58.2457C180.097 58.2759 179.991 58.2912 179.883 58.291C179.481 58.3423 179.073 58.3423 178.67 58.291Z" fill="#263238"/>
<path d="M176.496 58.7944C176.616 58.7944 176.616 59.5898 177.301 60.1586C177.986 60.7274 178.836 60.662 178.841 60.7526C178.846 60.8432 178.655 60.9087 178.293 60.9187C177.823 60.9225 177.368 60.7622 177.004 60.4657C176.656 60.1806 176.433 59.7703 176.385 59.323C176.355 58.9907 176.44 58.7894 176.496 58.7944Z" fill="#263238"/>
<path d="M176.375 51.3894C176.304 51.5908 175.564 51.5052 174.703 51.621C173.843 51.7368 173.143 51.9734 173.022 51.7972C172.972 51.7116 173.093 51.5203 173.369 51.324C173.744 51.0825 174.168 50.9294 174.61 50.8762C175.052 50.823 175.501 50.8711 175.922 51.0169C176.259 51.1377 176.405 51.2938 176.375 51.3894Z" fill="#263238"/>
<path d="M183.432 50.5639C183.291 50.7451 182.652 50.6343 181.922 50.6998C181.192 50.7652 180.563 50.9515 180.412 50.7954C180.341 50.7149 180.412 50.5387 180.684 50.3524C181.045 50.1168 181.461 49.9797 181.892 49.9548C182.319 49.9123 182.751 49.9853 183.14 50.1662C183.387 50.3122 183.493 50.4733 183.432 50.5639Z" fill="#263238"/>
<path d="M168.522 55.321C168.441 55.2857 165.23 54.3393 165.325 57.6215C165.421 60.9036 168.698 60.1385 168.703 60.0328C168.708 59.927 168.522 55.321 168.522 55.321Z" fill="#FFBE9D"/>
<path d="M167.953 58.8195C167.953 58.8195 167.892 58.8598 167.797 58.9102C167.661 58.9655 167.509 58.9655 167.374 58.9102C167.158 58.7824 166.979 58.5995 166.857 58.3801C166.735 58.1607 166.674 57.9128 166.679 57.6617C166.663 57.3799 166.709 57.098 166.815 56.8362C166.843 56.7331 166.896 56.6383 166.968 56.5602C167.041 56.4821 167.132 56.4231 167.233 56.3881C167.298 56.3689 167.368 56.3729 167.43 56.3995C167.493 56.4262 167.544 56.4738 167.575 56.5341C167.621 56.6247 167.6 56.6902 167.621 56.6952C167.641 56.7003 167.686 56.6398 167.656 56.5039C167.636 56.424 167.59 56.3531 167.525 56.3026C167.432 56.2357 167.316 56.2086 167.203 56.2271C167.069 56.2581 166.946 56.3231 166.844 56.4156C166.743 56.5082 166.667 56.6253 166.624 56.7556C166.491 57.0418 166.432 57.3569 166.453 57.6718C166.444 57.9648 166.523 58.2538 166.679 58.5021C166.835 58.7503 167.061 58.9467 167.329 59.0662C167.415 59.0878 167.505 59.0899 167.592 59.0725C167.679 59.0551 167.761 59.0186 167.832 58.9655C167.948 58.9001 167.963 58.8246 167.953 58.8195Z" fill="#EB996E"/>
<path d="M170.676 45.5652L172.297 44.1657L177.452 44.956L181.076 44.0248L182.028 45.0668C181.62 45.6155 182.486 43.2747 181.66 42.6505C179.883 41.3014 178.383 41.3517 176.123 41.3115C173.863 41.2712 169.352 43.9895 167.736 45.5299C166.443 46.7632 166.453 47.8254 166.453 47.8254C166.246 49.6024 167.238 51.616 167.631 53.3628C167.837 54.2588 168.23 56.9771 168.23 56.9771C168.985 56.9771 169.237 56.3781 169.151 55.6331L169.01 52.7083C169.766 52.1125 170.307 51.2862 170.551 50.3548C170.794 49.4235 170.727 48.4382 170.359 47.5485C170.188 47.2868 169.77 46.0685 170.676 45.5652Z" fill="#263238"/>
<path d="M170.007 46.3504C170.182 45.8902 170.497 45.4967 170.908 45.2256C171.319 44.9546 171.805 44.8197 172.297 44.8403C173.283 44.9045 174.211 45.3292 174.905 46.0333C175.081 46.2231 175.279 46.392 175.494 46.5367C175.602 46.6033 175.724 46.6419 175.851 46.649C175.978 46.656 176.104 46.6313 176.219 46.577C176.289 46.5417 176.36 46.4864 176.435 46.5065C176.487 46.5278 176.53 46.5671 176.556 46.6172C176.742 46.9191 177.004 47.1672 177.316 47.3371C177.473 47.4177 177.651 47.447 177.825 47.4208C178 47.3946 178.161 47.3143 178.288 47.1911C178.468 47.3565 178.692 47.4657 178.934 47.5055C179.175 47.5453 179.423 47.5138 179.647 47.415C179.87 47.3162 180.061 47.1543 180.194 46.9492C180.327 46.744 180.398 46.5045 180.397 46.2598C180.618 46.3056 180.848 46.2874 181.059 46.2071C181.271 46.1269 181.455 45.988 181.59 45.8068C181.828 45.5365 182.004 45.2166 182.104 44.8703C182.204 44.5239 182.226 44.1596 182.168 43.8038C182.111 43.4479 181.974 43.1093 181.77 42.8123C181.565 42.5154 181.298 42.2676 180.986 42.0867C180.491 41.8353 179.953 41.6799 179.4 41.6286C178.539 41.508 177.672 41.4424 176.803 41.4323C176.42 41.4112 176.037 41.4572 175.67 41.5682C175.167 41.7494 174.754 42.1572 174.23 42.2226C173.887 42.2382 173.545 42.1833 173.223 42.0615C172.759 41.9014 172.269 41.8297 171.779 41.8501C170.817 41.9357 170.022 42.6253 169.388 43.3603C168.909 43.8453 168.562 44.4449 168.381 45.102C168.297 45.432 168.312 45.7795 168.426 46.1004C168.54 46.4213 168.747 46.7011 169.02 46.9042C169.131 46.9801 169.258 47.0288 169.391 47.0463C169.524 47.0638 169.659 47.0496 169.785 47.0049C169.846 46.9795 169.902 46.9423 169.949 46.8954C169.996 46.8485 170.033 46.7929 170.058 46.7316C170.083 46.6703 170.096 46.6047 170.096 46.5384C170.096 46.4721 170.083 46.4065 170.057 46.3454" fill="#263238"/>
<path d="M167.736 53.8611C167.384 51.3441 167.807 48.3238 169.634 46.1743C171.462 44.0248 174.693 42.7109 176.833 43.1187C178.499 43.4358 182.123 43.5667 183.447 47.0552L183.261 44.1758C183.261 44.1758 181.65 40.9037 176.893 41.0044C172.136 41.1051 170.062 41.6588 167.762 44.4577C166.995 45.3106 166.469 46.3525 166.238 47.4761C166.007 48.5997 166.079 49.7645 166.448 50.8508C166.78 51.8932 167.211 52.9013 167.736 53.8611Z" fill="#FF725E"/>
<path d="M180.84 41.7142C180.779 41.7005 180.72 41.6803 180.664 41.6538C180.553 41.6135 180.392 41.543 180.16 41.4726C179.554 41.2539 178.931 41.0855 178.298 40.9692C177.36 40.8126 176.408 40.7569 175.458 40.803C174.296 40.8573 173.149 41.0864 172.056 41.4826C170.963 41.8975 169.943 42.4837 169.035 43.2193C168.642 43.5401 168.279 43.8975 167.953 44.2865C167.792 44.4627 167.661 44.649 167.525 44.8252C167.389 45.0013 167.273 45.1775 167.173 45.3537C166.836 45.9011 166.553 46.4793 166.327 47.0804C166.241 47.2868 166.191 47.4579 166.151 47.5838C166.134 47.6435 166.111 47.701 166.08 47.7549L166.126 47.5787C166.166 47.463 166.206 47.2918 166.287 47.0753C166.497 46.4646 166.77 45.8775 167.102 45.3235C167.203 45.1473 167.329 44.9711 167.449 44.7849C167.57 44.5986 167.716 44.4124 167.877 44.2312C168.208 43.8383 168.574 43.4761 168.97 43.1489C169.875 42.4025 170.895 41.8076 171.99 41.387C173.094 40.9856 174.254 40.7581 175.428 40.7124C176.386 40.6658 177.345 40.73 178.288 40.9037C178.922 41.0172 179.545 41.1856 180.15 41.4071C180.367 41.4876 180.523 41.5682 180.654 41.6135L180.84 41.7142Z" fill="#263238"/>
<path d="M168.054 49.6477C168.002 49.6338 167.952 49.6117 167.908 49.5823C167.782 49.5046 167.662 49.4171 167.55 49.3205C167.179 48.9983 166.895 48.5877 166.724 48.1267C166.553 47.6657 166.502 47.169 166.574 46.6827C166.596 46.5373 166.632 46.3941 166.679 46.2548C166.715 46.1541 166.74 46.1038 166.745 46.1088C166.75 46.1139 166.689 46.3303 166.654 46.6928C166.609 47.1649 166.669 47.641 166.83 48.0872C166.998 48.5313 167.262 48.9321 167.606 49.2601C167.867 49.5118 168.064 49.6326 168.054 49.6477Z" fill="#263238"/>
<path d="M169.443 46.7683C169.286 46.6997 169.145 46.5984 169.03 46.4713C168.731 46.179 168.505 45.8202 168.371 45.4242C168.231 45.0286 168.198 44.6033 168.275 44.1909C168.294 44.0131 168.35 43.8415 168.441 43.6875C168.441 43.6875 168.396 43.8788 168.351 44.1909C168.304 44.5897 168.347 44.9938 168.476 45.3739C168.609 45.7472 168.816 46.0897 169.086 46.3807C169.292 46.6424 169.453 46.7532 169.443 46.7683Z" fill="#263238"/>
<path d="M171.693 44.6691C171.564 44.6098 171.446 44.528 171.346 44.4275C171.087 44.1977 170.872 43.9232 170.711 43.617C170.553 43.3037 170.462 42.9607 170.445 42.6102C170.426 42.4684 170.438 42.3242 170.48 42.1874C170.505 42.6587 170.618 43.1213 170.812 43.5516C171.053 43.963 171.349 44.3391 171.693 44.6691Z" fill="#263238"/>
<path d="M173.863 40.954C173.952 41.0453 174.022 41.153 174.069 41.2712C174.21 41.5399 174.319 41.8236 174.396 42.1169C174.471 42.4118 174.515 42.7139 174.527 43.018C174.539 43.1446 174.529 43.2723 174.497 43.3955C174.462 43.3955 174.462 42.8216 174.286 42.1471C174.109 41.4725 173.833 40.9691 173.863 40.954Z" fill="#263238"/>
<path d="M178.041 40.8735C178.119 40.9731 178.176 41.088 178.207 41.2108C178.302 41.5013 178.341 41.8069 178.323 42.1119C178.307 42.4166 178.234 42.7156 178.106 42.9928C178.062 43.1127 177.992 43.2212 177.9 43.3099C178.066 42.9275 178.171 42.5216 178.212 42.1068C178.217 41.6895 178.159 41.2737 178.041 40.8735Z" fill="#263238"/>
<path d="M180.724 41.6286C180.819 41.7275 180.894 41.8437 180.945 41.9709C181.084 42.2749 181.161 42.6034 181.172 42.9374C181.182 43.27 181.122 43.601 180.996 43.909C180.954 44.0407 180.885 44.1623 180.794 44.2664C180.96 43.8424 181.048 43.3924 181.056 42.9374C181.025 42.4848 180.912 42.0415 180.724 41.6286Z" fill="#263238"/>
<path d="M183.306 43.8888C183.35 43.9905 183.369 44.1008 183.362 44.211C183.381 44.7493 183.202 45.2759 182.858 45.691C182.722 45.847 182.617 45.9175 182.612 45.9075C182.829 45.6152 183.01 45.2974 183.15 44.9611C183.247 44.6117 183.3 44.2514 183.306 43.8888Z" fill="#263238"/>
<path d="M184.61 46.7028C184.61 46.9829 184.518 47.2551 184.348 47.4781C184.212 47.7213 183.997 47.9112 183.739 48.0167C183.92 47.826 184.088 47.6243 184.243 47.4126C184.499 47.0753 184.575 46.6978 184.61 46.7028Z" fill="#263238"/>
<path d="M184.786 49.8692C184.812 49.8692 184.786 50.0655 184.61 50.2165C184.434 50.3675 184.248 50.3826 184.248 50.3524C184.248 50.3222 184.394 50.2618 184.535 50.131C184.676 50.0001 184.751 49.8591 184.786 49.8692Z" fill="#263238"/>
<path d="M167.701 52.4818C167.327 52.4297 166.97 52.2916 166.658 52.0785C166.347 51.8655 166.088 51.5831 165.904 51.2535C166.388 51.8098 167.007 52.2327 167.701 52.4818Z" fill="#263238"/>
<path d="M167.978 54.0675C167.978 54.0927 167.817 54.2588 167.525 54.2739C167.233 54.289 167.022 54.148 167.052 54.1229C167.082 54.0977 167.263 54.1783 167.52 54.1581C167.777 54.138 167.963 54.0423 167.978 54.0675Z" fill="#263238"/>
<g opacity="0.3">
<path opacity="0.3" d="M180.447 41.6034C179.418 40.9284 178.264 40.4669 177.054 40.2464C175.843 40.0259 174.6 40.0508 173.4 40.3198C172.188 40.6292 171.051 41.1761 170.053 41.9288C169.055 42.6814 168.216 43.6249 167.585 44.7043C167.585 44.7043 170.55 40.954 174.799 40.8232C179.048 40.6923 180.447 41.6034 180.447 41.6034Z" fill="black"/>
</g>
<path d="M177.165 54.2437C177.145 54.0456 177.113 53.8489 177.069 53.6547C176.928 53.1277 176.615 52.6633 176.178 52.3358C175.882 52.1116 175.537 51.9599 175.172 51.8928C174.75 51.8161 174.316 51.8526 173.913 51.9985C173.47 52.1618 173.084 52.4525 172.806 52.8342C172.505 53.2436 172.343 53.7383 172.343 54.2462C172.343 54.7541 172.505 55.2488 172.806 55.6582C173.084 56.0399 173.47 56.3306 173.913 56.4939C174.29 56.6307 174.695 56.6716 175.091 56.6127C175.487 56.5538 175.863 56.397 176.183 56.1566C176.619 55.8283 176.932 55.3642 177.074 54.8377C177.119 54.642 177.151 54.4436 177.17 54.2437C177.184 54.4467 177.166 54.6507 177.115 54.8478C176.989 55.3939 176.677 55.8794 176.234 56.222C175.925 56.4566 175.567 56.6168 175.187 56.6902C174.749 56.7762 174.297 56.7414 173.878 56.5895C173.65 56.5105 173.436 56.3967 173.244 56.2522C173.043 56.1125 172.864 55.9427 172.715 55.7488C172.398 55.3214 172.227 54.8034 172.227 54.2714C172.227 53.7393 172.398 53.2214 172.715 52.7939C172.862 52.5911 173.041 52.4127 173.244 52.2653C173.436 52.1209 173.65 52.0071 173.878 51.9281C174.27 51.7847 174.691 51.7433 175.103 51.8075C175.515 51.8718 175.904 52.0397 176.234 52.2956C176.677 52.6381 176.989 53.1237 177.115 53.6698C177.161 53.8573 177.178 54.051 177.165 54.2437Z" fill="#455A64"/>
<path d="M184.474 53.9568C184.474 53.9568 184.474 53.7403 184.374 53.3678C184.233 52.8408 183.919 52.3764 183.483 52.0489C183.187 51.8237 182.842 51.6719 182.476 51.6059C182.054 51.5292 181.62 51.5657 181.217 51.7116C181.001 51.7906 180.798 51.9008 180.613 52.0388C180.314 52.2619 180.072 52.5516 179.904 52.8851C179.737 53.2185 179.65 53.5863 179.65 53.9593C179.65 54.3323 179.737 54.7001 179.904 55.0335C180.072 55.3669 180.314 55.6567 180.613 55.8797C180.798 56.0177 181.001 56.128 181.217 56.2069C181.594 56.3438 181.999 56.3846 182.395 56.3258C182.792 56.2669 183.167 56.1101 183.488 55.8697C183.923 55.5414 184.237 55.0773 184.379 54.5508C184.474 54.1783 184.459 53.9568 184.479 53.9568C184.49 54.1597 184.472 54.3632 184.424 54.5608C184.293 55.1063 183.981 55.5911 183.538 55.9351C183.23 56.1697 182.871 56.3299 182.491 56.4033C182.054 56.4893 181.601 56.4545 181.182 56.3026C180.955 56.2225 180.741 56.1088 180.548 55.9653C180.283 55.7721 180.06 55.5284 179.89 55.2484C179.72 54.9684 179.607 54.6575 179.558 54.3336C179.509 54.0098 179.524 53.6795 179.604 53.3616C179.683 53.0438 179.824 52.7448 180.019 52.4818C180.312 52.0839 180.717 51.7824 181.182 51.616C181.574 51.4726 181.995 51.4312 182.408 51.4954C182.82 51.5597 183.209 51.7276 183.538 51.9834C183.981 52.3275 184.293 52.8122 184.424 53.3577C184.47 53.5539 184.487 53.7557 184.474 53.9568Z" fill="#455A64"/>
<path d="M179.667 53.0255C179.667 53.0255 179.526 52.9298 179.284 52.8141C178.968 52.6546 178.615 52.5813 178.262 52.6017C177.908 52.622 177.567 52.7352 177.271 52.9298C177.039 53.0758 176.923 53.2017 176.913 53.1866C176.989 53.0551 177.096 52.9444 177.225 52.8644C177.518 52.6452 177.868 52.5157 178.232 52.4919C178.601 52.4721 178.969 52.5595 179.289 52.7436C179.436 52.8064 179.565 52.903 179.667 53.0255Z" fill="#455A64"/>
<path d="M172.443 53.7906C172.443 53.8208 171.472 54.1531 170.248 54.5357C169.025 54.9182 168.028 55.1951 168.023 55.1699C168.018 55.1448 168.995 54.8075 170.213 54.4249C171.431 54.0423 172.433 53.7604 172.443 53.7906Z" fill="#455A64"/>
<path d="M174.633 56.2724C174.488 56.2835 174.342 56.2647 174.205 56.217C173.87 56.1213 173.561 55.949 173.304 55.7136C173.045 55.4736 172.846 55.1773 172.72 54.8478C172.661 54.7147 172.632 54.5704 172.634 54.4249C172.695 54.5527 172.749 54.6838 172.796 54.8176C173.086 55.431 173.607 55.9049 174.245 56.1365C174.377 56.1749 174.506 56.2202 174.633 56.2724Z" fill="white"/>
<path d="M180.623 55.472C180.623 55.472 180.467 55.4418 180.296 55.2555C180.088 55.0098 179.951 54.7123 179.898 54.3947C179.833 54.0809 179.833 53.7571 179.898 53.4433C179.918 53.3123 179.971 53.1889 180.054 53.0859C180.054 53.0859 180.014 53.2268 179.974 53.4634C179.927 53.7653 179.927 54.0727 179.974 54.3746C180.026 54.6741 180.144 54.9581 180.321 55.2052C180.415 55.3016 180.516 55.3908 180.623 55.472Z" fill="white"/>
<path d="M177.084 58.9655C177.084 58.9404 177.155 58.8145 177.296 58.6786C177.437 58.5427 177.558 58.447 177.583 58.4722C177.608 58.4974 177.512 58.6232 177.371 58.7592C177.23 58.8951 177.11 58.9857 177.084 58.9655Z" fill="#263238"/>
<path d="M177.437 59.182C177.437 59.182 177.507 59.0058 177.643 58.8347C177.779 58.6635 177.91 58.5326 177.93 58.5528C177.95 58.5729 177.865 58.729 177.729 58.9001C177.593 59.0713 177.462 59.2021 177.437 59.182Z" fill="#263238"/>
<path d="M177.799 59.4488C177.769 59.4488 177.829 59.2726 177.925 59.0864C178.021 58.9001 178.126 58.7642 178.157 58.7743C178.187 58.7843 178.126 58.9555 178.026 59.1417C177.925 59.328 177.824 59.4639 177.799 59.4488Z" fill="#263238"/>
<path d="M178.348 59.4538C178.318 59.4538 178.303 59.3381 178.313 59.2021C178.323 59.0662 178.358 58.9555 178.388 58.9555C178.418 58.9555 178.434 59.0713 178.423 59.2072C178.413 59.3431 178.383 59.4538 178.348 59.4538Z" fill="#263238"/>
<path d="M178.877 59.5394C178.841 59.5394 178.816 59.4387 178.816 59.3179C178.816 59.1971 178.841 59.0914 178.877 59.0914C178.912 59.0914 178.932 59.1921 178.932 59.3179C178.932 59.4438 178.907 59.5394 178.877 59.5394Z" fill="#263238"/>
<path d="M179.37 59.5847C179.34 59.5847 179.284 59.4689 179.244 59.3079C179.204 59.1468 179.204 59.0058 179.244 59.0008C179.284 58.9957 179.33 59.1216 179.365 59.2827C179.4 59.4438 179.4 59.5797 179.37 59.5847Z" fill="#263238"/>
<path d="M168.023 60.1636C168.046 60.3616 167.994 60.561 167.877 60.7224C167.82 60.818 167.743 60.9 167.651 60.9626C167.558 61.0252 167.454 61.0669 167.344 61.0848C167.207 61.1028 167.069 61.0832 166.943 61.0282C166.817 60.9732 166.708 60.8849 166.629 60.7727C166.551 60.6631 166.495 60.5389 166.466 60.4075C166.436 60.2761 166.434 60.1401 166.458 60.0076C166.509 59.7913 166.64 59.6025 166.825 59.479C166.903 59.4181 166.994 59.3744 167.09 59.351C167.186 59.3276 167.287 59.3249 167.384 59.3431C167.204 59.3735 167.032 59.4421 166.881 59.5445C166.719 59.6688 166.608 59.8477 166.569 60.0478C166.534 60.2866 166.591 60.5297 166.73 60.7274C166.799 60.8232 166.892 60.8989 167 60.9466C167.108 60.9944 167.226 61.0126 167.344 60.9993C167.44 60.9858 167.532 60.9519 167.613 60.8998C167.695 60.8477 167.764 60.7786 167.817 60.6972C167.919 60.5341 167.989 60.353 168.023 60.1636Z" fill="#263238"/>
<path d="M161.243 134.163C161.852 134.163 187.001 160.339 187.001 162.157C187.001 163.974 190.737 182.413 192.539 185.252C194.341 188.091 195.423 187.427 195.423 187.427L203.785 183.531C203.785 183.531 199.153 154.837 198.136 151.61C197.12 148.384 177.94 123.007 177.94 123.007L159.818 126.456L161.243 134.163Z" fill="#263238"/>
<path d="M151.955 121.074L146.73 153.342C146.73 153.342 130.384 169.707 129.368 171.53C129.368 171.53 127.545 170.921 126.936 172.537C126.45 174.057 126.072 175.609 125.804 177.183L133.918 183.999C133.918 183.999 155.358 166.224 157.387 163.586C159.415 160.948 167.913 143.556 169.539 139.096C171.165 134.636 173.062 124.744 173.062 124.744L151.955 121.074Z" fill="#263238"/>
<path d="M191.215 156.312C191.144 156.664 191.022 157.003 190.852 157.319C190.493 158.105 190.061 158.857 189.564 159.564C189.072 160.279 188.505 160.939 187.872 161.532C187.623 161.795 187.328 162.01 187.001 162.167C187.231 161.896 187.479 161.64 187.741 161.401C188.324 160.77 188.861 160.097 189.347 159.388C190.505 157.777 191.139 156.267 191.215 156.312Z" fill="#455A64"/>
<path d="M149.659 155.577C149.017 155.533 148.41 155.27 147.938 154.832C147.417 154.464 147.035 153.932 146.851 153.322C147.241 153.788 147.66 154.23 148.104 154.646C148.603 154.988 149.122 155.299 149.659 155.577Z" fill="#455A64"/>
<path d="M132.791 175.743C131.971 175.326 131.263 174.718 130.726 173.971C130.19 173.224 129.839 172.359 129.705 171.449C130.045 172.274 130.46 173.066 130.943 173.815C131.496 174.516 132.114 175.162 132.791 175.743Z" fill="#455A64"/>
<path d="M158.7 125.847C158.684 125.972 158.648 126.094 158.595 126.209C158.476 126.531 158.335 126.844 158.172 127.145C157.088 129.164 155.37 130.77 153.284 131.716C152.973 131.86 152.651 131.981 152.322 132.079C152.206 132.127 152.081 132.155 151.955 132.159C151.955 132.114 152.458 131.938 153.203 131.55C154.193 131.042 155.107 130.4 155.922 129.642C156.732 128.878 157.435 128.008 158.011 127.055C158.449 126.32 158.64 125.827 158.7 125.847Z" fill="#455A64"/>
<path d="M171.517 134.092C171.443 134.374 171.349 134.65 171.235 134.918C171.013 135.482 170.732 136.227 170.374 137.133C169.629 138.99 168.582 141.558 167.329 144.351C166.075 147.145 164.852 149.637 163.956 151.429L162.879 153.543C162.756 153.808 162.613 154.062 162.451 154.304C162.543 154.027 162.656 153.758 162.788 153.498L163.795 151.349C164.651 149.531 165.844 147.035 167.092 144.246C168.34 141.457 169.418 138.905 170.203 137.057C170.591 136.171 170.908 135.436 171.144 134.878C171.248 134.607 171.373 134.344 171.517 134.092Z" fill="#455A64"/>
<path d="M167.107 68.671C167.107 68.671 161.57 70.901 160.286 74.7923C159.632 76.7606 155.816 91.1526 155.816 91.1526C155.816 91.1526 150.782 118.789 151.477 121.422L180.286 125.847C181 124.982 181.359 123.88 181.293 122.761L180.825 114.48L181.162 78.9856C181.166 78.721 181.148 78.4566 181.107 78.1952L180.1 71.6511L180.422 68.8271L167.51 65.414L167.107 68.671Z" fill="#FF725E"/>
<path d="M166.332 66.446C166.367 66.2256 166.447 66.0149 166.569 65.8276C166.69 65.6403 166.849 65.4806 167.036 65.3586C167.223 65.2367 167.434 65.1554 167.654 65.1198C167.874 65.0843 168.1 65.0953 168.315 65.1523L180.12 68.2683C180.475 68.3625 180.787 68.5761 181.003 68.873C181.22 69.17 181.327 69.5324 181.308 69.8993L181.278 70.4027C181.263 70.6441 181.194 70.8791 181.076 71.0899C180.957 71.3006 180.792 71.4817 180.593 71.6194C180.395 71.7572 180.167 71.8479 179.928 71.8848C179.689 71.9216 179.445 71.9037 179.214 71.8323L167.439 68.2179C167.072 68.106 166.757 67.865 166.554 67.5393C166.35 67.2136 166.272 66.8253 166.332 66.446Z" fill="#FF725E"/>
<path d="M180.286 71.6914C180.078 71.6733 179.872 71.6346 179.672 71.5756L178.036 71.1628C176.652 70.8004 174.749 70.2869 172.655 69.703L169.846 68.9076C169.493 68.8525 169.145 68.7718 168.804 68.666C168.641 68.6145 168.484 68.5471 168.335 68.4646C168.255 68.4235 168.182 68.369 168.119 68.3035C168.065 68.2361 168.018 68.1636 167.978 68.0871C167.857 67.8102 167.819 67.5043 167.867 67.2061C167.901 66.9585 167.967 66.7165 168.064 66.4863C168.195 66.1629 168.378 65.8635 168.607 65.6003C168.773 65.4241 168.884 65.3536 168.889 65.3637C168.596 65.7154 168.363 66.1135 168.2 66.5416C168.005 67.0046 167.991 67.5234 168.159 67.9964C168.27 68.2481 168.562 68.3438 168.874 68.4495C169.204 68.5474 169.54 68.6197 169.881 68.666L172.695 69.4412C174.789 70.0251 176.687 70.5688 178.056 70.9514L179.672 71.4548C179.884 71.5138 180.089 71.593 180.286 71.6914Z" fill="#263238"/>
<path d="M180.402 73.7049C180.43 73.7897 180.447 73.8777 180.452 73.9667C180.477 74.1681 180.508 74.4147 180.543 74.7168C180.613 75.3712 180.704 76.3176 180.789 77.4905C180.976 79.8363 181.162 83.0782 181.268 86.6623C181.373 90.2465 181.363 93.4985 181.268 95.8493C181.232 97.0222 181.182 97.9736 181.137 98.6281C181.112 98.9351 181.086 99.1818 181.071 99.3832C181.072 99.472 181.058 99.5603 181.031 99.6449C181.02 99.558 181.02 99.4701 181.031 99.3832C181.031 99.1768 181.031 98.9301 181.031 98.623C181.031 97.9686 181.071 97.0172 181.081 95.8443C181.117 93.4985 181.081 90.2516 180.991 86.6674C180.9 83.0832 180.729 79.8464 180.593 77.5056C180.523 76.3578 180.467 75.4215 180.422 74.7268C180.422 74.4248 180.397 74.1731 180.387 73.9717C180.382 73.8825 180.387 73.793 180.402 73.7049Z" fill="#263238"/>
<path d="M172.025 66.3101C171.831 66.7835 171.674 67.2716 171.557 67.7699C171.521 68.2727 171.521 68.7774 171.557 69.2801C171.409 69.0499 171.309 68.7918 171.264 68.5218C171.219 68.2517 171.23 67.9754 171.295 67.7095C171.318 67.4395 171.395 67.1767 171.52 66.9365C171.645 66.6962 171.817 66.4833 172.025 66.3101Z" fill="#263238"/>
<path d="M175.378 67.0803C175.403 67.0803 175.524 67.2212 175.625 67.5132C175.747 67.9024 175.769 68.316 175.69 68.7162C175.611 69.1164 175.433 69.4903 175.172 69.8036C174.97 70.0352 174.799 70.1308 174.779 70.1057C175.071 69.6632 175.292 69.1773 175.433 68.666C175.495 68.1376 175.476 67.603 175.378 67.0803Z" fill="#263238"/>
<path d="M178.645 67.9864C178.67 67.9864 178.806 68.1072 178.927 68.3891C179.084 68.764 179.133 69.1755 179.068 69.5768C179.003 69.9781 178.827 70.3532 178.559 70.6594C178.353 70.891 178.182 70.9765 178.162 70.9514C178.505 70.5485 178.733 70.0602 178.822 69.5383C178.911 69.0163 178.856 68.48 178.665 67.9864H178.645Z" fill="#263238"/>
<path d="M176.943 75.9753C175.856 72.7636 173.218 69.9597 169.896 69.3002C166.574 68.6408 163.452 69.3456 161.082 72.1092L158.061 78.5275C159.4 77.7825 161.545 73.4281 164.041 71.9481C166.538 70.4681 169.317 70.4379 171.371 72.4968C172.881 74.007 174.014 76.2018 173.978 78.3563C173.908 82.5748 172.151 86.5315 170.873 90.5586C169.231 95.7235 167.933 101.231 164.142 105.112C161.097 108.228 157.019 110.085 153.067 111.872C152.131 112.643 149.967 115.441 151.084 115.9C152.202 116.358 156.264 114.893 157.417 114.535C160.291 113.659 163.276 112.718 165.471 110.654C167.485 108.736 168.602 106.063 169.649 103.476C171.663 98.4821 172.982 93.277 175 88.2783C176.712 84.0246 178.413 80.3246 176.943 75.9753Z" fill="#455A64"/>
<path d="M172.348 129.723L170.052 125.847L162.37 128.525C162.37 128.525 162.874 135.351 163.88 135.547C164.183 135.599 164.493 135.585 164.79 135.505C165.086 135.425 165.362 135.281 165.597 135.084C165.597 135.084 166.171 136.866 167.319 136.941L167.958 136.972C168.164 137.133 169.332 137.978 170.299 137.666C170.299 137.666 171.185 139.589 171.9 139.388C172.614 139.187 173.077 136.871 173.077 136.871L172.348 129.723Z" fill="#FFBE9D"/>
<path d="M165.411 71.0219C164.1 71.4805 162.93 72.2704 162.014 73.3147C161.099 74.359 160.469 75.6224 160.185 76.9821C158.675 84.2158 155.071 103.159 155.217 105.827C155.403 109.22 161.872 129.325 161.872 129.325L170.933 126.597L166.82 103.944C166.82 103.944 173.239 82.751 173.742 79.5292C174.296 76.0105 171.225 69.0083 165.411 71.0219Z" fill="#FF725E"/>
<path d="M165.411 71.037C165.64 70.9458 165.876 70.8701 166.115 70.8104C166.814 70.6197 167.545 70.5819 168.26 70.6997C169.412 70.9138 170.463 71.4969 171.255 72.3609C172.93 74.2288 173.866 76.6432 173.888 79.1517C173.878 79.6485 173.815 80.1429 173.702 80.6266C173.601 81.13 173.475 81.6334 173.354 82.1368C172.851 84.1504 172.227 86.3301 171.562 88.6357C170.228 93.2468 168.678 98.4066 166.956 103.979V103.924L171.079 126.577V126.692L170.968 126.728L166.72 128.001L161.887 129.456L161.761 129.491L161.726 129.37C160.382 125.248 159.113 121.22 157.945 117.324C157.366 115.376 156.803 113.463 156.294 111.575C156.043 110.634 155.791 109.703 155.574 108.771C155.459 108.308 155.363 107.84 155.272 107.377C155.188 106.913 155.136 106.444 155.116 105.973C155.141 105.049 155.224 104.128 155.363 103.214C155.489 102.318 155.615 101.437 155.756 100.566C156.027 98.8294 156.324 97.1531 156.611 95.5322C157.19 92.2903 157.764 89.285 158.293 86.5516L159.748 79.1819C159.92 78.1632 160.148 77.1549 160.432 76.1615C160.713 75.3419 161.113 74.5684 161.62 73.866C162.322 72.894 163.232 72.0909 164.283 71.5152C164.644 71.3087 165.025 71.14 165.421 71.0118C165.421 71.0118 165.325 71.0621 165.134 71.1427C164.85 71.2604 164.574 71.3966 164.308 71.5504C163.277 72.1371 162.387 72.9431 161.701 73.9113C161.207 74.6098 160.817 75.3762 160.543 76.1867C160.272 77.1715 160.052 78.1696 159.883 79.1769C159.466 81.3465 158.992 83.8182 158.464 86.5516C157.935 89.285 157.387 92.3004 156.818 95.5372C156.536 97.1581 156.249 98.8344 155.977 100.571C155.836 101.437 155.71 102.318 155.589 103.214C155.458 104.115 155.379 105.022 155.353 105.932C155.385 106.393 155.449 106.85 155.544 107.302C155.63 107.765 155.73 108.223 155.846 108.686C156.058 109.612 156.314 110.543 156.566 111.48C157.069 113.362 157.643 115.275 158.222 117.218C159.395 121.11 160.664 125.137 162.008 129.26L161.847 129.174L166.679 127.724L170.928 126.446L170.837 126.597C169.377 118.542 167.993 110.876 166.735 103.944V103.914V103.884C168.461 98.3109 170.027 93.1612 171.376 88.5551C172.045 86.2546 172.67 84.09 173.188 82.0714C173.472 81.1164 173.656 80.1345 173.737 79.1416C173.719 76.6687 172.811 74.2849 171.18 72.4263C170.407 71.5723 169.38 70.9898 168.25 70.7651C167.544 70.6403 166.82 70.6661 166.126 70.8406C165.947 70.8776 165.77 70.9247 165.597 70.9816C165.536 71.0034 165.474 71.0219 165.411 71.037Z" fill="#263238"/>
<path d="M166.931 103.823C165.49 102.787 163.772 102.206 161.998 102.157C162.894 102.009 163.812 102.083 164.672 102.374C165.533 102.664 166.308 103.162 166.931 103.823Z" fill="#263238"/>
<g opacity="0.3">
<path opacity="0.3" d="M159.682 122.982C155.459 116.72 153.239 107.966 155.655 101.739C154.995 105.469 155.625 108.877 156.737 112.497C157.85 116.116 159.179 119.725 159.395 123.506" fill="black"/>
</g>
<path d="M146.684 212.174L134.18 198.98L123.931 199.559L116.672 202.428L112.066 212.174" fill="#F5F5F5"/>
<path d="M123.931 199.559L134.548 212.174H146.684L134.18 198.98L123.931 199.559Z" fill="#E0E0E0"/>
<path d="M112.066 212.189C112.083 212.125 112.106 212.062 112.136 212.003L112.363 211.474C112.584 210.996 112.866 210.332 113.269 209.491L116.571 202.398V202.358H116.617L123.865 199.468H123.906L128.829 199.186L134.16 198.889H134.22L134.261 198.935L143.171 208.398L145.758 211.187C146.045 211.499 146.262 211.751 146.443 211.942C146.529 212.024 146.605 212.115 146.669 212.214C146.579 212.139 146.493 212.058 146.413 211.973L145.693 211.248L143.05 208.509C140.795 206.153 137.664 202.871 134.074 199.111L134.175 199.151L128.844 199.453L123.921 199.725H123.961L116.697 202.574L116.752 202.519C115.358 205.433 114.195 207.86 113.37 209.566L112.408 211.525L112.151 212.028C112.128 212.084 112.1 212.138 112.066 212.189Z" fill="#263238"/>
<path d="M55.5849 212.174L60.3571 203.888L69.0608 201.462L77.2007 208.383V212.174" fill="#EBEBEB"/>
<path d="M60.3571 203.888L77.2007 208.383L69.0608 201.462L60.3571 203.888Z" fill="#E0E0E0"/>
<path d="M77.2007 212.189C77.1817 212.103 77.1733 212.015 77.1756 211.927C77.1756 211.736 77.1756 211.489 77.1756 211.187C77.1756 210.503 77.1756 209.566 77.1403 208.398L77.1655 208.459L68.9954 201.572L69.1162 201.598L67.1127 202.121L60.3873 203.984L60.4578 203.928L56.9542 209.904C56.5313 210.608 56.194 211.172 55.9474 211.585L55.6755 212.028C55.6441 212.079 55.6087 212.128 55.5698 212.174C55.5863 212.116 55.61 212.06 55.6403 212.008L55.8819 211.55L56.8333 209.833L60.2363 203.833V203.787H60.2866L67.0221 201.885L69.0054 201.336H69.0709L69.1212 201.381L77.236 208.338L77.2662 208.363V208.404C77.2662 209.571 77.236 210.508 77.2259 211.192C77.2259 211.494 77.2259 211.741 77.2259 211.932C77.2278 212.019 77.2193 212.105 77.2007 212.189Z" fill="#263238"/>
<path d="M228.39 197.278L216.309 190.397L195.096 198.124L177.96 212.174L238.579 211.862L228.39 197.278Z" fill="#F5F5F5"/>
<path d="M177.96 212.174L199.697 199.559L228.39 197.278L215.826 189.843L195.096 198.124L177.96 212.174Z" fill="#E0E0E0"/>
<path d="M209.191 212.013L220.049 204.573L229.951 203.868L221.665 205.71L217.376 211.973L209.191 212.013Z" fill="#E0E0E0"/>
<path d="M177.96 212.189C177.96 212.189 177.96 212.159 178.036 212.114L178.267 211.907L179.184 211.132L182.677 208.227L195.02 198.049L210.122 191.907L215.7 189.652L215.76 189.627L215.816 189.662L228.401 197.213L235.76 207.825L237.799 210.795L238.302 211.585C238.364 211.673 238.421 211.763 238.473 211.857C238.473 211.857 238.403 211.776 238.277 211.6L237.718 210.835C237.215 210.145 236.525 209.154 235.629 207.9L228.194 197.329L228.229 197.359L215.644 189.833H215.755L210.183 192.093L195.051 198.21H195.081L182.677 208.318L179.153 211.172L178.272 211.922L178.026 212.114L177.96 212.189Z" fill="#263238"/>
<path d="M230.288 203.843C230.03 203.902 229.767 203.938 229.503 203.948L227.343 204.14L220.054 204.704H220.12L218.927 205.519C216.259 207.346 213.837 208.992 212.075 210.17L209.986 211.535L209.407 211.902C209.277 211.983 209.201 212.023 209.196 212.013C209.251 211.954 209.311 211.902 209.377 211.857L209.926 211.449L211.975 209.999C213.712 208.781 216.118 207.11 218.786 205.282L219.979 204.467H220.009H220.054L227.343 203.994L229.513 203.878C229.77 203.848 230.029 203.836 230.288 203.843Z" fill="#263238"/>
<path d="M285.511 204.94L278.252 202.066L266.15 204.266L260.286 212.149L289.004 212.174L285.511 204.94Z" fill="#F5F5F5"/>
<path d="M266.15 204.266C266.503 204.2 285.511 204.94 285.511 204.94L278.252 202.071L266.15 204.266Z" fill="#E0E0E0"/>
<path d="M260.291 212.149C260.313 212.093 260.344 212.04 260.381 211.993L260.683 211.56L261.851 209.934L266.06 204.195L266.085 204.16H266.13L275.136 202.509L278.232 201.945H278.267H278.302L285.551 204.834H285.591V204.87L288.108 210.155L288.783 211.625L288.954 212.013C288.976 212.058 288.993 212.105 289.004 212.154C288.971 212.116 288.944 212.074 288.924 212.028L288.727 211.65C288.546 211.298 288.3 210.81 287.998 210.206C287.363 208.927 286.487 207.13 285.415 204.965L285.47 205.016L278.207 202.166H278.277L275.181 202.73L266.175 204.346L266.246 204.306C264.484 206.637 263.014 208.59 261.957 209.984L260.739 211.57L260.411 211.983C260.334 212.097 260.294 212.152 260.291 212.149Z" fill="#263238"/>
<path d="M339.409 212.189C339.409 212.26 263.9 212.32 170.732 212.32C77.5631 212.32 2.03369 212.244 2.03369 212.189C2.03369 212.134 77.543 212.058 170.732 212.058C263.92 212.058 339.409 212.098 339.409 212.189Z" fill="#263238"/>
<path d="M132.262 216.171C132.262 216.246 121.444 216.302 108.099 216.302C94.7541 216.302 83.9362 216.246 83.9362 216.171C83.9362 216.095 94.7491 216.04 108.099 216.04C121.449 216.04 132.262 216.1 132.262 216.171Z" fill="#263238"/>
<path d="M114.341 219.322C114.341 219.393 110.923 219.453 106.715 219.453C102.506 219.453 99.0833 219.393 99.0833 219.322C99.0833 219.252 102.501 219.191 106.715 219.191C110.928 219.191 114.341 219.237 114.341 219.322Z" fill="#263238"/>
</svg>
