<svg width="231" height="221" viewBox="0 0 231 221" fill="none" xmlns="http://www.w3.org/2000/svg">
<path d="M214.027 205.283L212.122 187.393" stroke="#263238" stroke-width="0.985332" stroke-linecap="round" stroke-linejoin="round"/>
<path d="M212.112 187.896C212.112 187.896 208.689 185.232 208.689 179.14C208.689 173.049 213.254 168.105 213.254 168.105C213.254 168.105 218.203 174.196 217.061 180.283C215.918 186.369 212.112 187.896 212.112 187.896Z" fill="#FF725E" stroke="#263238" stroke-width="0.985332" stroke-linecap="round" stroke-linejoin="round"/>
<path d="M212.122 187.393L212.993 173.95" stroke="#263238" stroke-width="0.985332" stroke-linecap="round" stroke-linejoin="round"/>
<path d="M215.785 203.964C217.446 199.682 219.475 195.551 221.847 191.618" stroke="#263238" stroke-width="0.985332" stroke-linecap="round" stroke-linejoin="round"/>
<path d="M220.054 194.854C220.054 194.854 218.154 190.949 220.842 185.498C223.531 180.046 229.814 177.619 229.814 177.619C229.814 177.619 231.562 185.266 227.845 190.225C224.127 195.184 220.054 194.854 220.054 194.854Z" fill="#FF725E" stroke="#263238" stroke-width="0.985332" stroke-linecap="round" stroke-linejoin="round"/>
<path d="M220.054 194.854L226.983 183.464" stroke="#263238" stroke-width="0.985332" stroke-linecap="round" stroke-linejoin="round"/>
<path d="M210.94 205.559C209.907 202.119 208.504 198.802 206.754 195.666L204.09 191.077" stroke="#263238" stroke-width="0.985332" stroke-linecap="round" stroke-linejoin="round"/>
<path d="M206.232 194.627C204.13 195.273 201.899 195.376 199.746 194.926C197.593 194.477 195.59 193.49 193.921 192.057C188.012 187.093 188.342 176.964 188.342 176.964C188.342 176.964 199.796 175.329 204.42 181.819C205.76 183.636 206.628 185.758 206.944 187.994C207.26 190.23 207.016 192.509 206.232 194.627Z" fill="#FF725E" stroke="#263238" stroke-width="0.985332" stroke-linecap="round" stroke-linejoin="round"/>
<path d="M206.232 194.627L192.656 180.48" stroke="#263238" stroke-width="0.985332" stroke-linecap="round" stroke-linejoin="round"/>
<path d="M220.291 201.452H205.799V215.664H220.291V201.452Z" fill="#263238" stroke="#263238" stroke-width="0.985332" stroke-linecap="round" stroke-linejoin="round"/>
<path d="M196.078 1H99.1387V82.669H196.078V1Z" fill="white" stroke="#263238" stroke-width="0.985332" stroke-linecap="round" stroke-linejoin="round"/>
<path d="M119.259 46.9139H118.471L118.338 46.0177H117.383L117.245 46.9139H116.531L117.324 41.9551H118.466L119.259 46.9139ZM117.482 45.343H118.23L117.856 42.8317L117.482 45.343Z" fill="#263238"/>
<path d="M120.363 41.9551V45.7813C120.363 46.1358 120.52 46.2737 120.766 46.2737C121.013 46.2737 121.175 46.1457 121.175 45.7813V41.9551H121.909V45.7321C121.909 46.5249 121.515 46.9779 120.747 46.9779C119.978 46.9779 119.584 46.5249 119.584 45.7321V41.9551H120.363Z" fill="#263238"/>
<path d="M122.214 41.9551H124.622V42.6642H123.809V46.9139H123.046V42.6642H122.234L122.214 41.9551Z" fill="#263238"/>
<path d="M125.745 46.9139H124.962V41.9551H125.745V44.0824H126.626V41.9551H127.424V46.9139H126.626V44.7915H125.745V46.9139Z" fill="#263238"/>
<path d="M128.768 44.043H129.837V44.7521H128.768V46.2294H130.113V46.9385H127.97V41.9551H130.093V42.6642H128.748L128.768 44.043Z" fill="#263238"/>
<path d="M131.289 43.3487V46.9385H130.59V41.9551H131.575L132.378 44.9097V41.9551H133.072V46.9139H132.269L131.289 43.3487Z" fill="#263238"/>
<path d="M133.387 41.9551H135.8V42.6642H134.983V46.9139H134.205V42.6642H133.387V41.9551Z" fill="#263238"/>
<path d="M136.145 41.9551H136.923V46.9139H136.145V41.9551Z" fill="#263238"/>
<path d="M139.749 45.0673V45.7271C139.749 46.5199 139.355 46.973 138.587 46.973C137.819 46.973 137.425 46.5199 137.425 45.7271V43.1468C137.425 42.3491 137.824 41.8961 138.587 41.8961C139.35 41.8961 139.749 42.3491 139.749 43.1468V43.6392H139.016V43.1074C139.016 42.7529 138.858 42.615 138.612 42.615C138.366 42.615 138.208 42.7529 138.208 43.1074V45.7862C138.208 46.1408 138.361 46.2787 138.612 46.2787C138.863 46.2787 139.016 46.1555 139.016 45.7862V45.0771L139.749 45.0673Z" fill="#263238"/>
<path d="M142.743 46.9139H141.955L141.823 46.0177H140.872L140.734 46.9139H140.02L140.813 41.9551H141.955L142.743 46.9139ZM140.966 45.343H141.714L141.34 42.8317L140.966 45.343Z" fill="#263238"/>
<path d="M142.61 41.9551H145.023V42.6642H144.221V46.9139H143.443V42.6642H142.625L142.61 41.9551Z" fill="#263238"/>
<path d="M146.141 44.043H147.21V44.7521H146.141V46.2294H147.49V46.9385H145.363V41.9551H147.49V42.6642H146.141V44.043Z" fill="#263238"/>
<path d="M149.8 45.2692L148.815 41.9551H149.637L150.233 44.2154L150.829 41.9551H151.573L150.588 45.2692V46.9139H149.81L149.8 45.2692Z" fill="#263238"/>
<path d="M151.706 43.1468C151.706 42.8334 151.83 42.5328 152.052 42.3111C152.273 42.0895 152.574 41.965 152.887 41.965C153.201 41.965 153.501 42.0895 153.723 42.3111C153.945 42.5328 154.069 42.8334 154.069 43.1468V45.7271C154.069 46.0406 153.945 46.3412 153.723 46.5628C153.501 46.7844 153.201 46.909 152.887 46.909C152.574 46.909 152.273 46.7844 152.052 46.5628C151.83 46.3412 151.706 46.0406 151.706 45.7271V43.1468ZM152.484 45.7764C152.484 46.1309 152.641 46.2688 152.887 46.2688C153.134 46.2688 153.291 46.1358 153.291 45.7764V43.0976C153.291 42.743 153.134 42.6051 152.887 42.6051C152.641 42.6051 152.484 42.743 152.484 43.0976V45.7764Z" fill="#263238"/>
<path d="M155.315 41.9551V45.7813C155.315 46.1358 155.472 46.2737 155.719 46.2737C155.965 46.2737 156.122 46.1457 156.122 45.7813V41.9551H156.861V45.7321C156.861 46.5249 156.467 46.9779 155.699 46.9779C154.931 46.9779 154.537 46.5249 154.537 45.7321V41.9551H155.315Z" fill="#263238"/>
<path d="M159.023 46.9139C158.958 46.7174 158.934 46.5094 158.954 46.3033V45.5252C158.954 45.0673 158.797 44.8949 158.462 44.8949H158.191V46.9139H157.413V41.9551H158.59C159.397 41.9551 159.742 42.3294 159.742 43.0976V43.4866C159.767 43.6811 159.734 43.8788 159.646 44.0543C159.559 44.2297 159.42 44.375 159.25 44.4714C159.639 44.6339 159.767 45.0082 159.767 45.5252V46.3033C159.751 46.5072 159.78 46.712 159.85 46.904L159.023 46.9139ZM158.171 42.6642V44.1858H158.501C158.792 44.1858 158.969 44.0578 158.969 43.6639V43.1714C158.969 42.8169 158.851 42.679 158.575 42.679L158.171 42.6642Z" fill="#263238"/>
<path d="M163.863 46.9139H163.075L162.942 46.0177H161.982L161.849 46.9139H161.135L161.948 41.9551H163.09L163.863 46.9139ZM162.086 45.343H162.834L162.44 42.8563L162.086 45.343Z" fill="#263238"/>
<path d="M166.478 45.0673V45.7271C166.478 46.5199 166.079 46.973 165.316 46.973C164.553 46.973 164.154 46.5199 164.154 45.7271V43.1468C164.154 42.3491 164.548 41.8961 165.316 41.8961C166.084 41.8961 166.478 42.3491 166.478 43.1468V43.6392H165.74V43.1074C165.74 42.7529 165.582 42.615 165.336 42.615C165.09 42.615 164.932 42.7529 164.932 43.1074V45.7862C164.932 46.1408 165.09 46.2787 165.336 46.2787C165.582 46.2787 165.74 46.1555 165.74 45.7862V45.0771L166.478 45.0673Z" fill="#263238"/>
<path d="M169.211 45.0673V45.7271C169.211 46.5199 168.817 46.973 168.049 46.973C167.281 46.973 166.887 46.5199 166.887 45.7271V43.1468C166.887 42.3491 167.286 41.8961 168.049 41.8961C168.812 41.8961 169.211 42.3491 169.211 43.1468V43.6392H168.473V43.1074C168.473 42.7529 168.32 42.615 168.069 42.615C167.818 42.615 167.665 42.7529 167.665 43.1074V45.7862C167.665 46.1408 167.823 46.2787 168.069 46.2787C168.315 46.2787 168.473 46.1555 168.473 45.7862V45.0771L169.211 45.0673Z" fill="#263238"/>
<path d="M169.62 43.1468C169.609 42.9849 169.632 42.8225 169.687 42.6697C169.742 42.517 169.827 42.3771 169.938 42.2587C170.049 42.1403 170.184 42.046 170.332 41.9814C170.481 41.9169 170.642 41.8837 170.804 41.8837C170.966 41.8837 171.127 41.9169 171.276 41.9814C171.425 42.046 171.559 42.1403 171.67 42.2587C171.781 42.3771 171.866 42.517 171.921 42.6697C171.976 42.8225 171.999 42.9849 171.988 43.1468V45.7271C171.999 45.8891 171.976 46.0514 171.921 46.2042C171.866 46.3569 171.781 46.4968 171.67 46.6152C171.559 46.7336 171.425 46.828 171.276 46.8925C171.127 46.957 170.966 46.9903 170.804 46.9903C170.642 46.9903 170.481 46.957 170.332 46.8925C170.184 46.828 170.049 46.7336 169.938 46.6152C169.827 46.4968 169.742 46.3569 169.687 46.2042C169.632 46.0514 169.609 45.8891 169.62 45.7271V43.1468ZM170.403 45.7764C170.403 46.1309 170.556 46.2688 170.807 46.2688C171.058 46.2688 171.21 46.1358 171.21 45.7764V43.0976C171.21 42.743 171.053 42.6051 170.807 42.6051C170.56 42.6051 170.403 42.743 170.403 43.0976V45.7764Z" fill="#263238"/>
<path d="M173.234 41.9551V45.7813C173.234 46.1358 173.392 46.2737 173.638 46.2737C173.884 46.2737 174.042 46.1457 174.042 45.7813V41.9551H174.781V45.7321C174.781 46.5249 174.387 46.9779 173.618 46.9779C172.85 46.9779 172.456 46.5249 172.456 45.7321V41.9551H173.234Z" fill="#263238"/>
<path d="M176.007 43.3487V46.9385H175.307V41.9551H176.292L177.095 44.9097V41.9551H177.789V46.9139H176.987L176.007 43.3487Z" fill="#263238"/>
<path d="M178.109 41.9551H180.522V42.6642H179.705V46.9139H178.927V42.6642H178.109V41.9551Z" fill="#263238"/>
<path d="M159.04 26.7474C160.017 20.6847 155.894 14.9783 149.831 14.0017C143.768 13.0252 138.062 17.1484 137.085 23.2111C136.109 29.2738 140.232 34.9803 146.295 35.9568C152.357 36.9333 158.064 32.8101 159.04 26.7474Z" fill="#FF725E"/>
<path d="M152.912 22.4157C152.912 23.375 152.627 24.3127 152.094 25.1104C151.561 25.908 150.804 26.5297 149.918 26.8968C149.031 27.264 148.056 27.36 147.115 27.1729C146.174 26.9857 145.31 26.5237 144.632 25.8454C143.953 25.1671 143.491 24.3028 143.304 23.3619C143.117 22.421 143.213 21.4458 143.58 20.5595C143.947 19.6732 144.569 18.9157 145.367 18.3827C146.164 17.8497 147.102 17.5652 148.061 17.5652C149.348 17.5652 150.581 18.0763 151.491 18.9859C152.401 19.8955 152.912 21.1292 152.912 22.4157Z" fill="#263238"/>
<path d="M140.079 32.7123C141.115 33.7824 142.356 34.6333 143.727 35.2144C145.098 35.7956 146.572 36.095 148.062 36.095C149.551 36.095 151.025 35.7956 152.396 35.2144C153.768 34.6333 155.008 33.7824 156.044 32.7123V32.3922C156.044 31.8305 155.934 31.2741 155.72 30.755C155.505 30.2358 155.191 29.7641 154.794 29.3667C154.397 28.9692 153.925 28.6539 153.406 28.4388C152.887 28.2237 152.331 28.113 151.77 28.113H144.359C143.224 28.113 142.135 28.5638 141.333 29.3664C140.53 30.1689 140.079 31.2573 140.079 32.3922V32.7123Z" fill="#263238"/>
<path d="M181.384 55.8514H114.306V64.006H181.384V55.8514Z" stroke="#263238" stroke-width="0.985332" stroke-miterlimit="10"/>
<path d="M181.384 68.0784H114.306V76.233H181.384V68.0784Z" fill="#FF725E" stroke="#263238" stroke-width="0.985332" stroke-miterlimit="10"/>
<path d="M136.804 60.1602V60.6526H135.593V62.4155H137.07V62.9079H135.032V57.9639H137.07V58.4564H135.593V60.1503L136.804 60.1602Z" fill="#BDBDBD"/>
<path d="M138.08 62.9276H137.588V57.9639H138.312L139.459 61.5488V57.9639H139.951V62.9276H139.375L138.105 58.9143L138.08 62.9276Z" fill="#BDBDBD"/>
<path d="M141.212 62.9276V58.4662H140.281V57.9738H142.664V58.4662H141.758V62.9276H141.212Z" fill="#BDBDBD"/>
<path d="M144.826 60.1602V60.6526H143.615V62.4155H145.092V62.9079H143.053V57.9639H145.092V58.4564H143.615V60.1503L144.826 60.1602Z" fill="#BDBDBD"/>
<path d="M146.717 57.9639C147.5 57.9639 147.825 58.3628 147.825 59.0965V59.5003C147.859 59.7161 147.816 59.937 147.703 60.1243C147.591 60.3115 147.416 60.4532 147.21 60.5246C147.663 60.6575 147.83 61.017 147.83 61.5586V62.3318C147.816 62.5353 147.849 62.7395 147.928 62.9276H147.372C147.293 62.736 147.261 62.5284 147.278 62.3219V61.5685C147.278 61.0071 147.017 60.8299 146.555 60.8299H146.19V62.9522H145.639V57.9639H146.717ZM146.579 60.303C147.017 60.303 147.278 60.1602 147.278 59.6234V59.131C147.278 58.6878 147.116 58.4514 146.702 58.4514H146.19V60.2882L146.579 60.303Z" fill="#BDBDBD"/>
<path d="M151.696 59.1605V59.5988H151.169V59.1064C151.169 58.6583 150.991 58.3874 150.588 58.3874C150.184 58.3874 150.007 58.6583 150.007 59.1064V61.7261C150.007 62.1742 150.189 62.445 150.588 62.445C150.986 62.445 151.169 62.1742 151.169 61.7261V61.081H151.696V61.6965C151.696 62.4499 151.336 62.9473 150.573 62.9473C149.81 62.9473 149.46 62.4549 149.46 61.6965V59.131C149.46 58.3825 149.814 57.8851 150.573 57.8851C151.331 57.8851 151.696 58.412 151.696 59.1605Z" fill="#BDBDBD"/>
<path d="M152.154 59.1605C152.154 58.4022 152.528 57.9147 153.286 57.9147C154.044 57.9147 154.429 58.4071 154.429 59.1605V61.7261C154.429 62.4795 154.054 62.9769 153.286 62.9769C152.518 62.9769 152.154 62.4844 152.154 61.7261V59.1605ZM152.7 61.7556C152.7 62.2087 152.892 62.4746 153.286 62.4746C153.68 62.4746 153.877 62.2087 153.877 61.7556V59.1359C153.877 58.6878 153.69 58.417 153.286 58.417C152.882 58.417 152.7 58.6878 152.7 59.1359V61.7556Z" fill="#BDBDBD"/>
<path d="M156.113 57.9639C156.886 57.9639 157.24 58.4317 157.24 59.1999V61.7015C157.24 62.4598 156.886 62.9276 156.113 62.9276H154.95V57.9639H156.113ZM156.113 62.3958C156.507 62.3958 156.699 62.1496 156.699 61.6965V59.1458C156.699 58.6927 156.507 58.4416 156.103 58.4416H155.507V62.381L156.113 62.3958Z" fill="#BDBDBD"/>
<path d="M159.52 60.1602V60.6526H158.309V62.4155H159.786V62.9079H157.743V57.9639H159.786V58.4564H158.309V60.1503L159.52 60.1602Z" fill="#BDBDBD"/>
<path d="M143.334 70.2352C144.102 70.2352 144.457 70.7276 144.457 71.4712V73.9727C144.457 74.7311 144.102 75.1989 143.334 75.1989H142.167V70.2352H143.334ZM143.334 74.6966C143.733 74.6966 143.925 74.4455 143.925 73.9924V71.4417C143.925 70.9886 143.733 70.7424 143.329 70.7424H142.743V74.6818L143.334 74.6966Z" fill="#263238"/>
<path d="M144.935 71.417C144.935 70.6587 145.309 70.1663 146.067 70.1663C146.825 70.1663 147.21 70.6587 147.21 71.417V73.9826C147.232 74.1426 147.219 74.3058 147.172 74.4602C147.124 74.6146 147.042 74.7566 146.933 74.8757C146.824 74.9949 146.689 75.0883 146.54 75.1493C146.39 75.2103 146.229 75.2373 146.067 75.2284C145.309 75.2284 144.935 74.736 144.935 73.9826V71.417ZM145.476 74.0121C145.476 74.4652 145.668 74.7261 146.067 74.7261C146.466 74.7261 146.653 74.4652 146.653 74.0121V71.417C146.653 70.9689 146.471 70.6981 146.067 70.6981C145.663 70.6981 145.476 70.9689 145.476 71.417V74.0121Z" fill="#263238"/>
<path d="M148.219 75.1989H147.727V70.2352H148.426L149.573 73.825V70.2352H150.066V75.1989H149.489L148.219 71.1856V75.1989Z" fill="#263238"/>
<path d="M152.395 72.4364V72.9288H151.183V74.6966H152.661V75.189H150.622V70.2352H152.666V70.7276H151.188V72.4216L152.395 72.4364Z" fill="#263238"/>
<path d="M196.078 1H99.1387V4.94926H196.078V1Z" fill="#FF725E" stroke="#263238" stroke-width="0.985332" stroke-linecap="round" stroke-linejoin="round"/>
<path d="M34.2715 127.194V126.465" stroke="#263238" stroke-width="0.985332" stroke-linecap="round" stroke-linejoin="round"/>
<path d="M34.2715 125.023V62.5878C34.2715 61.3264 34.52 60.0774 35.0029 58.912C35.4858 57.7467 36.1935 56.6879 37.0857 55.7962C37.9779 54.9045 39.037 54.1973 40.2026 53.715C41.3681 53.2328 42.6173 52.9849 43.8787 52.9855H89.5612" stroke="#263238" stroke-width="0.985332" stroke-linecap="round" stroke-linejoin="round" stroke-dasharray="2.93 2.93"/>
<path d="M90.3047 52.9855H91.0286" stroke="#263238" stroke-width="0.985332" stroke-linecap="round" stroke-linejoin="round"/>
<path d="M95.8298 53.3844L87.9805 48.8491V57.9147L95.8298 53.3844Z" fill="#263238"/>
<path d="M170.762 188.004H171.491" stroke="#263238" stroke-width="0.985332" stroke-linecap="round" stroke-linejoin="round"/>
<path d="M172.934 188.004H175.627C178.183 188.004 180.634 186.989 182.442 185.181C184.249 183.374 185.264 180.923 185.264 178.367V87.2683" stroke="#263238" stroke-width="0.985332" stroke-linecap="round" stroke-linejoin="round" stroke-dasharray="2.93 2.93"/>
<path d="M185.264 86.5493V85.8254" stroke="#263238" stroke-width="0.985332" stroke-linecap="round" stroke-linejoin="round"/>
<path d="M168.015 187.581L175.864 192.111V183.045L168.015 187.581Z" fill="#263238"/>
<path d="M126.882 128.47C127.301 127.673 127.93 127.006 128.7 126.541C129.471 126.077 130.355 125.833 131.255 125.835H173.382C173.382 125.835 176.425 125.835 175.514 131.621C174.603 137.407 162.115 172.734 159.067 183.39C156.019 194.046 155.413 216.584 155.413 216.584H104.861C104.861 216.584 108.914 162.777 126.882 128.47Z" fill="white" stroke="#263238" stroke-width="0.985332" stroke-linecap="round" stroke-linejoin="round"/>
<path d="M166.074 135.886C161.815 145.823 152.779 185.128 151.341 216.584H155.413C155.413 216.584 156.039 194.031 159.067 183.39C162.096 172.749 174.598 137.407 175.514 131.621C176.43 125.835 173.382 125.835 173.382 125.835C173.382 125.835 169.487 127.918 166.074 135.886Z" fill="#263238" stroke="#263238" stroke-width="0.985332" stroke-linecap="round" stroke-linejoin="round"/>
<path d="M85.9664 126.633C85.9664 126.633 78.2353 125.692 73.1288 120.325C68.0224 114.957 84.2281 95.8168 92.8801 91.3062C101.532 86.7955 105.097 88.0315 114.375 94.8713C123.652 101.711 132.708 112.687 132.594 120.049C132.481 127.411 128.473 130.932 134.072 134.561C139.67 138.19 155.517 148.497 157.831 155.578C160.146 162.659 156.132 171.468 146.84 176.26C137.548 181.051 122.303 180.829 107.618 176.082C92.9342 171.335 89.7384 156.316 91.6293 150.205C93.5202 144.094 98.5233 139.894 97.0165 135.245C95.5096 130.597 85.9664 126.633 85.9664 126.633Z" fill="#263238" stroke="#263238" stroke-width="0.985332" stroke-linecap="round" stroke-linejoin="round"/>
<path d="M92.5947 147.743C92.5947 147.743 84.5977 146.63 80.9044 149.019C77.2113 151.407 58.9619 182.597 58.9619 182.597L48.8819 169.031L40.1414 172.955C40.1414 172.955 44.2383 188.812 49.005 196.7C53.7717 204.589 56.4899 205.387 58.1248 205.126C62.99 204.353 77.0832 188.048 77.0832 188.048L82.2045 205.086L78.7279 217.471H143.482L135.628 204.372C135.628 204.372 145.875 157.099 143.265 152.091C140.656 147.083 125.449 147.743 120.668 147.743H106.978C104.904 148.155 102.795 148.372 100.68 148.393C97.9758 148.314 95.277 148.098 92.5947 147.743Z" fill="#FF725E"/>
<path d="M135.849 149.339L135.982 149.393L134.741 152.554L134.604 152.5L135.849 149.339ZM135.51 152.855L135.643 152.909L136.888 149.747L136.751 149.693L135.51 152.855ZM141.158 162.915L141.015 162.875L140.468 164.821H140.621L141.158 162.915ZM142.093 163.181L141.951 163.141L141.458 164.821H141.606L142.093 163.181ZM136.184 163.289L136.647 164.821H136.8L136.307 163.245L136.184 163.289ZM137.258 162.969L137.115 163.008L137.662 164.821H137.814L137.258 162.969ZM141.222 155.735L142.911 152.781L142.788 152.707L141.099 155.661L141.222 155.735ZM142.069 156.228L143.649 153.465C143.649 153.381 143.649 153.308 143.62 153.229L141.941 156.159L142.069 156.228ZM143.177 160.428L143.457 160.059L143.487 159.788L143.059 160.339L143.177 160.428ZM138.996 157.429L141.35 159.891L141.453 159.793L139.099 157.331L138.996 157.429ZM138.252 158.084L140.601 160.546L140.71 160.448L138.356 157.986L138.252 158.084ZM135.657 158.084L135.697 157.941L133.88 157.493V157.641L135.657 158.084ZM133.855 156.607L135.899 157.124L135.933 156.981L133.88 156.489L133.855 156.607ZM136.135 161.004L136.091 160.866L133.88 161.635V161.787L136.135 161.004ZM135.785 159.941L133.855 160.581V160.733L135.825 160.078L135.785 159.941ZM134.717 187.452L135.958 184.291L135.825 184.237L134.579 187.398L134.717 187.452ZM136.726 184.591L135.485 187.753L135.618 187.807L136.864 184.646L136.726 184.591ZM136.662 199.414L136.283 198.148L136.14 198.187L136.603 199.714L136.662 199.414ZM139.124 178.151L138.986 178.2L140.138 181.396H140.168L140.212 181.174L139.124 178.151ZM139.897 177.87L140.503 179.539C140.503 179.446 140.537 179.352 140.552 179.254L140.035 177.821L139.897 177.87ZM142.054 169.548L142.133 169.809L142.177 169.513L142.054 169.548ZM138.814 169.356L138.617 172.744H138.76L138.957 169.351L138.814 169.356ZM139.587 172.803H139.73L139.927 169.41H139.784L139.587 172.803ZM135.446 169.208L135.515 169.08L133.84 168.179V168.346L135.446 169.208ZM133.84 167.238L135.904 168.346L135.973 168.218L133.88 167.11L133.84 167.238ZM135.13 172.365L135.037 172.256L133.88 173.349V173.541L135.13 172.365ZM134.495 171.631L134.402 171.518L133.84 172.01V172.202L134.495 171.631ZM133.88 177.456V177.609L136.943 176.412L136.888 176.279L133.88 177.456ZM133.88 176.412V176.57L136.588 175.511L136.534 175.373L133.88 176.412ZM135.687 182.577L135.721 182.435L133.88 182.021V182.169L135.687 182.577ZM135.899 181.632L135.933 181.489L133.88 181.026V181.174L135.899 181.632ZM135.657 193.046L135.697 192.909L133.855 192.441V192.593L135.657 193.046ZM133.88 191.569L135.923 192.091L135.958 191.948L133.88 191.426V191.569ZM136.16 195.967L136.115 195.829L133.88 196.567V196.725L136.16 195.967ZM135.854 195.046L135.81 194.908L133.88 195.548V195.701L135.854 195.046ZM140.232 166.18L140.621 164.816H140.468L140.094 166.14L140.232 166.18ZM141.626 164.816H141.478L141.03 166.401L141.168 166.446L141.626 164.816ZM137.145 166.534L137.287 166.495L136.795 164.816H136.642L137.145 166.534ZM138.213 166.214L137.795 164.816H137.642L138.075 166.258L138.213 166.214ZM139.026 213.167L140.178 216.358L140.316 216.309L139.163 213.118L139.026 213.167ZM141.227 215.979L140.074 212.788L139.937 212.837L141.094 216.028L141.227 215.979ZM142.857 216.767L142.714 216.727L142.507 217.466H142.66L142.857 216.767ZM133.88 203.314L135.485 204.175L135.554 204.047L133.88 203.146V203.314ZM133.88 202.211L135.849 203.289L135.879 203.141L133.88 202.048V202.211ZM135.145 207.327L135.052 207.214L133.88 208.262V208.45L135.145 207.327ZM134.51 206.588L134.416 206.48L133.855 206.972V207.164L134.51 206.588ZM136.864 211.197L133.88 212.389V212.547L136.943 211.345L136.864 211.197ZM133.855 211.488L136.563 210.429L136.509 210.296L133.855 211.33V211.488ZM133.855 216.939V217.092L135.485 217.456H135.672L135.697 217.358L133.855 216.939ZM135.874 216.55L135.909 216.407L133.855 215.944V216.097L135.874 216.55ZM99.6462 152.485L99.7792 152.539L101.025 149.378L100.887 149.324L99.6462 152.485ZM100.547 152.84L100.685 152.894L101.926 149.733L101.793 149.678L100.547 152.84ZM132.368 157.247L133.845 157.626V157.478L132.393 157.109L132.368 157.247ZM132.644 156.169L132.604 156.307L133.855 156.627V156.474L132.644 156.169ZM133.88 161.787V161.635L132.895 161.964L132.939 162.102L133.88 161.787ZM132.56 161.039L132.604 161.177L133.855 160.763V160.61L132.56 161.039ZM129.94 164.821H130.108L130.748 163.708L130.625 163.634L129.94 164.821ZM131.063 164.821H131.23L131.59 164.19L131.467 164.116L131.063 164.821ZM123.741 163.461L123.627 163.555L124.666 164.821H124.854L123.741 163.461ZM124.381 162.939L125.922 164.821H126.109L124.494 162.851L124.381 162.939ZM120.707 164.599L120.574 164.648L120.633 164.821H120.791L120.707 164.599ZM121.485 164.318L121.668 164.811H121.82L121.623 164.259L121.485 164.318ZM116.157 164.811L116.576 163.161L116.433 163.127L116.005 164.811H116.157ZM117.374 163.363L117.004 164.811H117.137L117.497 163.402L117.374 163.363ZM106.21 162.905L106.067 162.866L105.516 164.811H105.669L106.21 162.905ZM107.141 163.171L107.003 163.132L106.511 164.811H106.663L107.141 163.171ZM101.232 163.279L101.695 164.811H101.847L101.355 163.235L101.232 163.279ZM102.3 162.959L102.163 162.999L102.709 164.811H102.857L102.3 162.959ZM106.269 155.725L107.958 152.771L107.83 152.697L106.141 155.652L106.269 155.725ZM106.988 156.139L107.111 156.208L108.8 153.253L108.672 153.18L106.988 156.139ZM126.257 158.306L129.384 159.63L129.438 159.497L126.311 158.173L126.257 158.306ZM125.878 159.197L129.005 160.522L129.059 160.389L125.907 159.069L125.878 159.197ZM128.512 154.095L128.65 154.135L129.576 150.87L129.433 150.826L128.512 154.095ZM129.443 154.361L129.586 154.401L130.507 151.131L130.369 151.092L129.443 154.361ZM124.361 148.285L125.346 151.535L125.484 151.495L124.524 148.236L124.361 148.285ZM125.287 148.004L126.272 151.254L126.41 151.215L125.425 147.965L125.287 148.004ZM114.557 161.925L113.572 158.675L113.434 158.714L114.419 161.969L114.557 161.925ZM115.488 161.644L114.503 158.394L114.36 158.434L115.345 161.689L115.488 161.644ZM119.329 159.763L122.692 159.271V159.128L119.329 159.621V159.763ZM119.466 160.724L122.83 160.231V160.088L119.466 160.581V160.724ZM121.929 156.582L122.071 156.617L122.83 153.308L122.687 153.273L121.929 156.582ZM123.632 153.49L122.874 156.799L123.017 156.833L123.775 153.524L123.632 153.49ZM111.721 154.696L111.844 154.775L113.661 151.904L113.538 151.83L111.721 154.696ZM114.483 152.426L114.36 152.347L112.543 155.218L112.666 155.297L114.483 152.426ZM111.327 149.122L114.439 147.763V147.728H114.173L111.282 148.989L111.327 149.122ZM111.656 149.875L111.716 150.008L114.828 148.654L114.769 148.521L111.656 149.875ZM108.702 147.728H108.549L107.781 150.397L107.924 150.437L108.702 147.728ZM107.003 150.191L107.692 147.728H107.54L106.86 150.131L107.003 150.191ZM120.328 148.772L119.993 147.743H119.841L120.161 148.807L120.328 148.772ZM119.26 149.092L119.402 149.053L119.008 147.748H118.856L119.26 149.092ZM108.111 160.349L108.224 160.438L110.292 157.744L110.174 157.656L108.111 160.349ZM108.879 160.94L108.997 161.029L111.061 158.33L110.947 158.242L108.879 160.94ZM104.044 157.439L106.397 159.901L106.506 159.803L104.152 157.341L104.044 157.439ZM103.315 158.084L105.669 160.546L105.772 160.448L103.423 157.986L103.315 158.084ZM116.207 153.731L116.147 153.864L119.274 155.194L119.333 155.056L116.207 153.731ZM116.527 152.973L119.654 154.297L119.713 154.164L116.586 152.84L116.527 152.973ZM100.725 158.084L100.759 157.941L98.9174 157.493V157.641L100.725 158.084ZM98.9223 156.607L100.961 157.124L101 156.981L98.9174 156.489L98.9223 156.607ZM101.202 161.004L101.153 160.866L98.9174 161.635V161.787L101.202 161.004ZM100.848 159.941L98.9223 160.581V160.733L100.892 160.078L100.848 159.941ZM100.887 184.237L99.6462 187.398L99.7792 187.452L101.025 184.291L100.887 184.237ZM101.793 184.591L100.547 187.753L100.685 187.807L101.926 184.646L101.793 184.591ZM132.471 167.598L133.855 168.346V168.179L132.54 167.47L132.471 167.598ZM132.998 166.613L132.929 166.736L133.855 167.229V167.061L132.998 166.613ZM133.88 173.349L132.506 174.541L132.599 174.649L133.88 173.541V173.349ZM131.964 173.916L133.88 172.261V172.069L131.871 173.802L131.964 173.916ZM133.727 177.54L133.776 177.678L133.88 177.634V177.481L133.727 177.54ZM133.373 176.639L133.422 176.772L133.88 176.594V176.437L133.373 176.639ZM133.865 182.055L132.388 181.721L132.353 181.863L133.86 182.203L133.865 182.055ZM133.865 181.071L132.604 180.785L132.575 180.928L133.865 181.218V181.071ZM133.865 192.47L132.402 192.062L132.368 192.204L133.845 192.584L133.865 192.47ZM132.654 191.16L132.614 191.303L133.88 191.569V191.421L132.654 191.16ZM133.88 196.725V196.567L132.895 196.897L132.939 197.035L133.88 196.725ZM133.88 195.701V195.548L132.585 195.976L132.629 196.114L133.88 195.701ZM113.887 166.544L110.76 165.215L110.706 165.347L113.833 166.677L113.887 166.544ZM110.327 166.244L113.454 167.568L113.508 167.435L110.381 166.111L110.327 166.244ZM130.738 198.64L130.615 198.571L129.94 199.758H130.108L130.738 198.64ZM131.58 199.133L131.457 199.059L131.053 199.768H131.221L131.58 199.133ZM123.618 198.498L124.657 199.768H124.844L123.731 198.404L123.618 198.498ZM124.371 197.882L125.912 199.768H126.099L124.484 197.798L124.371 197.882ZM120.697 199.547L120.564 199.596L120.624 199.768H120.781L120.697 199.547ZM121.475 199.266L121.658 199.758H121.81L121.613 199.207L121.475 199.266ZM116.551 198.118L116.408 198.079L115.98 199.768H116.152L116.551 198.118ZM117.349 198.32L116.98 199.768H117.137L117.497 198.355L117.349 198.32ZM106.186 197.857L106.043 197.818L105.491 199.788H105.644L106.186 197.857ZM107.116 198.123L106.978 198.084L106.486 199.768H106.639L107.116 198.123ZM101.207 198.232L101.67 199.768H101.823L101.33 198.192L101.207 198.232ZM102.138 197.956L102.684 199.768H102.832L102.276 197.912L102.138 197.956ZM107.806 187.664L106.117 190.619L106.245 190.693L107.934 187.738L107.806 187.664ZM108.791 188.216L108.663 188.142L106.978 191.096L107.102 191.17L108.791 188.216ZM122.524 172.035L120.358 169.41L120.249 169.504L122.396 172.133L122.524 172.035ZM121.776 172.65L119.599 170.011L119.486 170.104L121.638 172.734L121.776 172.65ZM116.453 171.212L117.605 174.403L117.743 174.354L116.591 171.163L116.453 171.212ZM117.369 170.882L118.521 174.073L118.654 174.024L117.502 170.833L117.369 170.882ZM129.428 194.45L126.301 193.125L126.247 193.258L129.374 194.583L129.428 194.45ZM129.049 195.346L125.922 194.017L125.868 194.154L128.995 195.479L129.049 195.346ZM129.423 185.783L128.502 189.053L128.64 189.092L129.566 185.823L129.423 185.783ZM130.497 186.088L130.359 186.049L129.433 189.314L129.576 189.353L130.497 186.088ZM125.489 186.438L124.504 183.188L124.366 183.227L125.351 186.482L125.489 186.438ZM126.419 186.157L125.435 182.907L125.292 182.947L126.277 186.202L126.419 186.157ZM116.571 177.653L114.882 180.608L115.005 180.677L116.694 177.722L116.571 177.653ZM115.852 177.244L115.724 177.171L114.04 180.125L114.163 180.194L115.852 177.244ZM110.115 179.928L107.963 177.289L107.85 177.382L110.002 180.012L110.115 179.928ZM110.864 179.313L108.717 176.683L108.603 176.777L110.75 179.406L110.864 179.313ZM104.068 178.244L105.22 181.44L105.358 181.391L104.201 178.195L104.068 178.244ZM104.979 177.914L106.131 181.11L106.269 181.061L105.117 177.865L104.979 177.914ZM128.463 180.499L128.606 180.534L129.443 177.244L129.3 177.205L128.463 180.499ZM130.383 177.481L130.241 177.446L129.404 180.736L129.546 180.77L130.383 177.481ZM124.829 180.243L121.702 178.919L121.648 179.052L124.775 180.381L124.829 180.243ZM125.208 179.352L122.061 178.027L122.007 178.16L125.134 179.485L125.208 179.352ZM114.557 196.863L113.572 193.608L113.434 193.652L114.419 196.902L114.557 196.863ZM115.488 196.582L114.503 193.327L114.36 193.371L115.345 196.621L115.488 196.582ZM122.692 194.223V194.081L119.329 194.573V194.716L122.692 194.223ZM122.83 195.184V195.041L119.466 195.533V195.676L122.83 195.184ZM122.061 191.569L122.82 188.26L122.677 188.226L121.919 191.54L122.061 191.569ZM123.007 191.786L123.765 188.477L123.622 188.442L122.864 191.756L123.007 191.786ZM113.651 186.862L113.528 186.783L111.721 189.634L111.844 189.713L113.651 186.862ZM114.473 187.379L114.35 187.3L112.533 190.171L112.656 190.249L114.473 187.379ZM114.429 182.715L114.375 182.582L111.258 183.941L111.317 184.074L114.429 182.715ZM114.818 183.607L114.759 183.474L111.647 184.833L111.706 184.966L114.818 183.607ZM108.835 182.129L108.697 182.085L107.781 185.33L107.924 185.37L108.835 182.129ZM106.978 185.133L107.899 181.863L107.761 181.824L106.836 185.094L106.978 185.133ZM120.299 183.69L119.314 180.44L119.171 180.48L120.156 183.735L120.299 183.69ZM118.255 180.736L119.24 183.986L119.383 183.946L118.398 180.696L118.255 180.736ZM113.533 172.365L110.819 174.413L110.908 174.526L113.621 172.483L113.533 172.365ZM111.494 175.319L114.202 173.271L114.119 173.157L111.405 175.201L111.494 175.319ZM109.15 172.507L108.21 169.243L108.067 169.287L109.012 172.547L109.15 172.507ZM107.136 169.553L108.077 172.857L108.219 172.818L107.289 169.543L107.136 169.553ZM103.896 169.361L103.699 172.749H103.842L104.039 169.356L103.896 169.361ZM104.664 172.808H104.812L105.009 169.415H104.861L104.664 172.808ZM110.243 192.657L110.125 192.569L108.062 195.267L108.175 195.356L110.243 192.657ZM111.011 193.248L110.898 193.16L108.83 195.858L108.948 195.947L111.011 193.248ZM103.994 192.352L106.348 194.814L106.456 194.711L104.103 192.249L103.994 192.352ZM103.315 193.046L105.669 195.509L105.772 195.41L103.423 192.948L103.315 193.046ZM128.044 174.132L127.931 174.044L125.794 176.683L125.907 176.777L128.044 174.132ZM127.178 173.433L125.041 176.073L125.154 176.166L127.286 173.522L127.178 173.433ZM127.774 168.425H127.631L127.247 171.798H127.394L127.774 168.425ZM126.666 168.297L126.286 171.675H126.429L126.808 168.302L126.666 168.297ZM119.333 190.013L116.207 188.688L116.147 188.821L119.274 190.146L119.333 190.013ZM116.527 187.925L119.654 189.25L119.713 189.117L116.586 187.792L116.527 187.925ZM100.528 169.257L100.597 169.129L98.9223 168.228V168.396L100.528 169.257ZM98.9223 167.288L100.986 168.396L101.055 168.268L98.9174 167.11L98.9223 167.288ZM100.213 172.414L100.114 172.305L98.9174 173.349V173.541L100.213 172.414ZM99.5773 171.68L99.4788 171.567L98.9223 172.059V172.251L99.5773 171.68ZM101.926 176.289L98.9223 177.466V177.619L101.98 176.422L101.926 176.289ZM101.626 175.521L101.577 175.383L98.9174 176.412V176.57L101.626 175.521ZM100.73 182.587L100.759 182.445L98.9223 182.031V182.179L100.73 182.587ZM98.9174 181.174L100.936 181.632L100.971 181.489L98.9174 181.026V181.174ZM100.725 193.046L100.759 192.909L98.9223 192.441V192.593L100.725 193.046ZM98.9174 191.569L100.956 192.091L100.995 191.948L98.9174 191.426V191.569ZM101.197 195.967L101.148 195.829L98.9174 196.567V196.725L101.197 195.967ZM100.892 195.046L100.843 194.908L98.9174 195.548V195.701L100.892 195.046ZM128.921 166.579L129.044 166.647L130.093 164.816H129.94L128.921 166.579ZM129.763 167.071L129.886 167.14L131.216 164.825H131.048L129.763 167.071ZM125.878 166.086L124.839 164.816H124.652L125.765 166.175L125.878 166.086ZM126.518 165.564L126.631 165.471L126.094 164.816H125.907L126.518 165.564ZM121.85 167.79L120.776 164.835H120.619L121.712 167.859L121.85 167.79ZM122.623 167.509L122.761 167.46L121.805 164.816H121.653L122.623 167.509ZM115.581 166.421L115.724 166.455L116.143 164.816H115.99L115.581 166.421ZM116.522 166.662L116.664 166.697L117.157 164.816H117.004L116.522 166.662ZM105.27 166.17L105.654 164.806H105.501L105.127 166.13L105.27 166.17ZM106.663 164.806H106.511L106.063 166.391L106.205 166.436L106.663 164.806ZM102.182 166.524L102.32 166.485L101.828 164.806H101.675L102.182 166.524ZM103.251 166.204L102.827 164.806H102.68L103.108 166.249L103.251 166.204ZM132.535 202.422L132.466 202.55L133.85 203.299V203.131L132.535 202.422ZM132.993 201.57L132.924 201.698L133.85 202.191V202.028L132.993 201.57ZM133.88 208.45V208.262L132.506 209.449L132.599 209.558L133.88 208.45ZM133.88 207.169V206.977L131.871 208.715L131.964 208.824L133.88 207.169ZM133.727 212.448L133.776 212.586L133.88 212.547V212.389L133.727 212.448ZM133.373 211.547L133.422 211.685L133.88 211.503V211.345L133.373 211.547ZM132.388 216.624L132.353 216.767L133.86 217.106V216.954L132.388 216.624ZM133.865 215.959L132.604 215.673L132.575 215.816L133.865 216.112V215.959ZM113.887 201.477L110.76 200.152L110.706 200.285L113.833 201.61L113.887 201.477ZM110.327 201.176L113.454 202.506L113.508 202.368L110.381 201.043L110.327 201.176ZM120.249 204.422L122.396 207.051L122.51 206.958L120.358 204.333L120.249 204.422ZM121.761 207.573L119.599 204.948L119.486 205.037L121.638 207.667L121.761 207.573ZM117.728 209.297L116.576 206.101L116.438 206.15L117.59 209.346L117.728 209.297ZM118.639 208.967L117.487 205.771L117.354 205.82L118.506 209.016L118.639 208.967ZM116.669 212.665L116.546 212.591L114.857 215.545L114.98 215.619L116.669 212.665ZM115.827 212.172L115.699 212.103L114.015 215.058L114.138 215.132L115.827 212.172ZM110.091 214.856L107.963 212.251L107.85 212.34L110.002 214.969L110.091 214.856ZM110.839 214.241L108.692 211.616L108.579 211.705L110.726 214.334L110.839 214.241ZM105.334 216.319L104.177 213.128L104.044 213.177L105.196 216.368L105.334 216.319ZM106.245 215.989L105.092 212.798L104.955 212.847L106.107 216.038L106.245 215.989ZM129.389 212.182L129.246 212.148L128.409 215.437L128.552 215.472L129.389 212.182ZM130.329 212.419L130.187 212.384L129.349 215.678L129.492 215.713L130.329 212.419ZM124.829 215.206L121.702 213.881L121.648 214.014L124.775 215.339L124.829 215.206ZM125.208 214.309L122.061 212.96L122.007 213.093L125.134 214.423L125.208 214.309ZM108.692 217.023L108.554 217.515H108.707L108.83 217.082L108.692 217.023ZM107.894 216.796L107.756 216.757L107.545 217.495H107.697L107.894 216.796ZM119.181 215.437L119.801 217.495H119.954L119.324 215.393L119.181 215.437ZM118.393 215.673L118.255 215.713L118.787 217.495H118.939L118.393 215.673ZM113.621 207.484L113.533 207.371L110.819 209.415L110.908 209.533L113.621 207.484ZM114.202 208.262L114.119 208.144L111.405 210.188L111.494 210.306L114.202 208.262ZM109.012 207.539L109.15 207.494L108.21 204.234L108.067 204.274L109.012 207.539ZM108.219 207.765L107.289 204.481L107.151 204.52L108.091 207.78L108.219 207.765ZM103.842 207.765L104.039 204.377H103.896L103.699 207.77L103.842 207.765ZM104.827 207.824L105.024 204.431H104.876L104.679 207.819L104.827 207.824ZM128.059 209.095L127.946 209.001L125.809 211.641L125.922 211.734L128.059 209.095ZM127.193 208.39L125.055 211.03L125.169 211.123L127.301 208.484L127.193 208.39ZM127.788 203.387H127.646L127.262 206.761H127.409L127.788 203.387ZM126.68 203.264L126.301 206.637H126.444L126.823 203.259L126.68 203.264ZM100.542 204.22L100.611 204.092L98.9371 203.19V203.358L100.542 204.22ZM101.069 203.235L98.9174 202.048V202.211L100.981 203.323L101.069 203.235ZM100.213 207.327L100.114 207.214L98.9174 208.258V208.45L100.213 207.327ZM99.5773 206.588L99.4788 206.48L98.9223 206.972V207.164L99.5773 206.588ZM101.926 211.197L98.9223 212.374V212.532L101.98 211.33L101.926 211.197ZM98.9223 211.488L101.626 210.429L101.577 210.296L98.9223 211.33V211.488ZM98.9223 216.939V217.092L100.552 217.456H100.734L100.759 217.358L98.9223 216.939ZM100.941 216.55L100.976 216.407L98.9223 215.944V216.097L100.941 216.55ZM129.049 201.575L130.098 199.743H129.94L128.955 201.501L129.049 201.575ZM131.053 199.743L129.768 201.984L129.891 202.058L131.221 199.743H131.053ZM125.769 201.103L125.883 201.009L124.844 199.743H124.657L125.769 201.103ZM126.523 200.487L126.636 200.393L126.099 199.743H125.912L126.523 200.487ZM121.855 202.713L120.781 199.758H120.624L121.717 202.777L121.855 202.713ZM122.628 202.437L122.766 202.383L121.81 199.743H121.658L122.628 202.437ZM115.734 201.383L116.152 199.743H116L115.591 201.349L115.734 201.383ZM116.532 201.585L116.674 201.62L117.167 199.743H117.014L116.532 201.585ZM105.28 201.093L105.664 199.734H105.511L105.137 201.053L105.28 201.093ZM106.52 199.734L106.072 201.319L106.215 201.359L106.673 199.734H106.52ZM102.192 201.452L102.33 201.408L101.838 199.734H101.685L102.192 201.452ZM103.118 201.172L103.261 201.132L102.837 199.734H102.689L103.118 201.172ZM97.4401 157.262L98.9174 157.641V157.493L97.4648 157.124L97.4401 157.262ZM97.7159 156.183L97.6814 156.321L98.9322 156.641V156.489L97.7159 156.183ZM98.9174 161.787V161.635L97.9326 161.964L97.9818 162.102L98.9174 161.787ZM97.6273 161.039L97.6716 161.177L98.9223 160.763V160.61L97.6273 161.039ZM94.978 164.821H95.1454L95.7856 163.708L95.6576 163.634L94.978 164.821ZM96.0958 164.821H96.2632L96.6276 164.19L96.4996 164.116L96.0958 164.821ZM88.7784 163.461L88.6651 163.555L89.7041 164.821H89.8912L88.7784 163.461ZM89.4185 162.939L90.9549 164.821H91.1469L89.5318 162.851L89.4185 162.939ZM85.745 164.599L85.6071 164.648L85.6711 164.821H85.8238L85.745 164.599ZM86.523 164.318L86.7003 164.811H86.8579L86.6609 164.259L86.523 164.318ZM81.1901 164.811L81.6086 163.161L81.4707 163.127L81.0423 164.811H81.1901ZM82.4113 163.363L82.042 164.811H82.1946L82.5491 163.402L82.4113 163.363ZM70.7063 164.811L71.243 162.905L71.1052 162.866L70.5536 164.811H70.7063ZM72.1836 163.171L72.0408 163.132L71.5483 164.811H71.701L72.1836 163.171ZM91.2799 158.306L94.4068 159.63L94.4659 159.497L91.339 158.173L91.2799 158.306ZM90.9007 159.197L94.0424 160.546L94.1015 160.413L90.9746 159.069L90.9007 159.197ZM93.5352 154.095L93.678 154.135L94.5988 150.87L94.461 150.826L93.5352 154.095ZM94.4708 154.361L94.6087 154.401L95.5345 151.131L95.3966 151.092L94.4708 154.361ZM89.4234 148.285L90.4083 151.535L90.5462 151.495L89.5613 148.236L89.4234 148.285ZM90.3541 148.004L91.339 151.254L91.4769 151.215L90.492 147.965L90.3541 148.004ZM78.5063 158.714L79.4912 161.969L79.6291 161.925L78.6442 158.675L78.5063 158.714ZM80.5548 161.669L79.57 158.419L79.4321 158.458L80.4169 161.713L80.5548 161.669ZM84.3958 159.788L87.759 159.296V159.153L84.3958 159.645V159.788ZM84.509 160.605V160.748L87.8723 160.256V160.113L84.509 160.605ZM87.8871 153.332L87.7443 153.298L86.9908 156.607L87.1287 156.641L87.8871 153.332ZM88.6946 153.514L87.9363 156.824L88.0742 156.858L88.8325 153.549L88.6946 153.514ZM76.7582 154.696L76.8813 154.775L78.6984 151.904L78.5753 151.83L76.7582 154.696ZM77.5806 155.218L77.7037 155.297L79.5207 152.426L79.3976 152.347L77.5806 155.218ZM85.3511 148.753L85.0359 147.704H84.8882L85.2132 148.772L85.3511 148.753ZM84.2825 149.073L84.4204 149.033L84.0708 147.861L83.9279 147.891L84.2825 149.073ZM73.1339 160.33L73.2472 160.418L75.3105 157.725L75.1972 157.636L73.1339 160.33ZM76.0885 158.311L75.9703 158.222L73.9071 160.921L74.0252 161.009L76.0885 158.311ZM81.259 153.736L81.2048 153.869L84.3317 155.199L84.3859 155.061L81.259 153.736ZM81.584 152.978L84.7109 154.302L84.7651 154.169L81.6382 152.845L81.584 152.978ZM65.9445 184.271L64.7036 187.433L64.8366 187.487L66.0775 184.326L65.9445 184.271ZM66.8457 184.626L65.6047 187.787L65.7377 187.842L66.9835 184.68L66.8457 184.626ZM97.5239 167.632L98.9125 168.381V168.213L97.5928 167.504L97.5239 167.632ZM98.0557 166.647L97.9867 166.771L98.9125 167.263V167.096L98.0557 166.647ZM98.9174 173.349L97.5386 174.541L97.6371 174.649L98.9174 173.541V173.349ZM97.0019 173.916L98.9174 172.261V172.069L96.9083 173.802L97.0019 173.916ZM98.7598 177.54L98.814 177.678L98.9174 177.634V177.481L98.7598 177.54ZM98.9174 176.437L98.425 176.639L98.4792 176.772L98.9371 176.594L98.9174 176.437ZM98.9174 182.046L97.4401 181.711L97.4106 181.854L98.9174 182.193V182.046ZM97.6568 180.765L97.6223 180.908L98.9174 181.199V181.051L97.6568 180.765ZM98.9174 192.426L97.4648 192.057L97.4254 192.199L98.9026 192.579L98.9174 192.426ZM97.7011 191.116L97.6667 191.259L98.9174 191.569V191.421L97.7011 191.116ZM98.9174 196.725V196.567L97.9326 196.897L97.9818 197.035L98.9174 196.725ZM98.9174 195.701V195.548L97.6223 195.976L97.6667 196.114L98.9174 195.701ZM75.7734 165.347L78.9003 166.677L78.9594 166.544L75.8324 165.215L75.7734 165.347ZM75.3942 166.244L78.5211 167.568L78.5802 167.435L75.4533 166.111L75.3942 166.244ZM95.8102 198.64L95.6822 198.571L94.978 199.758H95.1454L95.8102 198.64ZM96.6523 199.133L96.5242 199.059L96.1204 199.768H96.2879L96.6523 199.133ZM88.6897 198.498L89.7287 199.768H89.9159L88.803 198.404L88.6897 198.498ZM89.4431 197.882L90.9795 199.768H91.1715L89.5564 197.798L89.4431 197.882ZM85.7696 199.547L85.6317 199.596L85.6958 199.768H85.8484L85.7696 199.547ZM86.5477 199.266L86.7249 199.758H86.8825L86.6855 199.207L86.5477 199.266ZM81.0669 199.758H81.2147L81.6332 198.109L81.4954 198.069L81.0669 199.758ZM82.4359 198.311L82.0666 199.758H82.2192L82.5738 198.345L82.4359 198.311ZM66.4172 198.182L66.2794 198.222L66.5502 199.118L66.6684 199.01L66.4172 198.182ZM67.3479 197.902L67.2051 197.946L67.3381 198.37L67.4513 198.256L67.3479 197.902ZM73.0059 187.723L72.8779 187.654L71.1889 190.609L71.3169 190.683L73.0059 187.723ZM72.1589 191.17L73.848 188.216L73.7199 188.142L72.0309 191.096L72.1589 191.17ZM87.5916 172.025L85.4249 169.41L85.3117 169.504L87.4636 172.133L87.5916 172.025ZM86.8382 172.64L84.6863 170.011L84.578 170.104L86.7249 172.734L86.8382 172.64ZM81.52 171.202L82.6723 174.393L82.8101 174.344L81.6579 171.153L81.52 171.202ZM82.431 170.872L83.5832 174.063L83.7211 174.014L82.5689 170.823L82.431 170.872ZM94.4856 194.44L91.3587 193.115L91.2996 193.248L94.4265 194.573L94.4856 194.44ZM94.1064 195.336L90.9795 194.007L90.9204 194.145L94.0473 195.469L94.1064 195.336ZM94.4807 185.773L93.5549 189.043L93.6977 189.082L94.6185 185.813L94.4807 185.773ZM95.5541 186.079L95.4163 186.039L94.4856 189.304L94.6235 189.343L95.5541 186.079ZM90.5462 186.428L89.5613 183.178L89.4234 183.218L90.4083 186.473L90.5462 186.428ZM91.4769 186.148L90.492 182.898L90.3541 182.937L91.339 186.192L91.4769 186.148ZM81.6283 177.643L79.9393 180.598L80.0673 180.667L81.7563 177.712L81.6283 177.643ZM80.7863 177.151L79.0972 180.105L79.2253 180.174L80.9143 177.22L80.7863 177.151ZM72.9074 177.373L75.0593 180.002L75.1677 179.909L73.0305 177.289L72.9074 177.373ZM73.6559 176.757L75.8078 179.387L75.9211 179.293L73.8036 176.673L73.6559 176.757ZM69.1207 178.234L70.273 181.43L70.4108 181.381L69.2586 178.185L69.1207 178.234ZM70.0366 177.904L71.1889 181.1L71.3218 181.051L70.1695 177.855L70.0366 177.904ZM93.5007 180.499L93.6435 180.534L94.4757 177.244L94.3378 177.205L93.5007 180.499ZM95.4212 177.481L95.2784 177.446L94.4413 180.736L94.5841 180.77L95.4212 177.481ZM89.8962 180.243L86.7693 178.919L86.7102 179.052L89.8371 180.381L89.8962 180.243ZM90.2753 179.352L87.1484 178.027L87.0893 178.16L90.2162 179.485L90.2753 179.352ZM79.4419 193.371L80.4268 196.621L80.5647 196.582L79.5798 193.327L79.4419 193.371ZM87.764 194.223V194.081L84.4007 194.573V194.716L87.764 194.223ZM87.8969 195.184V195.041L84.5336 195.533V195.676L87.8969 195.184ZM87.1287 191.569L87.8871 188.26L87.7443 188.226L86.9908 191.54L87.1287 191.569ZM88.0742 191.786L88.8325 188.477L88.6946 188.442L87.9363 191.756L88.0742 191.786ZM78.59 186.783L77.3097 188.807L77.3639 188.994L78.7279 186.842L78.59 186.783ZM79.4124 187.3L77.679 190.038L77.7332 190.22L79.5355 187.379L79.4124 187.3ZM76.32 183.941L76.379 184.074L79.4912 182.715L79.4321 182.582L76.32 183.941ZM79.8802 183.607L79.8211 183.474L76.709 184.833L76.7631 184.966L79.8802 183.607ZM73.8972 182.129L73.7544 182.085L72.8188 185.33L72.9567 185.37L73.8972 182.129ZM72.0358 185.133L72.9616 181.863L72.8237 181.824L71.898 185.094L72.0358 185.133ZM85.3658 183.69L84.381 180.44L84.2431 180.48L85.228 183.735L85.3658 183.69ZM83.3173 180.736L84.3022 183.986L84.4401 183.946L83.4552 180.696L83.3173 180.736ZM78.595 172.365L75.8866 174.413L75.9753 174.526L78.6836 172.483L78.595 172.365ZM76.4677 175.186L76.5563 175.304L79.2696 173.256L79.181 173.143L76.4677 175.186ZM73.1339 169.277L74.0745 172.537L74.2173 172.497L73.2718 169.233L73.1339 169.277ZM72.2033 169.543L73.1438 172.808L73.2817 172.768L72.3264 169.543H72.2033ZM68.7563 172.739H68.904L69.101 169.346H68.9532L68.7563 172.739ZM70.0661 169.415H69.9233L69.7264 172.808H69.8692L70.0661 169.415ZM71.2578 194.376L69.1798 192.214L69.0764 192.313L71.1593 194.479L71.2578 194.376ZM68.4805 192.899L68.387 193.046L70.4945 195.238L70.593 195.134L68.4805 192.899ZM93.1019 174.088L92.9886 173.999L90.8564 176.639L90.9697 176.732L93.1019 174.088ZM92.2352 173.389L90.0981 176.028L90.2113 176.122L92.3484 173.477L92.2352 173.389ZM92.8409 168.425H92.6931L92.314 171.798H92.4568L92.8409 168.425ZM91.728 168.297L91.3488 171.675H91.4965L91.8757 168.302L91.728 168.297ZM84.3958 190.013L81.2688 188.688L81.2147 188.821L84.3416 190.146L84.3958 190.013ZM84.7749 189.117L81.648 187.792L81.5938 187.925L84.7208 189.25L84.7749 189.117ZM65.2748 172.419L65.1813 172.31L65.068 172.409L64.8218 172.813L65.2748 172.419ZM66.9934 176.294L63.9896 177.471V177.624L67.0476 176.427L66.9934 176.294ZM66.693 175.526L66.6388 175.388L63.9896 176.427V176.585L66.693 175.526ZM65.7919 182.592L65.8263 182.449L63.9896 182.036V182.184L65.7919 182.592ZM66.0085 181.647L66.0381 181.504L63.9896 181.041V181.189L66.0085 181.647ZM65.7869 193.046L65.8263 192.909L63.9896 192.441V192.593L65.7869 193.046ZM63.9896 191.569L66.0282 192.091L66.0627 191.948L63.9896 191.421V191.569ZM66.2646 195.967L66.2203 195.829L63.9896 196.562V196.72L66.2646 195.967ZM65.9593 195.046L65.915 194.908L63.9896 195.543V195.696L65.9593 195.046ZM93.9932 166.583L94.1212 166.652L95.1701 164.821H94.978L93.9932 166.583ZM94.8352 167.076L94.9632 167.145L96.2879 164.83H96.1204L94.8352 167.076ZM90.9549 166.091L89.9159 164.821H89.7287L90.8416 166.18L90.9549 166.091ZM91.5901 165.569L91.7034 165.475L91.1715 164.821H90.9795L91.5901 165.569ZM86.9219 167.795L85.8484 164.84H85.6958L86.784 167.864L86.9219 167.795ZM87.6999 167.514L87.8378 167.465L86.8825 164.821H86.7249L87.6999 167.514ZM80.6582 166.426L80.801 166.46L81.2147 164.821H81.0669L80.6582 166.426ZM81.5988 166.667L81.7366 166.702L82.2291 164.821H82.0764L81.5988 166.667ZM70.204 166.145L70.3468 166.185L70.7309 164.821H70.5783L70.204 166.145ZM71.7404 164.821H71.5877L71.1396 166.406L71.2775 166.45L71.7404 164.821ZM97.5386 202.565L98.9273 203.314V203.146L97.6076 202.437L97.5386 202.565ZM98.0704 201.58L98.0015 201.708L98.9273 202.201V202.038L98.0704 201.58ZM98.9174 208.45V208.258L97.5386 209.449L97.6371 209.558L98.9174 208.45ZM98.9174 207.169V206.977L96.9083 208.715L97.0019 208.824L98.9174 207.169ZM98.7598 212.448L98.814 212.586L98.9174 212.547V212.389L98.7598 212.448ZM98.4053 211.547L98.4595 211.685L98.9174 211.503V211.345L98.4053 211.547ZM97.4204 216.624L97.3909 216.767L98.8977 217.106V216.954L97.4204 216.624ZM98.8977 215.959L97.6371 215.673L97.6026 215.816L98.8977 216.112V215.959ZM85.3117 204.422L87.4636 207.051L87.5768 206.958L85.4249 204.333L85.3117 204.422ZM86.8234 207.573L84.6715 204.948L84.5632 205.037L86.7102 207.667L86.8234 207.573ZM82.7954 209.297L81.8105 206.549L81.7416 206.79L82.6624 209.346L82.7954 209.297ZM83.7064 208.967L82.5541 205.771L82.4162 205.82L83.5685 209.016L83.7064 208.967ZM81.7366 212.665L81.6086 212.591L79.9196 215.545L80.0476 215.619L81.7366 212.665ZM80.7518 212.113L79.7128 213.975L79.5503 214.551L80.9143 212.167L80.7518 212.113ZM94.4462 212.192L94.3083 212.158L93.4712 215.447L93.614 215.481L94.4462 212.192ZM95.3916 212.428L95.2488 212.394L94.4117 215.688L94.5545 215.723L95.3916 212.428ZM89.8962 215.206L86.7693 213.881L86.7102 214.014L89.8371 215.339L89.8962 215.206ZM90.2753 214.309L87.1484 212.985L87.0893 213.118L90.2162 214.447L90.2753 214.309ZM84.248 215.437L84.8685 217.495H85.0211L84.3859 215.393L84.248 215.437ZM83.4601 215.673L83.3173 215.713L83.8541 217.495H84.0067L83.4601 215.673ZM93.1068 209.075L92.9935 208.981L90.8613 211.621L90.9746 211.714L93.1068 209.075ZM92.2401 208.371L90.103 211.01L90.2162 211.104L92.3534 208.464L92.2401 208.371ZM92.8409 203.368H92.6931L92.314 206.741H92.4568L92.8409 203.368ZM91.728 203.245L91.3488 206.618H91.4965L91.8757 203.24L91.728 203.245ZM94.1163 201.615L95.1651 199.783H94.978L93.9932 201.541L94.1163 201.615ZM96.1155 199.783L94.8303 202.023L94.9583 202.097L96.2829 199.783H96.1155ZM90.8367 201.142L90.95 201.048L89.9109 199.783H89.7238L90.8367 201.142ZM91.5852 200.526L91.6984 200.433L91.1666 199.783H90.9746L91.5852 200.526ZM86.917 202.752L85.8435 199.798H85.6908L86.7791 202.816L86.917 202.752ZM87.695 202.476L87.8329 202.422L86.8776 199.783H86.72L87.695 202.476ZM80.8503 200.6L80.934 200.871L81.2097 199.783H81.062L80.8503 200.6ZM81.5938 201.625L81.7317 201.659L82.2242 199.783H82.0715L81.5938 201.625ZM63.832 177.54L63.8862 177.678L63.9896 177.634V177.481L63.832 177.54ZM63.9896 176.437L63.4972 176.639L63.5513 176.772L64.0093 176.594L63.9896 176.437ZM62.4778 181.854L63.9896 182.193V182.046L62.5123 181.711L62.4778 181.854ZM62.6945 180.908L63.9896 181.199V181.051L62.724 180.736L62.6945 180.908ZM63.9896 192.451L62.5123 192.081L62.4778 192.224L63.9551 192.603L63.9896 192.451ZM62.7733 191.141L62.7388 191.284L63.9896 191.599V191.451L62.7733 191.141ZM63.9896 196.75V196.592L63.0047 196.922L63.0491 197.06L63.9896 196.75ZM63.9896 195.725V195.573L62.6896 196.001L62.7339 196.139L63.9896 195.725ZM60.8676 198.68L60.7445 198.611L60.0649 199.798H60.2324L60.8676 198.68ZM61.7097 199.172L61.5865 199.098L61.1827 199.807H61.3502L61.7097 199.172ZM53.752 198.537L54.7861 199.807H54.9782L53.8653 198.443L53.752 198.537ZM54.5005 197.921L56.0418 199.807H56.2289L54.6138 197.838L54.5005 197.921ZM51.7429 199.256L51.605 199.305L51.7872 199.798H51.9448L51.7429 199.256ZM49.6255 170.154L50.1179 170.784L49.6255 170.129V170.154ZM46.5675 171.252L47.7247 174.443L47.8577 174.393L46.7202 171.153L46.5675 171.252ZM47.4834 170.922L48.6357 174.113L48.7736 174.063L47.6213 170.872L47.4834 170.922ZM59.5233 194.44L56.3964 193.115L56.3422 193.248L59.4691 194.573L59.5233 194.44ZM59.1441 195.336L56.0221 194.007L55.963 194.145L59.0899 195.469L59.1441 195.336ZM59.5233 185.773L58.5975 189.043L58.7354 189.082L59.6612 185.813L59.5233 185.773ZM60.5968 186.079L60.454 186.039L59.5331 189.304L59.671 189.343L60.5968 186.079ZM55.5888 186.428L54.6039 183.178L54.4661 183.218L55.4509 186.473L55.5888 186.428ZM56.5145 186.148L55.5297 182.898L55.3918 182.937L56.3767 186.192L56.5145 186.148ZM46.8039 177.717L46.6808 177.643L44.9918 180.598L45.1198 180.667L46.8039 177.717ZM45.9618 177.225L45.8387 177.151L44.1497 180.105L44.2777 180.174L45.9618 177.225ZM54.9585 180.243L51.8316 178.919L51.7774 179.052L54.9043 180.381L54.9585 180.243ZM55.3376 179.352L52.2107 178.027L52.1566 178.16L55.2835 179.485L55.3376 179.352ZM49.4581 194.696L52.8213 194.204V194.061L49.4581 194.553V194.696ZM49.5959 195.656L52.9592 195.164V195.021L49.5959 195.514V195.656ZM52.0581 191.52L52.2009 191.549L52.9592 188.24L52.8164 188.206L52.0581 191.52ZM53.7619 188.423L53.0035 191.737L53.1463 191.766L53.9047 188.457L53.7619 188.423ZM44.5043 182.563L43.2092 183.129L43.2584 183.267L44.5633 182.696L44.5043 182.563ZM44.8883 183.454L43.5243 184.05L43.5736 184.188L44.9474 183.587L44.8883 183.454ZM49.3202 180.499L50.305 183.754L50.4478 183.71L49.463 180.46L49.3202 180.499ZM48.3895 180.78L49.3744 184.03L49.5172 183.991L48.5323 180.741L48.3895 180.78ZM40.9539 174.482L41.0425 174.595L43.7558 172.552L43.6671 172.433L40.9539 174.482ZM44.3418 173.325L44.2531 173.212L41.5398 175.255L41.6285 175.373L44.3418 173.325ZM49.4679 190.023L46.341 188.698L46.2819 188.831L49.4088 190.156L49.4679 190.023ZM46.6611 187.935L49.788 189.26L49.8471 189.127L46.7202 187.777L46.6611 187.935ZM62.6748 202.462L62.6059 202.59L62.729 202.491L62.6748 202.462ZM63.1328 201.61L63.0638 201.738L63.4233 201.93L63.5415 201.826L63.1328 201.61ZM57.5536 205.165H57.7013L57.9032 203.343H57.7604L57.5536 205.165ZM56.5687 204.998L56.7115 205.042L56.9134 203.235H56.7706L56.5687 204.998ZM60.2077 199.758H60.0403L59.0555 201.516L59.1786 201.59L60.2077 199.758ZM61.3256 199.758H61.1581L59.8729 201.999L60.0009 202.073L61.3256 199.758ZM55.8793 201.117L55.9876 201.024L54.9536 199.758H54.7615L55.8793 201.117ZM56.6278 200.502L56.7411 200.408L56.2043 199.758H56.0172L56.6278 200.502ZM51.7626 199.758L52.4668 201.728L52.7376 202.043L51.9202 199.778L51.7626 199.758Z" fill="white"/>
<path d="M92.5947 147.743C92.5947 147.743 84.5977 146.63 80.9045 149.019C77.2112 151.407 58.9619 182.597 58.9619 182.597L48.8819 169.031L40.1414 172.955C40.1414 172.955 44.2383 188.812 49.005 196.7C53.7717 204.589 56.4899 205.387 58.1248 205.126C62.99 204.353 77.0832 188.048 77.0832 188.048L82.2045 205.086L78.7279 217.471H143.482L135.628 204.372C135.628 204.372 145.875 157.099 143.265 152.091C140.656 147.083 125.449 147.743 120.668 147.743H106.978C104.904 148.155 102.795 148.372 100.68 148.393C97.9758 148.314 95.277 148.098 92.5947 147.743V147.743Z" stroke="#263238" stroke-width="0.985332"/>
<path d="M77.088 188.048C75.2133 184.303 74.4853 180.087 74.9952 175.93C75.9455 169.297 80.0524 162.033 80.0524 162.033C80.0524 162.033 71.8584 173.852 71.8584 177.791C71.8584 181.73 74.2959 187.492 74.2959 187.492L72.1686 193.564L77.088 188.048Z" fill="#263238" stroke="#263238" stroke-width="0.985332" stroke-linecap="round" stroke-linejoin="round"/>
<path d="M99.3751 141.209L99.5918 148.162L93.727 148.378C93.727 148.378 92.5156 173.891 97.7353 178.456C102.955 183.021 118.713 147.743 118.713 147.743L113.296 146.655L111.558 132.532L99.3751 141.209Z" fill="#AE7461" stroke="#263238" stroke-width="0.985332" stroke-linecap="round" stroke-linejoin="round"/>
<path d="M112.183 135.29L99.6411 147.108V142.927L112.183 135.29Z" fill="#263238" stroke="#263238" stroke-width="0.985332" stroke-linecap="round" stroke-linejoin="round"/>
<path d="M97.7354 178.456C97.7354 178.456 98.3657 174.349 101.522 168.982L97.7354 178.456Z" fill="white"/>
<path d="M97.7354 178.456C97.7354 178.456 98.3657 174.349 101.522 168.982" stroke="#263238" stroke-width="0.985332" stroke-linecap="round" stroke-linejoin="round"/>
<path d="M96.849 102.002L82.5686 116.848C83.6905 120.008 84.2343 123.344 84.1739 126.697C84.0065 131.956 88.788 139.692 92.6978 143.287C96.6077 146.881 104.585 141.356 107.564 139.406C109.554 138.058 111.409 136.521 113.104 134.817C114.191 134.77 115.248 134.448 116.176 133.881C117.104 133.315 117.874 132.522 118.412 131.577C118.412 131.577 97.6615 109.403 96.849 102.002Z" fill="#AE7461" stroke="#263238" stroke-width="0.985332" stroke-linecap="round" stroke-linejoin="round"/>
<path d="M92.9786 117.247C93.4723 118.253 93.792 119.335 93.9241 120.448C93.9684 121.822 91.5604 128.258 91.9051 128.686C92.2498 129.115 93.3282 130.533 94.1703 130.351" stroke="#263238" stroke-width="0.985332" stroke-linecap="round" stroke-linejoin="round"/>
<path d="M98.9172 124.284C100.929 123.53 103.142 123.504 105.171 124.21" stroke="#263238" stroke-width="0.492666" stroke-linecap="round" stroke-linejoin="round"/>
<path d="M87.8032 124.796C88.8788 124.494 89.9902 124.338 91.1074 124.333" stroke="#263238" stroke-width="0.492666" stroke-linecap="round" stroke-linejoin="round"/>
<path d="M91.1763 113.608C90.6245 113.567 90.0708 113.654 89.5583 113.863C89.0457 114.071 88.5883 114.395 88.2217 114.81C86.9858 116.233 86.385 117.474 86.0748 116.469C85.7645 115.465 87.1433 113.618 87.6308 113.244C88.1183 112.87 90.4032 111.402 91.1763 113.608Z" fill="#263238"/>
<path d="M97.2874 112.781C98.7359 112.775 100.165 113.113 101.458 113.766C103.344 114.8 102.443 112.702 101.118 112.101C99.7938 111.501 97.4991 111.56 97.2874 112.781Z" fill="#263238"/>
<path d="M119.151 137.476C119.24 138.953 118.476 140.184 117.457 140.244C116.438 140.303 115.537 139.16 115.448 137.693C115.359 136.225 115.975 132.439 116.994 132.379C118.013 132.32 119.067 136.004 119.151 137.476Z" fill="#FF725E" stroke="#263238" stroke-width="0.985332" stroke-linecap="round" stroke-linejoin="round"/>
<path d="M90.5904 122.137C90.6593 123.122 90.285 123.92 89.7581 123.954C89.2313 123.989 88.7733 123.235 88.6896 122.27C88.6059 121.305 88.9949 120.487 89.5218 120.453C90.0487 120.418 90.546 121.192 90.5904 122.137Z" fill="#263238"/>
<path d="M101.217 121.758C101.286 122.743 100.912 123.535 100.39 123.575C99.8676 123.614 99.4047 122.856 99.3161 121.886C99.2274 120.916 99.6263 120.108 100.148 120.074C100.67 120.039 101.153 120.793 101.217 121.758Z" fill="#263238"/>
<path d="M94.1013 133.153C94.1013 133.153 96.6078 133.955 100.01 131.045" stroke="#263238" stroke-width="0.985332" stroke-linecap="round" stroke-linejoin="round"/>
<path d="M48.8818 169.041L44.2973 162.9C44.0855 161.265 43.6768 157.887 43.6079 155.607C43.5143 152.505 43.667 150.609 41.9041 147.856C40.1412 145.104 35.2218 140.756 34.759 139.746C34.2961 138.737 32.9567 141.583 33.7987 143.43C34.6408 145.276 35.409 145.842 35.409 145.842C35.409 145.842 26.3532 141.342 26.0529 142.075C25.7525 142.809 30.268 155.785 32.3362 159.207C33.198 160.635 35.5862 162.546 36.7385 164.2C37.3021 165.017 37.7853 165.886 38.1813 166.795C39.2548 171.36 40.5056 176.383 41.1359 176.565C42.5689 176.984 48.6503 177.082 48.8818 169.041Z" fill="#AE7461" stroke="#263238" stroke-width="0.985332" stroke-miterlimit="10"/>
<path d="M36.0098 154.933C35.927 154.955 35.8406 154.961 35.7556 154.949C35.6706 154.938 35.5887 154.91 35.5146 154.867C35.4404 154.824 35.3755 154.767 35.3236 154.699C35.2717 154.63 35.2338 154.553 35.212 154.47L28.0078 127.834C27.9693 127.673 27.9937 127.504 28.0761 127.36C28.1584 127.216 28.2925 127.109 28.451 127.061C28.6175 127.017 28.7945 127.041 28.9438 127.127C29.0931 127.212 29.2026 127.353 29.2487 127.519L36.4726 154.145C36.5134 154.31 36.4878 154.486 36.4013 154.633C36.3149 154.78 36.1744 154.888 36.0098 154.933Z" fill="#263238" stroke="#263238" stroke-width="0.985332" stroke-miterlimit="10"/>
<path d="M30.8147 137.988C30.8147 137.988 23.8616 141.662 24.29 142.381C24.7184 143.1 25.9889 145.665 26.5699 145.606C27.151 145.547 31.3711 142.1 31.6764 141.667C31.9817 141.233 30.8147 137.988 30.8147 137.988Z" fill="#AE7461" stroke="#263238" stroke-width="0.985332" stroke-miterlimit="10"/>
<path d="M32.0554 142.499C32.0554 142.499 26.2792 146.758 26.4664 147.379C26.6535 147.999 29.4849 155.341 29.9774 155.937C30.4698 156.533 34.9903 154.46 34.9903 154.46L32.0554 142.499Z" fill="#AE7461" stroke="#263238" stroke-width="0.985332" stroke-miterlimit="10"/>
<path d="M32.9321 146.458C32.9321 146.458 27.4021 150.801 27.7665 150.939" stroke="#263238" stroke-width="0.985332" stroke-miterlimit="10"/>
<path d="M33.9761 151.166L29.3276 153.889" stroke="#263238" stroke-width="0.985332" stroke-miterlimit="10"/>
<path d="M35.3943 145.842L37.9451 148.334C37.9451 148.334 34.5572 155.568 37.8023 159.561" stroke="#263238" stroke-width="0.985332" stroke-miterlimit="10"/>
<path d="M136.041 149.284C136.041 149.284 142.231 148.477 144.905 153.593C147.579 158.71 164.287 203.929 164.558 208.253C164.829 212.576 153.518 213.635 149.751 211.754C145.983 209.873 135.47 187.526 134.406 184.562" fill="#FF725E"/>
<path d="M138.009 180.597L137.092 183.859L137.234 183.899L138.151 180.637L138.009 180.597Z" fill="white"/>
<path d="M140.148 171.399L139.208 168.135L139.065 168.179L140.01 171.439L140.148 171.399Z" fill="white"/>
<path d="M139.688 180.921L138.76 184.19L138.902 184.23L139.83 180.961L139.688 180.921Z" fill="white"/>
<path d="M141.113 178.781L138.961 176.151L138.848 176.245L141 178.869L141.113 178.781Z" fill="white"/>
<path d="M145.758 182.304L142.644 183.663L142.703 183.798L145.817 182.439L145.758 182.304Z" fill="white"/>
<path d="M145.466 186.221L145.343 186.143L143.526 189.013L143.649 189.092L145.466 186.221Z" fill="white"/>
<path d="M138.134 168.445L139.075 171.71L139.218 171.665L138.272 168.405L138.134 168.445Z" fill="white"/>
<path d="M142.704 188.492L142.827 188.57L144.644 185.704L144.521 185.626L142.704 188.492Z" fill="white"/>
<path d="M141.862 178.165L139.715 175.536L139.602 175.629L141.749 178.254L141.862 178.165Z" fill="white"/>
<path d="M145.119 172.036L142.403 174.078L142.491 174.196L145.207 172.154L145.119 172.036Z" fill="white"/>
<path d="M144.437 157.577L145.417 160.832L145.555 160.788L144.58 157.538L144.437 157.577Z" fill="white"/>
<path d="M144.62 171.39L144.531 171.271L141.818 173.315L141.906 173.433L144.62 171.39Z" fill="white"/>
<path d="M142.827 153.652L143.846 152.042C143.812 152.008 143.782 151.968 143.748 151.929L142.704 153.574L142.827 153.652Z" fill="white"/>
<path d="M139.848 159.783L139.966 159.872L142.029 157.173L141.916 157.085L139.848 159.783Z" fill="white"/>
<path d="M141.699 164.21L144.826 165.535L144.885 165.402L141.758 164.077L141.699 164.21Z" fill="white"/>
<path d="M145.368 157.296L146.348 160.551L146.486 160.507L145.511 157.257L145.368 157.296Z" fill="white"/>
<path d="M145.161 179.042L146.85 176.092L146.722 176.023L145.038 178.968L145.161 179.042Z" fill="white"/>
<path d="M141.383 164.983L141.328 165.114L144.456 166.441L144.511 166.31L141.383 164.983Z" fill="white"/>
<path d="M145.361 181.434L142.246 182.792L142.305 182.927L145.42 181.569L145.361 181.434Z" fill="white"/>
<path d="M153.084 211.823L153.03 211.956L154.601 212.625H154.985L153.084 211.823Z" fill="white"/>
<path d="M153.764 201.26L152.808 198.616L152.612 198.069L152.474 198.118L152.656 198.616L153.626 201.309L153.764 201.26Z" fill="white"/>
<path d="M150.494 203.9L152.646 206.529L152.754 206.436L150.607 203.806L150.494 203.9Z" fill="white"/>
<path d="M152.848 201.59L151.779 198.616L151.696 198.399L151.563 198.443L151.622 198.616L152.715 201.639L152.848 201.59Z" fill="white"/>
<path d="M153.803 193.903L150.44 194.376L150.46 194.519L153.823 194.046L153.803 193.903Z" fill="white"/>
<path d="M163.573 208.42L164.484 207.632L164.455 207.47L163.47 208.312L163.573 208.42Z" fill="white"/>
<path d="M139.08 159.192L139.193 159.281L141.261 156.582L141.143 156.494L139.08 159.192Z" fill="white"/>
<path d="M135.203 177.05L135.064 177.1L136.218 180.296L136.357 180.246L135.203 177.05Z" fill="white"/>
<path d="M162.933 207.686L164.233 206.564C164.217 206.512 164.204 206.459 164.193 206.406L162.839 207.578L162.933 207.686Z" fill="white"/>
<path d="M153.508 205.82L151.356 203.195L151.243 203.284L153.395 205.914L153.508 205.82Z" fill="white"/>
<path d="M135.869 168.319L135.671 171.711L135.819 171.719L136.016 168.327L135.869 168.319Z" fill="white"/>
<path d="M151.297 182.548L150.322 179.298L150.179 179.337L151.159 182.592L151.297 182.548Z" fill="white"/>
<path d="M148.487 169.676L148.352 169.724L149.505 172.921L149.64 172.872L148.487 169.676Z" fill="white"/>
<path d="M147.993 163.683L147.525 165.53L147.668 165.564L148.145 163.683L148.505 162.27L148.362 162.235L147.993 163.683Z" fill="white"/>
<path d="M146.993 163.683L146.584 165.288L146.727 165.323L147.141 163.683L147.564 162.033L147.421 161.999L146.993 163.683Z" fill="white"/>
<path d="M149.248 179.618L150.228 182.868L150.366 182.829L149.391 179.574L149.248 179.618Z" fill="white"/>
<path d="M147.566 170.02L147.432 170.068L148.585 173.264L148.72 173.216L147.566 170.02Z" fill="white"/>
<path d="M136.122 176.711L135.983 176.762L137.137 179.958L137.276 179.908L136.122 176.711Z" fill="white"/>
<path d="M143.649 154.145L144.477 152.84L144.388 152.702L143.526 154.071L143.649 154.145Z" fill="white"/>
<path d="M147.525 186.773L150.652 188.098L150.706 187.965L147.579 186.64L147.525 186.773Z" fill="white"/>
<path d="M138.932 151.653L138.804 151.579L137.115 154.524L137.243 154.598L138.932 151.653Z" fill="white"/>
<path d="M161.948 199.103L161.884 198.921L160.776 200.861L160.899 200.93L161.948 199.103Z" fill="white"/>
<path d="M158.772 202.206L158.629 202.191L158.245 205.564L158.393 205.579L158.772 202.206Z" fill="white"/>
<path d="M156.912 192.885L156.856 193.017L159.984 194.344L160.04 194.213L156.912 192.885Z" fill="white"/>
<path d="M161.096 198.616L161.525 197.872L161.465 197.685L160.929 198.616L159.919 200.379L160.047 200.448L161.096 198.616Z" fill="white"/>
<path d="M159.043 207.913L158.929 207.819L156.792 210.459L156.905 210.552L159.043 207.913Z" fill="white"/>
<path d="M159.885 193.081L157.285 191.978L157.23 192.111L159.949 193.263L159.885 193.081Z" fill="white"/>
<path d="M158.284 207.302L158.171 207.209L156.039 209.848L156.152 209.942L158.284 207.302Z" fill="white"/>
<path d="M154.768 187.32L154.626 187.285L153.867 190.594L154.01 190.629L154.768 187.32Z" fill="white"/>
<path d="M156.767 199.98L156.881 199.886L155.842 198.616L154.729 197.257L154.615 197.35L155.655 198.616L156.767 199.98Z" fill="white"/>
<path d="M137.957 155.006L138.085 155.08L139.774 152.131L139.646 152.062L137.957 155.006Z" fill="white"/>
<path d="M147.565 204.95L147.431 204.999L148.585 208.194L148.719 208.146L147.565 204.95Z" fill="white"/>
<path d="M160.421 211.04L160.279 211L160.018 212.025L160.18 211.98L160.421 211.04Z" fill="white"/>
<path d="M148.49 204.608L148.356 204.657L149.509 207.853L149.643 207.804L148.49 204.608Z" fill="white"/>
<path d="M153.025 177.023L154.325 177.574C154.325 177.51 154.276 177.446 154.256 177.387L153.079 176.895L153.025 177.023Z" fill="white"/>
<path d="M161.362 211.266L161.219 211.232L161.101 211.69L161.268 211.631L161.362 211.266Z" fill="white"/>
<path d="M144.506 201.231L141.926 200.137L142.034 200.339L144.447 201.364L144.506 201.231Z" fill="white"/>
<path d="M135.687 156.981L137.366 158.729L137.474 158.631L135.697 156.784L135.687 156.981Z" fill="white"/>
<path d="M150.494 168.967L151.646 170.37L151.484 169.947L150.622 168.873L150.494 168.967Z" fill="white"/>
<path d="M136.667 159.404L136.77 159.3L135.638 158.119L135.628 158.321L136.667 159.404Z" fill="white"/>
<path d="M155.354 182.08L156.334 185.335L156.472 185.291L155.497 182.041L155.354 182.08Z" fill="white"/>
<path d="M144.885 200.339L141.758 199.01L141.699 199.143L144.826 200.472L144.885 200.339Z" fill="white"/>
<path d="M141.261 191.52L141.143 191.431L139.08 194.125L139.193 194.214L141.261 191.52Z" fill="white"/>
<path d="M146.486 195.445L145.511 192.19L145.368 192.234L146.348 195.484L146.486 195.445Z" fill="white"/>
<path d="M145.555 195.725L144.58 192.47L144.437 192.515L145.417 195.765L145.555 195.725Z" fill="white"/>
<path d="M142.029 192.106L141.916 192.022L139.848 194.716L139.966 194.804L142.029 192.106Z" fill="white"/>
<path d="M137.066 165.269L137.208 165.308L137.666 163.683L138.129 162.043L137.991 161.999L137.514 163.683L137.066 165.269Z" fill="white"/>
<path d="M136.504 163.683L136.13 165.008L136.273 165.047L136.657 163.683L137.194 161.777L137.056 161.738L136.504 163.683Z" fill="white"/>
<path d="M138.932 186.586L138.804 186.512L137.115 189.462L137.243 189.531L138.932 186.586Z" fill="white"/>
<path d="M139.774 187.068L139.646 186.995L137.957 189.944L138.085 190.013L139.774 187.068Z" fill="white"/>
<path d="M147.569 176.506L145.88 179.451L146.003 179.524L147.692 176.575L147.569 176.506Z" fill="white"/>
<path d="M153.68 187.068L152.922 190.378L153.064 190.412L153.823 187.103L153.68 187.068Z" fill="white"/>
<path d="M154.714 178.633L152.7 177.781L152.646 177.914L154.783 178.82C154.759 178.766 154.739 178.697 154.714 178.633Z" fill="white"/>
<path d="M153.69 193.086L153.67 192.943L150.307 193.416L150.327 193.559L153.69 193.086Z" fill="white"/>
<path d="M155.482 196.641L155.369 196.735L156.91 198.616L157.521 199.364L157.634 199.271L157.098 198.616L155.482 196.641Z" fill="white"/>
<path d="M148.145 198.616L148.505 197.207L148.362 197.173L147.993 198.616L147.525 200.462L147.668 200.497L148.145 198.616Z" fill="white"/>
<path d="M147.203 187.548L147.147 187.679L150.275 189.006L150.33 188.875L147.203 187.548Z" fill="white"/>
<path d="M147.141 198.616L147.564 196.966L147.421 196.932L146.993 198.616L146.584 200.221L146.727 200.261L147.141 198.616Z" fill="white"/>
<path d="M157.428 205.47L157.807 202.097L157.664 202.082L157.28 205.456L157.428 205.47Z" fill="white"/>
<path d="M136.041 149.284C136.041 149.284 142.231 148.477 144.905 153.593C147.579 158.71 164.287 203.929 164.558 208.253C164.829 212.576 153.518 213.635 149.751 211.754C145.983 209.873 135.47 187.526 134.406 184.562" stroke="#263238" stroke-width="0.985332"/>
<path d="M98.6218 210.931C98.6218 210.931 85.9714 209.316 83.8145 209.582C81.6577 209.848 71.9717 216.314 71.9717 216.314H99.4097L98.6218 210.931Z" fill="#AE7461" stroke="#263238" stroke-width="0.985332" stroke-linecap="round" stroke-linejoin="round"/>
<path d="M150.844 202.314L98.6465 210.931L99.4097 216.314H163.77C164.27 213.65 164.541 210.948 164.578 208.238C164.578 204.2 162.155 199.625 162.155 199.625" fill="#FF725E"/>
<path d="M155.167 211.202L156.147 214.452L156.285 214.413L155.31 211.158L155.167 211.202Z" fill="white"/>
<path d="M158.742 202.004L156.605 204.643L156.718 204.737L158.855 202.097L158.742 202.004Z" fill="white"/>
<path d="M155.852 204.033L155.965 204.126L158.097 201.487L157.984 201.393L155.852 204.033Z" fill="white"/>
<path d="M149.061 208.735L150.041 211.99L150.179 211.946L149.204 208.696L149.061 208.735Z" fill="white"/>
<path d="M157.216 214.132L156.236 210.877L156.098 210.922L157.078 214.172L157.216 214.132Z" fill="white"/>
<path d="M151.11 211.67L150.135 208.415L149.992 208.459L150.972 211.709L151.11 211.67Z" fill="white"/>
<path d="M160.095 205.187L159.258 208.48L159.401 208.516L160.238 205.223L160.095 205.187Z" fill="white"/>
<path d="M159.496 216.314H159.648L160.362 213.792L160.219 213.753L159.496 216.314Z" fill="white"/>
<path d="M147.392 215.757L147.338 215.89L148.332 216.314H148.707L147.392 215.757Z" fill="white"/>
<path d="M161.022 205.402L160.186 208.695L160.329 208.732L161.166 205.439L161.022 205.402Z" fill="white"/>
<path d="M135.931 205.828L135.792 205.878L136.945 209.075L137.084 209.024L135.931 205.828Z" fill="white"/>
<path d="M152.459 207.036L155.581 208.361L155.64 208.228L152.513 206.898L152.459 207.036Z" fill="white"/>
<path d="M153.493 216.191L153.463 216.314H153.611L153.636 216.22L153.493 216.191Z" fill="white"/>
<path d="M152.893 206.018L152.837 206.15L155.965 207.477L156.021 207.345L152.893 206.018Z" fill="white"/>
<path d="M138.661 205.362L140.813 207.992L140.926 207.898L138.774 205.269L138.661 205.362Z" fill="white"/>
<path d="M141.675 207.283L139.523 204.658L139.414 204.747L141.561 207.376L141.675 207.283Z" fill="white"/>
<path d="M162.751 201.871L163.051 201.61L162.992 201.467L162.657 201.762L162.751 201.871Z" fill="white"/>
<path d="M138.566 209.776L137.639 213.045L137.781 213.085L138.708 209.817L138.566 209.776Z" fill="white"/>
<path d="M163.376 208.863L164.563 209.134C164.563 209.085 164.563 209.036 164.563 208.986L163.401 208.72L163.376 208.863Z" fill="white"/>
<path d="M145.156 215.265L144.491 216.314H144.664L145.279 215.339L145.156 215.265Z" fill="white"/>
<path d="M164.528 209.971L163.194 209.671L163.159 209.809L164.518 210.119C164.523 210.07 164.528 210.02 164.528 209.971Z" fill="white"/>
<path d="M163.386 202.604L163.42 202.575L163.366 202.427L163.292 202.496L163.386 202.604Z" fill="white"/>
<path d="M145.172 210.548L142.058 211.906L142.117 212.041L145.231 210.683L145.172 210.548Z" fill="white"/>
<path d="M144.457 214.822L144.334 214.743L143.339 216.314H143.511L144.457 214.822Z" fill="white"/>
<path d="M139.511 210.067L138.583 213.335L138.726 213.376L139.653 210.107L139.511 210.067Z" fill="white"/>
<path d="M145.571 211.425L142.456 212.784L142.515 212.919L145.63 211.561L145.571 211.425Z" fill="white"/>
<path d="M147.505 205.697L147.382 205.623L145.693 208.573L145.816 208.647L147.505 205.697Z" fill="white"/>
<path d="M144.851 208.09L144.974 208.159L146.663 205.214L146.535 205.14L144.851 208.09Z" fill="white"/>
<path d="M110.241 210.55L107.126 211.908L107.186 212.044L110.3 210.686L110.241 210.55Z" fill="white"/>
<path d="M103.812 215.703L103.684 215.634L103.295 216.314H103.462L103.812 215.703Z" fill="white"/>
<path d="M102.847 213.088L103.694 210.094L103.536 210.119L102.709 213.049L102.847 213.088Z" fill="white"/>
<path d="M104.654 216.186L104.526 216.117L104.413 216.314H104.58L104.654 216.186Z" fill="white"/>
<path d="M121.027 207.465L121.086 207.332L120.899 207.258L120.633 207.297L121.027 207.465Z" fill="white"/>
<path d="M124.563 216.314H124.716L125.425 213.792L125.287 213.753L124.563 216.314Z" fill="white"/>
<path d="M125.838 206.44L125.262 208.715L125.4 208.755L125.996 206.416L125.838 206.44Z" fill="white"/>
<path d="M109.524 214.822L109.401 214.743L108.406 216.314H108.579L109.524 214.822Z" fill="white"/>
<path d="M110.347 215.339L110.223 215.265L109.554 216.314H109.726L110.347 215.339Z" fill="white"/>
<path d="M139.459 216.117L139.346 216.314H139.513L139.587 216.186L139.459 216.117Z" fill="white"/>
<path d="M161.155 214.019L160.505 216.314H160.658L161.293 214.058L161.155 214.019Z" fill="white"/>
<path d="M135.016 206.165L134.877 206.216L136.031 209.411L136.17 209.361L135.016 206.165Z" fill="white"/>
<path d="M126.217 214.019L125.572 216.314H125.72L126.36 214.058L126.217 214.019Z" fill="white"/>
<path d="M112.459 215.757L112.4 215.89L113.4 216.314H113.769L112.459 215.757Z" fill="white"/>
<path d="M138.745 215.703L138.617 215.634L138.228 216.314H138.395L138.745 215.703Z" fill="white"/>
<path d="M103.825 209.839L102.907 213.101L103.049 213.141L103.966 209.879L103.825 209.839Z" fill="white"/>
<path d="M131.836 212.31L131.698 212.256L130.457 215.417L130.59 215.472L131.836 212.31Z" fill="white"/>
<path d="M110.629 211.438L107.514 212.796L107.573 212.932L110.688 211.574L110.629 211.438Z" fill="white"/>
<path d="M132.737 212.66L132.599 212.611L131.358 215.772L131.496 215.821L132.737 212.66Z" fill="white"/>
<path d="M128.227 209.814L129.733 210.153L131.536 210.557L131.57 210.414L129.733 210.001L128.256 209.671L128.227 209.814Z" fill="white"/>
<path d="M131.752 209.612L131.787 209.469L129.733 209.006L128.473 208.72L128.438 208.863L129.733 209.154L131.752 209.612Z" fill="white"/>
<path d="M124.465 208.514L124.952 206.588L124.795 206.613L124.322 208.479L124.465 208.514Z" fill="white"/>
<path d="M120.707 208.228L119.112 207.548L118.846 207.593L120.648 208.361L120.707 208.228Z" fill="white"/>
<path d="M116.034 211.709L116.177 211.67L115.197 208.415L115.059 208.459L116.034 211.709Z" fill="white"/>
<path d="M115.246 211.946L114.266 208.696L114.128 208.735L115.108 211.99L115.246 211.946Z" fill="white"/>
<path d="M120.234 211.202L121.214 214.452L121.352 214.413L120.372 211.158L120.234 211.202Z" fill="white"/>
<path d="M118.555 216.191L118.526 216.314H118.678L118.698 216.22L118.555 216.191Z" fill="white"/>
<path d="M122.283 214.132L121.303 210.877L121.165 210.922L122.14 214.172L122.283 214.132Z" fill="white"/>
<path d="M150.844 202.314L98.6465 210.931L99.4097 216.314H163.77C164.27 213.65 164.541 210.948 164.578 208.238C164.578 204.2 162.155 199.625 162.155 199.625" stroke="#263238" stroke-width="0.985332"/>
<path d="M162.322 215.442H97.4401L95.3128 179.751C95.2549 179.403 95.2734 179.047 95.3669 178.707C95.4605 178.368 95.627 178.052 95.8547 177.783C96.0824 177.514 96.366 177.298 96.6857 177.15C97.0054 177.002 97.3535 176.925 97.706 176.924H162.046C162.399 176.924 162.748 177 163.068 177.148C163.388 177.296 163.672 177.512 163.9 177.782C164.128 178.051 164.294 178.366 164.387 178.707C164.481 179.047 164.498 179.403 164.44 179.751L162.322 215.442Z" fill="#263238" stroke="#263238" stroke-width="0.985332" stroke-linecap="round" stroke-linejoin="round"/>
<path d="M100.626 177.781H161.579C161.923 177.778 162.264 177.849 162.577 177.991C162.891 178.133 163.17 178.341 163.394 178.602C163.619 178.863 163.784 179.169 163.878 179.501C163.972 179.832 163.992 180.179 163.938 180.519" stroke="white" stroke-width="0.985332" stroke-linecap="round" stroke-linejoin="round"/>
<path d="M95.7954 179.973C95.8415 179.373 96.1131 178.814 96.5555 178.407C96.9978 178.001 97.5779 177.777 98.1788 177.781" stroke="white" stroke-width="0.985332" stroke-linecap="round" stroke-linejoin="round"/>
<path d="M162.593 211.966H97.1592V215.442H162.593V211.966Z" fill="white" stroke="#263238" stroke-width="0.985332" stroke-linecap="round" stroke-linejoin="round"/>
<path d="M134.283 196.326C134.283 197.862 132.205 199.108 129.645 199.108C127.084 199.108 125.011 197.862 125.011 196.326C125.011 194.79 127.089 193.544 129.645 193.544C132.2 193.544 134.283 194.79 134.283 196.326Z" fill="white" stroke="#263238" stroke-width="0.985332" stroke-linecap="round" stroke-linejoin="round"/>
<path d="M32.9026 211.857C31.5275 211.789 30.1768 211.467 28.9189 210.907C28.5985 210.753 28.35 210.481 28.2254 210.148C28.1008 209.815 28.1096 209.446 28.25 209.12C28.3905 208.793 28.6517 208.533 28.9791 208.395C29.3065 208.256 29.6749 208.249 30.0072 208.376C31.2776 208.917 32.9076 209.252 33.3458 209.065C34.1436 208.164 35.3796 202.723 33.7841 200.128C33.7003 199.944 33.5739 199.784 33.4154 199.66C33.2569 199.536 33.0709 199.451 32.8731 199.414C31.967 199.29 30.6276 200.221 30.1549 200.664C29.8854 200.899 29.5354 201.019 29.1786 201.001C28.8219 200.982 28.4863 200.826 28.2425 200.565C27.9987 200.304 27.8657 199.958 27.8715 199.601C27.8774 199.244 28.0216 198.903 28.2738 198.65C28.525 198.414 30.8098 196.361 33.2375 196.681C33.8401 196.771 34.414 196.998 34.9152 197.344C35.4163 197.691 35.8312 198.148 36.128 198.68C38.4769 202.501 36.8716 209.789 35.0644 211.217C34.437 211.669 33.6749 211.894 32.9026 211.857Z" fill="#263238" stroke="#263238" stroke-width="0.985332" stroke-linecap="round" stroke-linejoin="round"/>
<path d="M30.465 195.558H15.2737V215.723H30.465V195.558Z" fill="#263238" stroke="#263238" stroke-width="0.985332" stroke-linecap="round" stroke-linejoin="round"/>
<path d="M16.6526 194.455C16.6526 194.455 16.6526 192.776 19.7303 191.096C22.8079 189.417 24.4871 186.901 22.8079 182.144C21.1287 177.387 21.4094 174.029 24.7776 171.227" stroke="#263238" stroke-width="0.985332" stroke-linecap="round" stroke-linejoin="round"/>
<path d="M17.3518 176.555C17.5094 174.512 18.4204 172.783 20.3064 171.227" stroke="#263238" stroke-width="0.985332" stroke-linecap="round" stroke-linejoin="round"/>
<path d="M18.3315 182.144C18.024 181.296 17.7756 180.427 17.5879 179.544" stroke="#263238" stroke-width="0.985332" stroke-linecap="round" stroke-linejoin="round"/>
<path d="M29.1504 183.784C29.0324 183.227 28.8761 182.679 28.6826 182.144L28.4265 181.386" stroke="#263238" stroke-width="0.985332" stroke-linecap="round" stroke-linejoin="round"/>
<path d="M22.5271 194.455C22.5271 194.455 22.5271 192.776 25.6048 191.096C27.6237 189.993 29.0518 188.531 29.3029 186.315" stroke="#263238" stroke-width="0.985332" stroke-linecap="round" stroke-linejoin="round"/>
<path d="M230.41 215.378H1.21484V220.45H230.41V215.378Z" fill="#263238"/>
</svg>
